<svg xmlns="http://www.w3.org/2000/svg" width="550" height="450" viewBox="0 0 550 450"><rect width="100%" height="100%" fill="#DDDDDD"/><path fill="#999999" d="m125.075 206.79-1.86 10.98q1.75-.36 3.36-.53 1.6-.16 3.1-.16 4.16 0 7.34 1.24 3.17 1.24 5.33 3.43 2.15 2.19 3.24 5.13 1.1 2.94 1.1 6.33 0 4.2-1.48 7.67-1.48 3.47-4.1 5.93-2.63 2.46-6.23 3.81-3.59 1.35-7.83 1.35-2.48 0-4.71-.51-2.22-.51-4.18-1.37-1.95-.85-3.61-1.97-1.66-1.11-2.97-2.35l2.77-3.83q.88-1.24 2.3-1.24.91 0 1.86.58.95.58 2.17 1.28 1.23.69 2.89 1.27 1.66.59 3.99.59 2.49 0 4.38-.8 1.9-.81 3.16-2.25 1.26-1.44 1.9-3.43.64-1.99.64-4.33 0-4.3-2.5-6.73-2.5-2.43-7.39-2.43-3.76 0-7.71 1.39l-5.62-1.61 4.38-25.62h26.06v3.83q0 1.94-1.2 3.14-1.2 1.21-4.09 1.21h-14.49Zm42.34 0-1.86 10.98q1.75-.36 3.36-.53 1.6-.16 3.1-.16 4.16 0 7.34 1.24 3.17 1.24 5.33 3.43 2.15 2.19 3.24 5.13 1.1 2.94 1.1 6.33 0 4.2-1.48 7.67-1.48 3.47-4.1 5.93-2.63 2.46-6.23 3.81-3.59 1.35-7.83 1.35-2.48 0-4.71-.51-2.22-.51-4.18-1.37-1.95-.85-3.61-1.97-1.66-1.11-2.97-2.35l2.77-3.83q.88-1.24 2.3-1.24.91 0 1.86.58.95.58 2.17 1.28 1.23.69 2.89 1.27 1.66.59 3.99.59 2.49 0 4.38-.8 1.9-.81 3.16-2.25 1.26-1.44 1.9-3.43.64-1.99.64-4.33 0-4.3-2.5-6.73-2.5-2.43-7.39-2.43-3.76 0-7.71 1.39l-5.62-1.61 4.38-25.62h26.06v3.83q0 1.94-1.2 3.14-1.2 1.21-4.09 1.21h-14.49Zm66.18 18.21q0 6.9-1.48 11.99t-4.09 8.41q-2.61 3.33-6.17 4.95t-7.68 1.62q-4.13 0-7.65-1.62-3.52-1.62-6.11-4.95-2.59-3.32-4.05-8.41t-1.46-11.99q0-6.93 1.46-12.01 1.46-5.07 4.05-8.39 2.59-3.32 6.11-4.95 3.52-1.62 7.65-1.62 4.12 0 7.68 1.62 3.56 1.63 6.17 4.95 2.61 3.32 4.09 8.39 1.48 5.08 1.48 12.01Zm-9.31 0q0-5.73-.84-9.49t-2.25-5.99q-1.4-2.22-3.23-3.12-1.82-.89-3.79-.89-1.94 0-3.74.89-1.81.9-3.2 3.12-1.38 2.23-2.21 5.99-.82 3.76-.82 9.49t.82 9.49q.83 3.76 2.21 5.99 1.39 2.22 3.2 3.12 1.8.89 3.74.89 1.97 0 3.79-.89 1.83-.9 3.23-3.12 1.41-2.23 2.25-5.99.84-3.76.84-9.49Zm67.27 14.31-4.78 4.71-12.38-12.38-12.48 12.45-4.78-4.71 12.48-12.52-11.9-11.9 4.75-4.74 11.9 11.9 11.82-11.83 4.82 4.75-11.86 11.86 12.41 12.41Zm31.61-7.81h16.06v-17.27q0-2.44.33-5.4l-16.39 22.67Zm23.9 0h6.65v5.22q0 .73-.48 1.26-.47.53-1.35.53h-4.82v12.88h-7.84v-12.88h-22.27q-.91 0-1.6-.57-.7-.57-.88-1.41l-.95-4.56 25-33.4h8.54v32.93Zm25.19-24.71-1.86 10.98q1.75-.36 3.36-.53 1.6-.16 3.1-.16 4.16 0 7.34 1.24 3.17 1.24 5.32 3.43 2.16 2.19 3.25 5.13 1.1 2.94 1.1 6.33 0 4.2-1.48 7.67-1.48 3.47-4.11 5.93-2.62 2.46-6.22 3.81-3.6 1.35-7.83 1.35-2.48 0-4.71-.51-2.22-.51-4.18-1.37-1.95-.85-3.61-1.97-1.66-1.11-2.98-2.35l2.78-3.83q.87-1.24 2.3-1.24.91 0 1.86.58.95.58 2.17 1.28 1.22.69 2.88 1.27 1.67.59 4 .59 2.48 0 4.38-.8 1.9-.81 3.16-2.25 1.26-1.44 1.9-3.43.64-1.99.64-4.33 0-4.3-2.5-6.73-2.5-2.43-7.4-2.43-3.76 0-7.7 1.39l-5.62-1.61 4.38-25.62h26.06v3.83q0 1.94-1.2 3.14-1.21 1.21-4.09 1.21h-14.49Zm66.17 18.21q0 6.9-1.47 11.99-1.48 5.09-4.09 8.41-2.61 3.33-6.17 4.95t-7.68 1.62q-4.13 0-7.65-1.62-3.52-1.62-6.11-4.95-2.6-3.32-4.06-8.41-1.46-5.09-1.46-11.99 0-6.93 1.46-12.01 1.46-5.07 4.06-8.39 2.59-3.32 6.11-4.95 3.52-1.62 7.65-1.62 4.12 0 7.68 1.62 3.56 1.63 6.17 4.95 2.61 3.32 4.09 8.39 1.47 5.08 1.47 12.01Zm-9.3 0q0-5.73-.84-9.49t-2.25-5.99q-1.4-2.22-3.23-3.12-1.82-.89-3.79-.89-1.94 0-3.75.89-1.8.9-3.19 3.12-1.39 2.23-2.21 5.99-.82 3.76-.82 9.49t.82 9.49q.82 3.76 2.21 5.99 1.39 2.22 3.19 3.12 1.81.89 3.75.89 1.97 0 3.79-.89 1.83-.9 3.23-3.12 1.41-2.23 2.25-5.99.84-3.76.84-9.49Z"/><script xmlns="" id="bw-fido2-page-script"/></svg>