<?xml version="1.0" encoding="iso-8859-1"?>
<!-- Uploaded to: SVG Repo, www.svgrepo.com, Generator: SVG Repo Mixer Tools -->
<svg height="800px" width="800px" version="1.1" id="Layer_1" xmlns="http://www.w3.org/2000/svg" xmlns:xlink="http://www.w3.org/1999/xlink" 
	 viewBox="0 0 512 512" xml:space="preserve">
<g>
	<path style="fill:#877364;" d="M392,8.133c-36,0-64,28.667-104,27.398l-24,124.601l52.558,68.729L331,311l37-14.867
		c5.424-3.107,37.264-19.299,56-48c30.943-47.402,80-36,80-88C504,145.466,428,8.133,392,8.133z"/>
	<path style="fill:#877364;" d="M224,35.531c-40,1.268-68-27.398-104-27.398S8,145.466,8,160.132c0,52,47.008,42,80,88
		c21.462,29.924,51.492,46.672,56,48L177,306c6-3.667,8.667-11.667,13-27l6.915-52.063L248,160.132L224,35.531z"/>
</g>
<g>
	<path style="fill:#FFEBD2;" d="M184.363,357.491c1.597-13.184,7.981-37.817,31.637-69.359l-24-24
		c-5.752,12.654-20.776,67.648-13.365,93.927C179.498,361.121,183.98,360.648,184.363,357.491z"/>
	<path style="fill:#FFEBD2;" d="M320.623,264.132l-24,24c23.644,31.525,30.034,56.149,31.635,69.338
		c0.384,3.162,4.873,3.635,5.736,0.569C341.391,331.753,326.373,276.783,320.623,264.132z"/>
</g>
<path style="fill:#9F8976;" d="M368,120.132c0-16-15-88-112-88s-112,72-112,88s40,16,48,36c0,0,0,46.902,0,55.822
	c0,8.92-8,52.178-8,52.178l32.647,32.647c4.395,61.199,7.881,163.356,23.353,191.353c10.5,19,37.62,25.616,72-8
	c14.049-13.736,22.355-29.34,27.578-39.588c2.388-4.686,0.48-10.383-4.224-12.735l0,0c-4.185-2.092-9.244-0.848-11.945,2.973
	c-9.412,13.315-30.429,41.319-35.409,33.351c-4.317-6.907,4.778-132.997,7.345-167.345L328,264.132c0,0-8-43.258-8-52.178
	c0-8.92,0-55.822,0-55.822C328,136.132,368,136.132,368,120.132z"/>
<path d="M176,136.132c-8.822,0-16,7.178-16,16s7.178,16,16,16s16-7.178,16-16S184.822,136.132,176,136.132z"/>
<path d="M336,136.132c-8.822,0-16,7.178-16,16s7.178,16,16,16s16-7.178,16-16S344.822,136.132,336,136.132z"/>
<path d="M468.208,74.273C436.242,25.077,410.602,0.132,392,0.132c-18.835,0-35.414,7.058-51.445,13.883
	c-16.867,7.181-32.82,13.963-51.652,13.525c-10.428-2.241-21.432-3.408-32.903-3.408c-11.461,0-22.471,1.163-32.906,3.408
	c-18.823,0.436-34.782-6.344-51.649-13.525C155.414,7.19,138.835,0.132,120,0.132c-18.602,0-44.242,24.945-76.208,74.141
	C25.433,102.529,0,148.085,0,160.132c0,35.876,19.708,47.62,40.572,60.054c13.086,7.798,27.918,16.637,41.222,32.994
	c39.35,48.381,67.275,57.776,89.403,58.839c-0.093,0.573-0.185,1.146-0.273,1.721c-4.673,30.249-2.177,50.452,7.42,60.049
	c1.577,1.577,3.69,2.422,5.829,2.421c0.949,0,1.903-0.166,2.818-0.508c5.071-1.897,5.399-6.633,5.639-10.09
	c0.508-7.318,1.863-26.811,17.047-53.405c0.411,6.342,0.822,12.949,1.244,19.736c3.938,63.424,8.401,135.311,22.078,160.059
	c5.965,10.794,15.771,17.697,27.611,19.437c1.824,0.268,3.815,0.429,5.968,0.429c12.278,0,29.785-5.256,51.016-26.015
	c15.804-15.453,24.687-32.952,29.993-43.408c1.308-2.577,2.438-4.803,3.274-6.196c1.485-2.475,1.707-5.436,0.607-8.122
	c-0.917-2.242-2.826-6.907-21.459-11.738c-3.299-0.855-6.777,0.473-8.667,3.31c-9.194,13.807-19.793,27.172-26.508,33.79
	c-0.389-21.966,3.083-82.644,7.461-142.398c15.787,27.162,17.185,47.102,17.699,54.521c0.24,3.458,0.568,8.193,5.639,10.09
	c0.915,0.342,1.869,0.509,2.818,0.508c2.14,0,4.253-0.845,5.83-2.421c9.597-9.597,12.094-29.801,7.42-60.049
	c-0.09-0.585-0.184-1.168-0.278-1.751c22.03-1.209,49.801-10.877,88.785-58.809c13.303-16.357,28.135-25.196,41.222-32.994
	c20.862-12.434,40.57-24.177,40.57-60.054C512,148.085,486.567,102.529,468.208,74.273z M185.482,325.623
	c0.318-2.918,0.73-6.059,1.253-9.439c2.242-14.514,5.68-28.057,8.556-37.446l10.226,10.226
	C196.021,302.503,189.705,314.883,185.482,325.623z M307.106,288.963l10.226-10.226c2.876,9.389,6.313,22.931,8.556,37.446
	c0.522,3.38,0.935,6.521,1.252,9.439C322.917,314.882,316.602,302.503,307.106,288.963z M463.237,206.442
	c-13.522,8.058-30.352,18.087-45.444,36.643c-36.464,44.833-60.641,52.463-79.419,53.013c-0.798-3.62-1.637-7.107-2.487-10.406
	c0.127-0.132,0.258-0.259,0.378-0.401C365.709,250.353,384,199.33,384,152.132c0-26.113-5.525-49.185-16.405-68.601
	c-1.134-3.197-0.802-7.105,0.958-10.804c2.052-4.313,5.736-7.665,9.857-8.966c4.213-1.33,6.55-5.824,5.219-10.038
	c-1.33-4.213-5.824-6.552-10.038-5.219c-8.401,2.653-15.504,8.977-19.487,17.351c-3.725,7.832-4.188,16.551-1.27,23.924
	c0.028,0.071,0.069,0.133,0.099,0.203c0.078,0.181,0.169,0.357,0.261,0.535c0.079,0.151,0.149,0.309,0.236,0.453
	c9.667,17.075,14.57,37.65,14.57,61.164c0,40.116-14.275,83.169-37.686,114.861c-0.722-2.057-1.393-3.809-1.984-5.201
	c-1.173-6.565-8.33-47.521-8.33-69.66c0-4.418-3.582-8-8-8s-8,3.582-8,8c0,21.311,5.895,57.1,8.017,69.293l-19.532,19.532
	c-2.457,1.206-4.234,3.632-4.461,6.558c-0.033,0.421-3.285,42.557-5.884,85.13c-5.406,88.556-2.92,92.532-0.924,95.727
	c2.016,3.226,5.327,5.107,9.083,5.161c5.274,0.097,12.429-2.742,28.916-23.7c4.86-6.179,9.25-12.301,12.097-16.381
	c0.862,0.285,1.692,0.575,2.46,0.858c-0.148,0.291-0.299,0.589-0.453,0.893c-4.86,9.576-12.995,25.603-26.912,39.209
	c-15.816,15.464-31.252,22.99-43.473,21.196c-8.692-1.277-13.462-6.875-15.933-11.346c-11.935-21.596-16.661-97.725-20.112-153.312
	c-0.984-15.841-1.913-30.804-2.915-43.451c-0.001-0.021-0.006-0.042-0.008-0.063c-0.008-0.088-0.021-0.176-0.031-0.264
	c-0.013-0.108-0.028-0.216-0.045-0.323c-0.011-0.067-0.019-0.136-0.031-0.202c-0.015-0.081-0.037-0.16-0.054-0.241
	c-0.023-0.104-0.048-0.207-0.075-0.311c-0.019-0.072-0.033-0.147-0.054-0.219c-0.021-0.073-0.05-0.144-0.074-0.216
	c-0.032-0.101-0.067-0.201-0.104-0.301c-0.028-0.075-0.051-0.153-0.081-0.227c-0.026-0.064-0.059-0.125-0.086-0.189
	c-0.044-0.102-0.09-0.202-0.139-0.302c-0.035-0.073-0.066-0.149-0.104-0.221c-0.028-0.053-0.062-0.104-0.091-0.157
	c-0.001-0.002-0.002-0.004-0.003-0.006c-0.057-0.103-0.116-0.204-0.177-0.304c-0.043-0.07-0.083-0.143-0.128-0.212
	c-0.028-0.043-0.062-0.083-0.091-0.126c-0.004-0.005-0.008-0.01-0.011-0.015c-0.067-0.098-0.137-0.195-0.209-0.29
	c-0.053-0.07-0.104-0.142-0.159-0.21c-0.034-0.042-0.072-0.081-0.107-0.122c0-0.001-0.001-0.001-0.002-0.002
	c-0.074-0.087-0.149-0.173-0.227-0.258c-0.066-0.072-0.132-0.145-0.2-0.214c-0.01-0.01-0.018-0.02-0.027-0.03l-21.095-21.095
	c1.959-12.128,7.438-47.95,7.438-69.248c0-4.418-3.582-8-8-8s-8,3.582-8,8c0,22.119-6.614,62.986-7.729,69.711
	c-0.641,1.513-1.372,3.44-2.163,5.722C158.447,235.82,144,192.489,144,152.132c0-23.516,4.905-44.093,14.574-61.168
	c0.081-0.133,0.145-0.279,0.218-0.418c0.098-0.186,0.192-0.373,0.274-0.563c0.03-0.07,0.071-0.132,0.1-0.204
	c2.918-7.373,2.456-16.092-1.27-23.924c-3.983-8.374-11.086-14.698-19.487-17.351c-4.215-1.332-8.708,1.006-10.038,5.219
	c-1.331,4.213,1.006,8.708,5.219,10.038c4.121,1.301,7.805,4.653,9.857,8.966c1.759,3.699,2.092,7.606,0.958,10.803
	C133.525,102.948,128,126.02,128,152.132c0,47.191,18.287,98.21,47.725,133.147c0.275,0.326,0.577,0.615,0.889,0.886
	c-0.81,3.163-1.608,6.496-2.369,9.948c-18.865-0.401-43.173-7.703-80.038-53.029c-15.092-18.555-31.921-28.584-45.444-36.643
	C28.373,194.291,16.05,186.946,16,160.292c0.806-6.18,17.696-41.354,42.136-78.724C89.723,33.27,111.203,16.132,120,16.132
	c15.571,0,29.953,6.123,45.178,12.604c8.422,3.585,16.986,7.217,26.044,9.995c-6.225,3.178-12.096,6.859-17.563,11.031
	c-3.512,2.68-4.187,7.7-1.507,11.213c2.68,3.513,7.7,4.189,11.213,1.507c11.928-9.101,26.165-15.529,42.051-19.087
	c0.208-0.038,0.414-0.08,0.616-0.132c9.457-2.069,19.489-3.131,29.968-3.131c10.51,0,20.556,1.073,30.024,3.147
	c0.184,0.047,0.372,0.083,0.561,0.116c16.485,3.69,31.181,10.466,43.384,20.124c1.47,1.163,3.221,1.728,4.959,1.728
	c2.361,0,4.699-1.041,6.278-3.036c2.742-3.465,2.156-8.496-1.308-11.238c-5.913-4.68-12.325-8.752-19.148-12.237
	c9.068-2.778,17.642-6.411,26.072-10c15.226-6.482,29.607-12.604,45.178-12.604c8.797,0,30.277,17.137,61.864,65.436
	c24.44,37.371,41.33,72.544,42.136,78.724C495.95,186.946,483.627,194.291,463.237,206.442z"/>
</svg>