<svg width="221" height="167" viewBox="0 0 221 167" fill="none" xmlns="http://www.w3.org/2000/svg">
<path d="M182.991 103.641C182.991 143.316 149.42 167 108.217 167C67.0143 167 6.52821e-05 115.183 5.83449e-05 75.507C5.14078e-05 35.8312 102.205 24 143.408 24C184.61 24 182.991 63.9647 182.991 103.641Z" fill="url(#paint0_linear_971_2)"/>
<path d="M220.991 79.6406C220.991 119.316 187.42 143 146.217 143C105.014 143 38.0001 91.1828 38.0001 51.507C38.0001 11.8312 140.205 6.27475e-06 181.408 -9.2936e-07C222.61 -8.13347e-06 220.991 39.9647 220.991 79.6406Z" fill="url(#paint1_linear_971_2)"/>
<defs>
<linearGradient id="paint0_linear_971_2" x1="208.821" y1="150.735" x2="59.6128" y2="150.735" gradientUnits="userSpaceOnUse">
<stop stop-color="#D9D9D9"/>
<stop offset="1" stop-color="#55EFBB"/>
</linearGradient>
<linearGradient id="paint1_linear_971_2" x1="246.821" y1="126.735" x2="97.6128" y2="126.735" gradientUnits="userSpaceOnUse">
<stop stop-color="#D9D9D9" stop-opacity="0.53"/>
<stop offset="1" stop-color="#55EFBB"/>
</linearGradient>
</defs>
</svg>
