<svg width="76" height="75" viewBox="0 0 76 75" fill="none" xmlns="http://www.w3.org/2000/svg">
<g clip-path="url(#clip0_590_131)">
<path d="M9.87492 25.7813C9.87458 23.062 10.5502 20.3852 11.841 17.9917C13.1318 15.5982 14.9973 13.5632 17.2697 12.0695C19.5421 10.5759 22.1501 9.67047 24.8593 9.43478C27.5684 9.1991 30.2936 9.64052 32.7898 10.7193C35.286 11.7981 37.4749 13.4805 39.1596 15.6151C40.8443 17.7497 41.972 20.2696 42.4413 22.9482C42.9106 25.6267 42.7067 28.3799 41.8479 30.9601C40.9892 33.5403 39.5026 35.8666 37.5218 37.7298C41.2568 39.5422 44.4997 42.2286 46.9755 45.5612C49.4513 48.8938 51.0869 52.7742 51.7437 56.8735C51.816 57.3296 51.7978 57.7956 51.69 58.2447C51.5823 58.6938 51.3872 59.1172 51.1158 59.4909C50.8444 59.8646 50.502 60.1812 50.1083 60.4225C49.7146 60.6639 49.2772 60.8254 48.821 60.8977C48.3649 60.9701 47.899 60.9518 47.4499 60.8441C47.0008 60.7364 46.5773 60.5412 46.2036 60.2698C45.8299 59.9984 45.5133 59.6561 45.272 59.2624C45.0306 58.8686 44.8691 58.4312 44.7968 57.9751C44.0937 53.5703 41.8433 49.5604 38.4498 46.6655C35.0562 43.7706 30.7417 42.1804 26.2812 42.1804C21.8206 42.1804 17.5061 43.7706 14.1126 46.6655C10.719 49.5604 8.46861 53.5703 7.76554 57.9751C7.6929 58.4312 7.53114 58.8686 7.28947 59.2622C7.04781 59.6558 6.73098 59.998 6.35708 60.2692C5.98318 60.5403 5.55953 60.7352 5.11031 60.8427C4.6611 60.9501 4.19512 60.968 3.73898 60.8954C3.28284 60.8227 2.84548 60.661 2.45186 60.4193C2.05824 60.1776 1.71607 59.8608 1.4449 59.4869C1.17372 59.113 0.978844 58.6894 0.871396 58.2402C0.763947 57.7909 0.74603 57.325 0.818668 56.8688C1.47649 52.7711 3.11261 48.8924 5.58835 45.5615C8.06408 42.2306 11.3064 39.5457 15.0405 37.7344C13.4078 36.2013 12.1069 34.3495 11.2184 32.2935C10.3299 30.2375 9.87261 28.0211 9.87492 25.7813ZM52.0624 18.7501C54.7859 18.752 57.4503 19.5444 59.7322 21.0312C62.014 22.518 63.8152 24.6353 64.9171 27.1259C66.0189 29.6166 66.3741 32.3735 65.9395 35.0621C65.5049 37.7507 64.2992 40.2553 62.4687 42.2719C65.3219 43.6884 67.857 45.6706 69.92 48.0978C71.983 50.525 73.5306 53.3465 74.4687 56.3907C74.6545 56.9816 74.6806 57.6112 74.5444 58.2156C74.4083 58.8199 74.1146 59.3774 73.6933 59.8316C73.272 60.2857 72.7381 60.6203 72.1456 60.8014C71.5532 60.9825 70.9234 61.0036 70.3202 60.8626C69.7175 60.7222 69.1624 60.4256 68.7107 60.0027C68.2589 59.5798 67.9265 59.0453 67.7468 58.4532C66.9067 55.7354 65.3757 53.2822 63.3036 51.3333C61.2314 49.3844 58.689 48.0065 55.9249 47.3344C55.1573 47.1491 54.4744 46.7108 53.9863 46.09C53.4982 45.4693 53.2333 44.7022 53.2343 43.9126V42.2626C53.2339 41.608 53.4162 40.9664 53.7607 40.4099C54.1052 39.8534 54.5983 39.4041 55.1843 39.1126C56.6054 38.4083 57.7466 37.2442 58.4226 35.8095C59.0986 34.3748 59.2697 32.7536 58.9081 31.2094C58.5465 29.6651 57.6734 28.2885 56.4306 27.3031C55.1878 26.3177 53.6484 25.7814 52.0624 25.7813C51.13 25.7813 50.2358 25.4109 49.5765 24.7516C48.9172 24.0923 48.5468 23.1981 48.5468 22.2657C48.5468 21.3333 48.9172 20.4391 49.5765 19.7798C50.2358 19.1205 51.13 18.7501 52.0624 18.7501ZM26.2812 16.4063C25.0327 16.3781 23.7912 16.5996 22.6295 17.0577C21.4678 17.5159 20.4094 18.2016 19.5163 19.0745C18.6232 19.9473 17.9136 20.9898 17.4289 22.1407C16.9443 23.2917 16.6945 24.5278 16.6942 25.7766C16.6939 27.0254 16.9431 28.2616 17.4271 29.4128C17.9112 30.5639 18.6203 31.6068 19.5129 32.4801C20.4056 33.3534 21.4637 34.0396 22.6251 34.4984C23.7866 34.9571 25.028 35.1792 26.2765 35.1516C28.726 35.0975 31.057 34.0865 32.7704 32.3352C34.4839 30.5839 35.4436 28.2314 35.4442 25.7813C35.4448 23.3312 34.4863 20.9782 32.7737 19.226C31.0611 17.4738 28.7306 16.4617 26.2812 16.4063Z" fill="url(#paint0_linear_590_131)"/>
</g>
<defs>
<linearGradient id="paint0_linear_590_131" x1="37.7026" y1="9.37305" x2="37.7026" y2="60.9547" gradientUnits="userSpaceOnUse">
<stop stop-color="#F7BF68"/>
<stop offset="0.5" stop-color="#DF6759"/>
<stop offset="1" stop-color="#722479"/>
</linearGradient>
<clipPath id="clip0_590_131">
<rect width="75" height="75" fill="white" transform="translate(0.5)"/>
</clipPath>
</defs>
</svg>
