<svg width="766" height="1026" viewBox="0 0 766 1026" fill="none" xmlns="http://www.w3.org/2000/svg">
<path d="M446.083 427.022C472.692 441.145 508.736 436.394 522.52 413.848C535.986 391.009 526.911 358.798 495.875 348.256C421.777 323.37 402.688 403.998 446.083 427.022ZM479.746 356.453C483.85 358.151 483.85 363.481 477.114 362.609C457.79 359.685 446.37 370.52 443.149 383.396C442.564 385.448 438.757 385.741 438.46 383.109C437.295 364.071 459.088 347.943 479.746 356.453Z" fill="url(#paint0_linear_590_66)"/>
<path d="M553.833 410.913C552.747 409.716 551.288 408.92 549.693 408.655C548.099 408.39 546.461 408.67 545.045 409.451C542.993 410.913 545.045 414.135 547.097 412.668C549.442 411.206 553.253 413.842 551.489 422.04C547.975 439.898 527.48 451.025 531.872 430.248C533.133 424.823 535.869 419.853 539.777 415.884C541.239 414.13 538.9 410.908 537.14 412.662C526.88 420.87 522.207 440.482 531.579 445.459C544.461 452.497 563.647 421.024 553.833 410.913Z" fill="url(#paint1_linear_590_66)"/>
<path d="M557.64 405.942C564.495 395.116 570.664 383.869 576.108 372.269C576.234 371.821 576.201 371.343 576.013 370.917C575.825 370.492 575.494 370.145 575.078 369.936C574.662 369.728 574.187 369.671 573.733 369.776C573.28 369.88 572.877 370.14 572.594 370.509L554.439 403.598C553.249 405.942 556.122 408.25 557.64 405.942Z" fill="url(#paint2_linear_590_66)"/>
<path d="M524.259 461.279C528.273 458.99 531.684 455.779 534.211 451.912C535.089 450.152 532.749 448.685 531.282 449.567C528.73 452.31 525.885 454.765 522.797 456.888C520.671 458.405 518.081 459.131 515.477 458.94C498.715 458.089 482.202 454.53 466.577 448.403C451.059 442.544 432.319 435.814 430.857 417.366C430.565 415.314 427.928 415.022 427.636 417.366C425.291 435.834 447.832 446.058 461.601 451.619C478.224 458.368 495.817 462.422 513.717 463.629C515.542 463.957 517.415 463.919 519.225 463.516C521.035 463.112 522.746 462.352 524.259 461.279Z" fill="url(#paint3_linear_590_66)"/>
<path d="M472.431 340.632C491.761 334.194 509.91 333.901 527.481 345.906C545.949 358.218 549.442 372.258 552.956 391.876C553.249 393.63 556.763 393.63 556.763 391.876C556.724 382.074 554.273 372.433 549.626 363.803C544.979 355.173 538.279 347.819 530.118 342.392C513.702 330.972 488.831 327.751 470.969 337.41C468.624 338.303 470.384 341.525 472.431 340.632Z" fill="url(#paint4_linear_590_66)"/>
<path d="M396.594 449.275C398.646 447.495 396.009 444.884 393.962 446.346C384.885 453.004 377.799 462.015 373.468 472.406C369.656 481.189 366.727 487.632 376.397 493.491C386.057 499.647 407.141 506.664 418.556 511.348C418.812 511.482 419.094 511.559 419.382 511.577C419.671 511.594 419.96 511.55 420.23 511.447C420.5 511.345 420.746 511.187 420.951 510.983C421.156 510.779 421.315 510.534 421.419 510.264C421.523 509.994 421.568 509.705 421.552 509.417C421.537 509.128 421.46 508.846 421.328 508.589C421.196 508.332 421.01 508.106 420.785 507.925C420.559 507.745 420.297 507.614 420.018 507.542C408.306 501.688 388.109 494.66 379.906 490.269C372.001 486.165 374.638 481.481 377.562 474.458C381.784 464.653 388.314 456.014 396.594 449.275Z" fill="url(#paint5_linear_590_66)"/>
<path d="M437.003 455.426C426.977 450.957 416.595 447.333 405.966 444.592C405.52 444.503 405.057 444.58 404.664 444.808C404.271 445.036 403.974 445.4 403.83 445.831C403.686 446.262 403.704 446.731 403.881 447.15C404.058 447.569 404.382 447.909 404.791 448.106C419.73 453.959 428.22 456.006 444.031 463.327C454.291 468.015 458.672 469.483 452.239 482.656C447.222 493.726 439.081 503.089 428.815 509.594C427.061 510.764 429.108 513.698 430.867 512.816C439.362 509.009 452.244 494.953 457.22 482.944C464.818 464.501 451.341 461.305 437.003 455.426Z" fill="url(#paint6_linear_590_66)"/>
<path d="M364.388 542.969C372.873 547.371 376.099 547.073 380.804 542.092C383.417 539.313 385.861 536.381 388.124 533.31C392.228 528.041 391.341 524.819 386.072 521.598C381.123 518.79 375.929 516.437 370.554 514.57C367.625 513.692 366.162 517.207 369.092 518.381C370.554 518.961 386.072 525.112 386.364 527.451C386.657 529.211 381.968 533.894 380.804 535.356C374.355 542.677 374.063 542.385 364.695 537.993C350.932 530.965 352.984 533.31 364.988 518.961C365.865 518.084 365.28 510.471 355.03 523.352C346.817 533.31 349.157 535.059 364.388 542.969Z" fill="url(#paint7_linear_590_66)"/>
<path d="M283.575 347.671C282.629 347.115 281.821 346.353 281.212 345.44C280.604 344.528 280.21 343.489 280.061 342.402C279.476 337.718 275.085 339.473 276.254 344.162C276.581 345.653 277.293 347.033 278.321 348.163C279.348 349.293 280.654 350.133 282.108 350.6C284.452 351.482 285.596 348.886 283.575 347.671Z" fill="url(#paint8_linear_590_66)"/>
<path d="M347.392 483.246C328.319 480.276 319.577 470.073 311.964 453.087C305.006 435.448 300.571 416.915 298.79 398.037C307.262 393.612 316.338 390.456 325.728 388.67C328.067 388.377 327.482 383.986 325.143 384.273C315.334 385.677 305.888 388.961 297.323 393.943C294.399 395.995 294.399 396.575 294.399 400.099C296.081 418.899 300.519 437.349 307.573 454.857C314.308 469.785 323.989 484.719 347.689 487.648C352.091 487.925 351.496 483.877 347.392 483.246Z" fill="url(#paint9_linear_590_66)"/>
<path d="M299.385 385.443C285.196 375.526 286.386 346.398 292.65 357.043C294.675 361.237 297.342 365.09 300.555 368.462C302.31 369.925 304.069 367.873 302.899 366.118C300.032 362.028 297.487 357.721 295.287 353.237C290.598 347.378 283.867 351.769 283.867 359.393C284.16 370.227 287.089 383.406 297.626 388.675C298.047 388.845 298.517 388.855 298.945 388.702C299.373 388.548 299.73 388.243 299.947 387.844C300.165 387.444 300.228 386.979 300.124 386.536C300.02 386.093 299.758 385.704 299.385 385.443Z" fill="url(#paint10_linear_590_66)"/>
<path d="M288.843 343.571C287.048 342.155 280.635 333.029 284.452 331.562C284.87 331.399 285.22 331.099 285.444 330.711C285.668 330.323 285.753 329.87 285.684 329.427C285.616 328.984 285.399 328.577 285.069 328.274C284.738 327.971 284.315 327.79 283.867 327.76C280.061 327.171 275.372 333.029 282.99 342.402C289.136 350.014 291.142 345.387 288.843 343.571Z" fill="url(#paint11_linear_590_66)"/>
<path d="M299.093 354.996C299.385 357.34 302.022 356.756 302.022 354.411C302.022 346.203 291.48 338.308 290.895 333.619C290.603 332.157 291.48 332.157 292.947 332.157C296.518 332.961 299.777 334.793 302.32 337.426C314.324 347.686 318.13 364.076 320.177 379.302C320.47 381.934 323.984 381.641 323.691 378.717C322.229 362.024 317.838 344.751 304.366 333.332C292.362 323.375 282.405 327.474 288.556 338.601C291.772 344.162 297.918 348.553 299.093 354.996Z" fill="url(#paint12_linear_590_66)"/>
<path d="M349.162 430.243C350.08 432.865 351.794 433.173 355.318 432.583C381.958 426.427 394.819 424.682 422.952 428.479C423.524 428.536 424.097 428.369 424.549 428.012C425 427.655 425.295 427.137 425.371 426.566C425.447 425.996 425.298 425.418 424.956 424.955C424.613 424.493 424.104 424.181 423.537 424.087C400.194 419.638 376.1 421.25 353.558 428.771C348.469 415.23 342.502 402.035 335.696 389.27C334.526 387.516 331.304 388.685 332.182 390.732C338.035 404.188 344.396 416.695 349.162 430.243Z" fill="url(#paint13_linear_590_66)"/>
<path d="M446.668 652.48C442.856 653.947 439.64 655.409 439.05 654.24C436.998 649.848 451.639 636.962 460.427 633.448C462.771 632.57 462.186 629.641 459.549 630.226C445.185 634.038 428.215 653.07 436.418 658.041C438.455 658.632 440.611 658.673 442.669 658.16C444.726 657.646 446.611 656.596 448.13 655.117C449.597 653.947 448.422 651.603 446.668 652.48Z" fill="url(#paint14_linear_590_66)"/>
<path d="M452.229 680.299C449.884 680.299 448.422 680.002 448.125 677.662C447.54 670.634 452.229 660.682 455.445 654.824C456.03 653.649 455.153 649.555 451.931 654.239C448.125 659.507 443.149 672.979 444.318 679.129C444.367 680.014 444.623 680.874 445.065 681.641C445.508 682.408 446.124 683.06 446.865 683.544C447.607 684.029 448.451 684.332 449.331 684.429C450.211 684.527 451.102 684.416 451.931 684.106C454.866 683.228 454.276 680.299 452.229 680.299Z" fill="url(#paint15_linear_590_66)"/>
<path d="M463.648 685.881C463.137 686.374 462.455 686.65 461.745 686.65C461.035 686.65 460.353 686.374 459.842 685.881C457.79 681.777 462.186 663.919 463.946 659.825C464.823 657.481 461.894 655.721 460.724 658.066C457.8 663.919 452.234 683.536 456.918 689.102C459.847 692.616 465.126 689.979 466.583 687.343C467.747 685.275 465.11 684.393 463.648 685.881Z" fill="url(#paint16_linear_590_66)"/>
<path d="M475.945 682.931C468.896 686.491 471.815 669.311 473.6 661.559C474.185 658.922 471.548 656.286 469.794 660.677C467.162 667.413 464.233 684.101 471.261 686.742C472.509 687.334 473.937 687.42 475.246 686.983C476.556 686.547 477.646 685.62 478.289 684.398C478.874 683.228 477.412 682.351 475.945 682.931Z" fill="url(#paint17_linear_590_66)"/>
<path d="M273.325 730.368C275.633 705.477 265.348 644.415 303.484 595.382C311.353 585.371 319.758 575.793 328.662 566.69C330.422 564.931 327.785 561.709 325.733 563.469C317.246 571.083 309.321 579.302 302.022 588.062C277.716 617.636 270.103 648.083 268.349 686.445C267.521 700.976 267.717 715.547 268.934 730.05C269.518 732.415 273.079 733.005 273.325 730.368Z" fill="url(#paint18_linear_590_66)"/>
<path d="M468.039 628.179C464.233 628.179 465.115 631.4 467.162 631.693C478.289 633.745 485.312 634.33 494.977 643.697C489.788 654.295 486.895 665.869 486.487 677.663C485.902 683.516 479.459 680.587 482.68 664.484C483.265 661.852 478.289 658.63 477.992 672.979C477.704 688.205 488.831 686.743 490.586 680.299C492.053 674.733 489.124 670.039 498.199 646.626C499.666 642.82 501.128 642.235 497.906 639.306C489.45 632.405 478.95 628.493 468.039 628.179Z" fill="url(#paint19_linear_590_66)"/>
<path d="M467.747 622.326C481.9 593.459 487.897 546.279 480.628 515.155C480.55 514.611 480.259 514.12 479.819 513.79C479.378 513.461 478.825 513.32 478.281 513.398C477.737 513.476 477.246 513.767 476.917 514.208C476.587 514.648 476.446 515.201 476.524 515.745C480.905 560.186 478.443 579.639 464.212 620.859C464.018 621.327 464.017 621.854 464.211 622.323C464.405 622.792 464.777 623.165 465.246 623.36C465.715 623.554 466.241 623.555 466.71 623.361C467.179 623.167 467.552 622.795 467.747 622.326Z" fill="url(#paint20_linear_590_66)"/>
<path d="M521.622 469.184C538.24 493.289 544.95 522.862 540.362 551.777C535.971 583.984 520.745 611.511 502.59 637.566C500.538 640.203 504.934 643.132 506.694 640.496C527.778 611.798 544.466 576.961 546.518 541.235C547.98 516.052 541.542 486.19 524.264 467.158C522.505 464.778 520.196 467.112 521.622 469.184Z" fill="url(#paint21_linear_590_66)"/>
<path d="M514.009 470.646C516.061 469.82 514.891 467.137 512.839 467.425C498.198 469.769 479.458 489.099 478.581 506.079C478.289 508.419 481.505 508.419 481.803 506.372C485.312 488.514 501.538 475.643 514.009 470.646Z" fill="url(#paint22_linear_590_66)"/>
<path d="M411.82 440.785C414.688 438.529 417.839 436.658 421.192 435.219C421.559 435.054 421.869 434.786 422.088 434.449C422.306 434.111 422.422 433.718 422.422 433.316C422.422 432.914 422.306 432.52 422.088 432.183C421.869 431.845 421.559 431.578 421.192 431.413C417.678 430.535 411.235 436.096 409.188 437.856C407.413 439.323 409.773 441.955 411.82 440.785Z" fill="url(#paint23_linear_590_66)"/>
<path d="M561.154 413.257C558.809 412.672 557.64 415.894 559.687 416.771C566.422 419.993 574.328 422.63 578.719 429.365C583.403 436.978 579.304 444.006 574.913 450.444C565.545 464.208 555.295 477.382 544.758 490.269C542.999 492.608 546.513 495.245 548.56 492.9C561.142 478.407 572.687 463.046 583.11 446.93C589.774 435.142 585.352 420.429 561.154 413.257Z" fill="url(#paint24_linear_590_66)"/>
<path d="M586.63 446.346C590.354 452.651 592.371 459.817 592.483 467.138C592.185 492.029 564.371 515.74 551.782 531.848C550.027 534.187 552.956 536.239 555.003 533.9C569.644 517.484 597.459 494.081 597.459 465.969C597.676 461.965 597.088 457.959 595.73 454.187C594.372 450.415 592.272 446.954 589.554 444.007C588.092 442.832 585.481 444.284 586.63 446.346Z" fill="url(#paint25_linear_590_66)"/>
<path d="M473.59 567.568C474.785 565.239 471.538 564.054 469.783 566.399C459.663 582.427 446.539 596.347 431.134 607.392C405.427 625.175 376.924 638.527 346.807 646.893C341.539 648.355 340.651 648.945 339.784 653.337C336.27 670.025 328.072 719.801 324.261 737.664C308.4 738.053 292.58 735.878 277.414 731.22C275.069 730.636 274.484 734.144 276.536 735.027C289.423 740.885 308.158 742.64 322.799 742.64C327.488 742.64 328.36 740.885 329.237 737.074C332.166 723.607 343.878 664.741 345.653 653.044C366.882 646.797 387.472 638.553 407.146 628.42C431.442 615.6 458.672 596.707 473.59 567.568Z" fill="url(#paint26_linear_590_66)"/>
<path d="M432.037 657.461C420.705 651.075 409.755 644.035 399.241 636.377C397.481 635.202 394.849 636.967 396.604 639.009C406.516 648.599 418.137 656.247 430.867 661.555C433.489 662.437 434.653 658.934 432.037 657.461Z" fill="url(#paint27_linear_590_66)"/>
<path d="M466.285 591.283C451.352 609.146 437.885 626.419 422.362 644.287C420.9 646.041 423.532 648.39 424.999 646.626C441.145 630.16 455.839 612.33 468.917 593.335C470.091 590.976 467.747 589.236 466.285 591.283Z" fill="url(#paint28_linear_590_66)"/>
<path d="M441.686 587.185C434.386 566.285 414.456 541.8 393.977 532.725C391.925 531.848 390.756 534.777 392.51 535.947C411.84 549.12 427.066 562.879 438.167 589.232C439.927 593.336 442.907 590.679 441.686 587.185Z" fill="url(#paint29_linear_590_66)"/>
<path d="M355.313 514.862C354.405 512.533 345.648 509.886 345.355 513.692C345.355 516.622 348.577 515.155 351.799 516.914C354.43 518.669 355.882 516.334 355.313 514.862Z" fill="url(#paint30_linear_590_66)"/>
<path d="M382.543 547.95C417.386 571.082 422.044 587.77 425.876 594.213C428.513 598.604 432.032 596.557 429.98 591.576C419.941 571.637 403.997 555.278 384.323 544.729C382.276 543.852 380.491 546.781 382.543 547.95Z" fill="url(#paint31_linear_590_66)"/>
<path d="M341.549 521.305C338.035 520.72 336.281 523.649 339.205 524.527C341.569 525.063 343.84 525.952 345.94 527.164C350.044 529.503 350.044 524.814 347.992 523.649C345.983 522.529 343.808 521.738 341.549 521.305Z" fill="url(#paint32_linear_590_66)"/>
<path d="M289.721 595.973C283.654 596.058 277.634 597.045 271.858 598.902C268.902 599.476 266.222 601.021 264.245 603.293C247.272 621.49 227.381 636.728 205.394 648.381C190.793 641.668 177.96 631.642 167.914 619.099C166.452 617.344 163.81 619.689 164.985 621.443C170.843 630.81 188.998 647.503 201.587 651.895C202.753 652.442 204.041 652.676 205.325 652.573C206.609 652.471 207.844 652.035 208.908 651.31C229.428 641.65 255.755 619.689 270.396 603.601C277.132 602.134 283.867 601.257 290.306 599.21C292.358 598.604 291.475 596.552 289.721 595.973Z" fill="url(#paint33_linear_590_66)"/>
<path d="M169.966 613.246C195.503 587.539 210.662 559.381 244.628 542.677C270.396 530.094 298.8 527.744 328.96 525.405C332.766 525.112 333.936 523.645 336.275 520.131C344.659 507.583 354.166 495.822 364.68 484.996C367.024 482.656 364.387 481.189 362.335 482.364C356.482 485.873 334.813 512.816 331.299 520.429C297.041 522.481 271.863 525.112 249.316 534.793C213.591 550.311 191.927 581.937 167.621 610.635C166.159 612.661 168.211 615.01 169.966 613.246Z" fill="url(#paint34_linear_590_66)"/>
<path d="M201.587 655.702C198.658 655.117 191.635 668.291 181.093 672.979C163.815 663.32 132.778 646.919 111.699 617.935C129.264 615.883 140.684 615.293 158.839 621.443C161.768 622.613 162.943 617.637 160.009 616.467C143.922 610.822 126.574 609.809 109.94 613.543C105.548 614.708 105.836 616.467 107.888 619.981C121.939 642.82 150.928 663.899 175.229 675.611C176.832 676.821 178.785 677.475 180.793 677.475C182.801 677.475 184.754 676.821 186.356 675.611C194.267 670.927 205.978 656.579 201.587 655.702Z" fill="url(#paint35_linear_590_66)"/>
<path d="M323.102 746.472C323.467 754.817 322.275 763.156 319.587 771.065C289.203 772.898 258.756 768.714 229.992 758.753C239.279 749.155 250.873 742.098 263.665 738.259C264.265 738.083 264.773 737.682 265.083 737.14C265.393 736.599 265.482 735.958 265.33 735.352C265.178 734.746 264.798 734.223 264.268 733.891C263.739 733.56 263.102 733.447 262.491 733.575C251.071 736.504 233.214 746.456 226.186 755.824C223.549 759.63 225.303 761.39 228.817 762.857C255.17 773.117 292.942 776.908 321.055 775.446C322.517 775.446 323.394 773.979 323.686 772.809C326.849 764.204 327.855 754.955 326.616 745.871C326.483 745.459 326.206 745.108 325.835 744.883C325.465 744.659 325.026 744.575 324.598 744.648C324.171 744.721 323.785 744.946 323.51 745.281C323.235 745.616 323.09 746.039 323.102 746.472Z" fill="url(#paint36_linear_590_66)"/>
<path d="M317.541 779.247C315.838 782.499 309.63 787.737 304.659 781.586C302.31 778.662 300.848 778.369 298.211 781.293C297.434 782.453 296.367 783.389 295.116 784.007C293.864 784.625 292.472 784.903 291.079 784.814C289.686 784.726 288.341 784.273 287.178 783.501C286.015 782.729 285.075 781.665 284.452 780.416C282.108 776.312 280.938 775.148 277.424 779.247C276.585 780.309 275.489 781.141 274.24 781.665C272.991 782.188 271.629 782.386 270.283 782.24C268.936 782.093 267.649 781.607 266.542 780.827C265.435 780.047 264.544 778.998 263.953 777.779C261.901 774.265 261.614 773.096 257.797 776.61C252.231 781.586 245.793 781.293 243.433 773.681C241.971 769.289 240.216 769.577 237.574 772.219C236.633 773.064 235.471 773.625 234.223 773.835C232.975 774.046 231.694 773.896 230.527 773.405C229.361 772.914 228.359 772.101 227.637 771.062C226.916 770.022 226.505 768.799 226.452 767.535C226.452 765.19 221.471 764.313 223.231 771.049C223.721 772.673 224.598 774.153 225.787 775.363C226.975 776.573 228.44 777.476 230.055 777.994C231.67 778.512 233.387 778.631 235.058 778.338C236.729 778.046 238.304 777.353 239.647 776.317C240.431 778.277 241.7 780.005 243.334 781.342C244.968 782.678 246.913 783.578 248.99 783.958C251.066 784.339 253.204 784.186 255.206 783.516C257.207 782.845 259.006 781.678 260.434 780.124C261.442 781.867 262.851 783.346 264.544 784.438C266.236 785.53 268.164 786.204 270.168 786.405C272.172 786.605 274.196 786.326 276.071 785.591C277.946 784.856 279.62 783.685 280.954 782.176C282.002 783.966 283.465 785.477 285.22 786.583C286.975 787.688 288.97 788.355 291.038 788.527C293.105 788.699 295.183 788.372 297.097 787.571C299.01 786.771 300.703 785.522 302.033 783.93C309.066 792.713 321.358 785.392 321.065 779.247C320.907 778.913 320.658 778.631 320.346 778.433C320.034 778.236 319.672 778.131 319.303 778.131C318.934 778.131 318.572 778.236 318.26 778.433C317.948 778.631 317.699 778.913 317.541 779.247Z" fill="url(#paint37_linear_590_66)"/>
<path d="M174.357 677.955C172.305 677.955 161.532 685.65 158.547 672.682C157.962 669.173 157.079 668.003 153.273 669.465C147.117 672.102 141.561 669.465 141.561 662.437C141.269 656.281 141.854 657.164 135.708 658.631C128.387 660.39 124.581 654.234 126.043 646.919C126.11 646.397 126.041 645.867 125.841 645.381C125.642 644.894 125.32 644.467 124.906 644.142C124.492 643.818 124.001 643.606 123.481 643.528C122.961 643.45 122.43 643.508 121.939 643.697C115.496 646.627 111.104 641.938 113.449 635.202C114.618 631.986 112.572 629.939 109.345 630.811C105.241 631.693 102.609 628.759 104.364 624.655C106.416 620.264 102.901 620.551 102.024 621.141C100.73 622.31 99.8304 623.853 99.4512 625.556C99.072 627.259 99.2315 629.037 99.9077 630.645C100.584 632.254 101.743 633.612 103.225 634.532C104.707 635.452 106.439 635.889 108.18 635.782C107.757 637.545 107.783 639.387 108.256 641.137C108.729 642.888 109.633 644.493 110.886 645.804C112.138 647.115 113.7 648.091 115.428 648.642C117.155 649.194 118.994 649.303 120.774 648.961C120.445 651.053 120.64 653.195 121.344 655.193C122.047 657.192 123.237 658.984 124.805 660.408C126.373 661.833 128.27 662.845 130.326 663.354C132.383 663.863 134.534 663.853 136.585 663.325C136.724 665.315 137.324 667.245 138.34 668.962C139.355 670.679 140.757 672.135 142.434 673.216C144.111 674.296 146.016 674.97 148 675.185C149.983 675.399 151.989 675.148 153.858 674.452C154.24 676.632 155.173 678.679 156.569 680.398C157.964 682.117 159.775 683.451 161.831 684.273C163.886 685.095 166.118 685.378 168.314 685.096C170.51 684.814 172.597 683.975 174.378 682.66C176.697 680.885 176.697 678.54 174.357 677.955Z" fill="url(#paint38_linear_590_66)"/>
<path d="M587.507 290.871C504.339 269.53 459.842 252.222 438.465 194.832C414.164 128.655 298.503 99.3785 213.299 158.527C86.7881 246.071 42.0083 177.842 -41.7338 176.985C-239.377 175.21 -270.414 354.406 -200.138 447.521C-160.319 500.519 -169.686 548.536 -200.138 604.17C-255.48 705.775 -159.452 783.074 -53.738 760.82C-9.23013 751.453 35.2777 737.099 106.426 835.205C185.777 944.715 365.265 899.33 415.041 810.027C442.276 761.128 487.374 741.798 562.031 733.898C698.797 719.226 740.35 601.826 740.35 494.953C740.052 413.55 682.381 315.208 587.507 290.871ZM345.94 200.686C344.206 202.461 340.374 203.025 339.205 198.336C336.568 187.799 351.87 194.607 345.94 200.686ZM232.921 287.06C233.875 281.509 242.283 283.253 241.129 289.112C239.662 294.088 232.106 291.759 232.921 287.06ZM216.505 474.751C212.401 475.597 213.284 467.718 213.284 465.671C210.359 465.671 202.449 467.138 202.747 463.326C202.747 460.397 210.647 460.695 213.284 460.397C213.284 458.058 212.109 447.521 215.336 447.521C218.85 447.223 218.265 457.473 218.265 460.11C220.019 460.11 226.75 458.935 226.75 462.162C226.75 464.799 220.312 465.091 218.542 465.383C218.573 467.43 219.445 474.145 216.521 474.751H216.505ZM196.303 246.363C196.919 243.147 205.086 246.948 207.138 247.825C206.845 245.188 205.378 236.113 208.892 235.821C212.109 235.821 212.406 243.434 212.699 246.081C214.751 244.614 219.429 239.34 221.481 241.977C223.241 244.614 216.213 249.005 214.166 250.765C216.505 251.642 228.53 255.443 226.17 259.255C224.118 262.477 215.91 257.203 213.576 256.033C213.868 258.373 215.92 270.084 211.822 270.084C208.015 270.084 208.015 258.67 207.718 256.033C205.963 257.5 198.643 264.816 196.596 262.764C193.959 260.132 203.039 254.279 205.086 252.504C203.054 251.339 195.759 249.318 196.319 246.363H196.303ZM164.697 402.705C166.431 398.601 174.957 400.653 172.31 406.512C170.258 411.503 161.732 409.733 164.697 402.705ZM167.329 519.828C168.104 520.605 168.539 521.658 168.539 522.755C168.539 523.852 168.104 524.904 167.329 525.681C162.938 529.488 160.009 524.799 160.009 521.577C160.301 518.376 165.277 517.792 167.329 519.844V519.828ZM153.863 350.307C161.768 350.307 157.084 358.515 151.811 357.915C148.589 357.335 146.542 350.307 153.863 350.307ZM99.69 387.197C101.229 383.432 110.817 389.249 113.161 390.424C113.161 388.079 113.161 375.198 116.963 375.783C120.19 376.368 119.015 386.043 118.722 388.664C120.774 387.197 127.802 380.456 129.849 384.56C131.316 387.49 122.236 393.05 120.189 394.512C122.529 395.975 133.656 401.248 131.024 405.347C128.674 408.861 121.067 402.131 118.712 400.663C118.712 403.885 121.349 417.356 117.25 417.936C112.274 418.818 112.859 403.572 112.859 400.663C110.514 402.715 103.486 410.036 101.147 407.399C98.2177 404.177 108.17 397.139 110.514 395.395C108.18 393.933 98.587 389.88 99.69 387.197ZM-47.0074 222.642C-46.2605 222.511 -45.4918 222.589 -44.7866 222.868C-44.0813 223.147 -43.4672 223.616 -43.0123 224.223C-42.5575 224.829 -42.2797 225.55 -42.2097 226.306C-42.1398 227.061 -42.2805 227.821 -42.6162 228.501C-42.9788 229.148 -43.4841 229.704 -44.0938 230.127C-44.7035 230.55 -45.4015 230.828 -46.1348 230.941C-46.8681 231.054 -47.6175 230.998 -48.3261 230.778C-49.0346 230.557 -49.6837 230.179 -50.224 229.67C-50.6728 229.031 -50.9464 228.285 -51.0177 227.506C-51.0889 226.728 -50.9553 225.945 -50.6301 225.234C-50.3049 224.524 -49.7994 223.911 -49.1639 223.456C-48.5284 223.001 -47.7849 222.721 -47.0074 222.642ZM-119.34 618.811C-123.393 615.528 -118.171 608.264 -113.487 612.076C-108.803 615.887 -115.775 621.689 -119.325 618.811H-119.34ZM-99.4309 440.493C-101.447 435.794 -92.6952 431.413 -91.5256 439.903C-91.5947 440.862 -92.0062 441.764 -92.6851 442.444C-93.364 443.125 -94.2649 443.539 -95.2236 443.61C-96.1822 443.682 -97.1346 443.406 -97.907 442.834C-98.6794 442.262 -99.2203 441.431 -99.4309 440.493ZM-47.0228 560.535C-46.7253 562.874 -45.2632 573.714 -48.7773 573.714C-52.5838 573.714 -52.2914 563.756 -52.5838 561.119C-55.8054 561.412 -78.0542 563.756 -76.0073 559.365C-74.5401 555.851 -56.0978 555.553 -52.8762 555.553C-53.1686 552.922 -55.5079 537.403 -51.7014 537.085C-46.7253 536.793 -47.5974 551.726 -47.3101 554.948C-45.2581 554.656 -37.9427 553.188 -37.6503 556.118C-37.0501 559.37 -44.9554 559.955 -47.0074 560.54L-47.0228 560.535ZM44.9221 679.997C37.894 678.535 40.8181 668.583 46.9742 669.46C53.7201 670.05 51.9656 681.464 44.9375 680.002L44.9221 679.997ZM48.4362 394.512C48.4362 387.782 59.8504 391.004 55.1719 397.149C54.6861 397.819 53.9912 398.309 53.1967 398.541C52.4021 398.773 51.553 398.733 50.7831 398.43C50.0132 398.126 49.3662 397.574 48.9441 396.862C48.522 396.151 48.3487 395.318 48.4516 394.497L48.4362 394.512ZM51.0679 486.745C50.796 481.769 58.6859 477.085 59.8504 486.165C60.1634 489.977 51.3911 492.608 51.0833 486.75L51.0679 486.745ZM63.7031 303.183C53.7635 313.255 42.6551 322.102 30.6146 329.536C18.4718 343.713 3.25017 354.929 -13.8882 362.327C-27.3596 367.893 -44.9298 374.639 -58.396 370.232C-70.1078 374.039 -82.9944 377.553 -93.239 379.892C-113.446 384.581 -124.865 376.091 -109.055 358.52C-102.031 350.741 -93.5819 344.38 -84.164 339.781C-83.5055 339.417 -82.7309 339.324 -82.0052 339.522C-81.2794 339.721 -80.6597 340.195 -80.278 340.843C-79.8963 341.492 -79.7827 342.263 -79.9614 342.994C-80.1401 343.725 -80.597 344.357 -81.2348 344.757C-90.2206 349.751 -98.3302 356.18 -105.243 363.789C-119.299 379.892 -98.5126 374.331 -90.3149 372.284C-81.8196 370.232 -71.8469 367.303 -63.6697 364.671C-53.1275 353.539 -32.6332 345.931 -16.2377 338.611C-2.18152 332.168 14.214 324.247 29.4449 322.795C38.3123 316.774 46.8092 310.225 54.8897 303.183C62.795 296.447 68.6535 284.448 53.1353 287.665C43.0446 289.92 33.227 293.259 23.8532 297.622C21.2164 298.792 18.8771 294.985 21.5088 293.816C32.9925 287.95 45.3553 283.994 58.1114 282.104C74.2195 280.611 73.3731 292.364 63.7031 303.183ZM588.676 504.32C576.96 521.593 555.588 540.63 552.074 545.314C544.169 600.944 513.717 651.602 502.313 647.504C494.7 668.024 498.799 672.128 494.992 683.229C487.969 702.554 429.405 705.801 438.778 670.635C426.769 668.88 399.538 650.72 391.341 641.938C378.061 647.836 364.358 652.73 350.347 656.578C347.71 672.995 336.881 733.016 333.367 742.373C337.471 759.358 330.73 787.758 321.357 793.324C307.891 801.532 217.998 793.616 215.366 771.07C213.607 755.259 233.834 736.519 262.506 728.024C258.992 694.643 261.629 636.377 284.175 605.93C275.967 607.397 276.557 606.807 273.043 607.397C266.02 620.279 222.687 653.952 209.8 658.636C202.777 675.052 183.745 689.087 174.075 690.257C150.651 693.186 91.5077 647.801 93.534 624.962C95.8784 598.317 144.778 605.053 161.178 611.496C177.281 589.237 206.266 547.956 231.151 535.952C261.579 523.301 293.984 516.067 326.903 514.575C331.605 507.048 336.891 499.902 342.713 493.203C335.585 492.557 328.726 490.159 322.749 486.22C316.772 482.282 311.862 476.927 308.455 470.631C301.135 457.75 287.663 411.488 288.838 391.286C281.518 381.083 277.899 368.689 278.578 356.15C256.006 330.382 287.648 308.713 310.194 330.382C321.619 341.217 328.662 361.711 329.817 376.645C339.184 376.352 348.557 398.606 356.169 419.685C364.952 416.756 407.982 414.124 422.346 417.054C416.488 408.558 398.63 343.556 462.458 337.995C495.844 310.473 555.573 335.066 560.846 378.692C565.53 368.432 571.676 362.004 578.996 364.933C586.317 367.862 569.331 400.068 563.775 407.096C581.341 415.879 595.982 427.298 600.665 448.967C605.364 470.359 604.769 480.599 588.676 504.32ZM625.279 574.888C623.853 581.342 612.967 575.181 618.538 570.497C619.223 569.895 620.086 569.533 620.996 569.467C621.906 569.401 622.812 569.635 623.576 570.133C624.34 570.631 624.92 571.365 625.228 572.224C625.535 573.083 625.553 574.019 625.279 574.888Z" fill="url(#paint39_linear_590_66)"/>
<path d="M403.622 459.52C399.816 456.298 390.741 464.793 394.542 467.728C399.816 472.114 407.413 462.726 403.622 459.52Z" fill="#D9D9D9"/>
<path d="M419.725 465.671C416.437 459.556 406.839 470.359 411.517 473.879C414.457 476.213 422.89 471.56 419.725 465.671Z" fill="#D9D9D9"/>
<path d="M386.057 475.92C385.624 475.956 385.213 476.128 384.885 476.413C384.556 476.697 384.326 477.078 384.228 477.501C384.13 477.925 384.168 478.368 384.339 478.768C384.509 479.168 384.801 479.503 385.174 479.726C395.132 483.533 413.872 490.853 424.414 494.66C427.05 495.829 428.518 491.731 426.168 490.263C413.447 483.831 399.972 479.012 386.057 475.92Z" fill="#D9D9D9"/>
<path d="M435.536 472.406C435.058 468.302 426.753 471.529 425.876 477.382C425.799 478.193 425.98 479.008 426.394 479.711C426.808 480.413 427.433 480.966 428.181 481.291C428.928 481.616 429.759 481.696 430.555 481.52C431.351 481.344 432.071 480.921 432.611 480.311C433.74 479.358 434.602 478.129 435.114 476.744C435.627 475.358 435.772 473.864 435.536 472.406Z" fill="#D9D9D9"/>
<path d="M-47.8846 285.305C-83.3278 305.481 -77.4539 345.034 -63.4028 364.656C-30.4555 355.267 0.922127 341.057 29.7118 322.487C24.7151 290.871 -9.25058 263.313 -47.8846 285.305Z" fill="#110C1D"/>
<path d="M30.5888 329.521C2.92908 347.039 -27.0265 360.636 -58.4219 369.924C-29.1501 398.909 32.0508 376.947 30.5888 329.521Z" fill="#110C1D"/>
<defs>
<linearGradient id="paint0_linear_590_66" x1="475.863" y1="343.541" x2="475.863" y2="435.005" gradientUnits="userSpaceOnUse">
<stop stop-color="#EA8F60"/>
<stop offset="0.305" stop-color="#F7BF68"/>
<stop offset="0.65" stop-color="#F6BA67"/>
<stop offset="0.715" stop-color="#DF6759"/>
<stop offset="1" stop-color="#722479"/>
</linearGradient>
<linearGradient id="paint1_linear_590_66" x1="541.522" y1="408.558" x2="541.522" y2="446.475" gradientUnits="userSpaceOnUse">
<stop stop-color="#EA8F60"/>
<stop offset="0.305" stop-color="#F7BF68"/>
<stop offset="0.65" stop-color="#F6BA67"/>
<stop offset="0.715" stop-color="#DF6759"/>
<stop offset="1" stop-color="#722479"/>
</linearGradient>
<linearGradient id="paint2_linear_590_66" x1="565.17" y1="369.725" x2="565.17" y2="406.897" gradientUnits="userSpaceOnUse">
<stop stop-color="#EA8F60"/>
<stop offset="0.305" stop-color="#F7BF68"/>
<stop offset="0.65" stop-color="#F6BA67"/>
<stop offset="0.715" stop-color="#DF6759"/>
<stop offset="1" stop-color="#722479"/>
</linearGradient>
<linearGradient id="paint3_linear_590_66" x1="480.935" y1="415.716" x2="480.935" y2="463.85" gradientUnits="userSpaceOnUse">
<stop stop-color="#EA8F60"/>
<stop offset="0.305" stop-color="#F7BF68"/>
<stop offset="0.65" stop-color="#F6BA67"/>
<stop offset="0.715" stop-color="#DF6759"/>
<stop offset="1" stop-color="#722479"/>
</linearGradient>
<linearGradient id="paint4_linear_590_66" x1="513.307" y1="331.701" x2="513.307" y2="393.191" gradientUnits="userSpaceOnUse">
<stop stop-color="#EA8F60"/>
<stop offset="0.305" stop-color="#F7BF68"/>
<stop offset="0.65" stop-color="#F6BA67"/>
<stop offset="0.715" stop-color="#DF6759"/>
<stop offset="1" stop-color="#722479"/>
</linearGradient>
<linearGradient id="paint5_linear_590_66" x1="395.716" y1="445.918" x2="395.716" y2="511.58" gradientUnits="userSpaceOnUse">
<stop stop-color="#EA8F60"/>
<stop offset="0.305" stop-color="#F7BF68"/>
<stop offset="0.65" stop-color="#F6BA67"/>
<stop offset="0.715" stop-color="#DF6759"/>
<stop offset="1" stop-color="#722479"/>
</linearGradient>
<linearGradient id="paint6_linear_590_66" x1="431.572" y1="444.556" x2="431.572" y2="512.979" gradientUnits="userSpaceOnUse">
<stop stop-color="#EA8F60"/>
<stop offset="0.305" stop-color="#F7BF68"/>
<stop offset="0.65" stop-color="#F6BA67"/>
<stop offset="0.715" stop-color="#DF6759"/>
<stop offset="1" stop-color="#722479"/>
</linearGradient>
<linearGradient id="paint7_linear_590_66" x1="370.532" y1="514.431" x2="370.532" y2="546.063" gradientUnits="userSpaceOnUse">
<stop stop-color="#EA8F60"/>
<stop offset="0.305" stop-color="#F7BF68"/>
<stop offset="0.65" stop-color="#F6BA67"/>
<stop offset="0.715" stop-color="#DF6759"/>
<stop offset="1" stop-color="#722479"/>
</linearGradient>
<linearGradient id="paint8_linear_590_66" x1="280.338" y1="339.646" x2="280.338" y2="350.779" gradientUnits="userSpaceOnUse">
<stop stop-color="#EA8F60"/>
<stop offset="0.305" stop-color="#F7BF68"/>
<stop offset="0.65" stop-color="#F6BA67"/>
<stop offset="0.715" stop-color="#DF6759"/>
<stop offset="1" stop-color="#722479"/>
</linearGradient>
<linearGradient id="paint9_linear_590_66" x1="322.569" y1="384.26" x2="322.569" y2="487.661" gradientUnits="userSpaceOnUse">
<stop stop-color="#EA8F60"/>
<stop offset="0.305" stop-color="#F7BF68"/>
<stop offset="0.65" stop-color="#F6BA67"/>
<stop offset="0.715" stop-color="#DF6759"/>
<stop offset="1" stop-color="#722479"/>
</linearGradient>
<linearGradient id="paint10_linear_590_66" x1="293.572" y1="350.531" x2="293.572" y2="388.81" gradientUnits="userSpaceOnUse">
<stop stop-color="#EA8F60"/>
<stop offset="0.305" stop-color="#F7BF68"/>
<stop offset="0.65" stop-color="#F6BA67"/>
<stop offset="0.715" stop-color="#DF6759"/>
<stop offset="1" stop-color="#722479"/>
</linearGradient>
<linearGradient id="paint11_linear_590_66" x1="284.339" y1="327.72" x2="284.339" y2="346.631" gradientUnits="userSpaceOnUse">
<stop stop-color="#EA8F60"/>
<stop offset="0.305" stop-color="#F7BF68"/>
<stop offset="0.65" stop-color="#F6BA67"/>
<stop offset="0.715" stop-color="#DF6759"/>
<stop offset="1" stop-color="#722479"/>
</linearGradient>
<linearGradient id="paint12_linear_590_66" x1="305.195" y1="327.679" x2="305.195" y2="381.106" gradientUnits="userSpaceOnUse">
<stop stop-color="#EA8F60"/>
<stop offset="0.305" stop-color="#F7BF68"/>
<stop offset="0.65" stop-color="#F6BA67"/>
<stop offset="0.715" stop-color="#DF6759"/>
<stop offset="1" stop-color="#722479"/>
</linearGradient>
<linearGradient id="paint13_linear_590_66" x1="378.711" y1="388.414" x2="378.711" y2="432.836" gradientUnits="userSpaceOnUse">
<stop stop-color="#EA8F60"/>
<stop offset="0.305" stop-color="#F7BF68"/>
<stop offset="0.65" stop-color="#F6BA67"/>
<stop offset="0.715" stop-color="#DF6759"/>
<stop offset="1" stop-color="#722479"/>
</linearGradient>
<linearGradient id="paint14_linear_590_66" x1="448.085" y1="630.149" x2="448.085" y2="658.517" gradientUnits="userSpaceOnUse">
<stop stop-color="#EA8F60"/>
<stop offset="0.305" stop-color="#F7BF68"/>
<stop offset="0.65" stop-color="#F6BA67"/>
<stop offset="0.715" stop-color="#DF6759"/>
<stop offset="1" stop-color="#722479"/>
</linearGradient>
<linearGradient id="paint15_linear_590_66" x1="449.879" y1="652.045" x2="449.879" y2="684.464" gradientUnits="userSpaceOnUse">
<stop stop-color="#EA8F60"/>
<stop offset="0.305" stop-color="#F7BF68"/>
<stop offset="0.65" stop-color="#F6BA67"/>
<stop offset="0.715" stop-color="#DF6759"/>
<stop offset="1" stop-color="#722479"/>
</linearGradient>
<linearGradient id="paint16_linear_590_66" x1="460.991" y1="656.959" x2="460.991" y2="690.796" gradientUnits="userSpaceOnUse">
<stop stop-color="#EA8F60"/>
<stop offset="0.305" stop-color="#F7BF68"/>
<stop offset="0.65" stop-color="#F6BA67"/>
<stop offset="0.715" stop-color="#DF6759"/>
<stop offset="1" stop-color="#722479"/>
</linearGradient>
<linearGradient id="paint17_linear_590_66" x1="472.653" y1="658.329" x2="472.653" y2="687.258" gradientUnits="userSpaceOnUse">
<stop stop-color="#EA8F60"/>
<stop offset="0.305" stop-color="#F7BF68"/>
<stop offset="0.65" stop-color="#F6BA67"/>
<stop offset="0.715" stop-color="#DF6759"/>
<stop offset="1" stop-color="#722479"/>
</linearGradient>
<linearGradient id="paint18_linear_590_66" x1="298.543" y1="562.959" x2="298.543" y2="732.1" gradientUnits="userSpaceOnUse">
<stop stop-color="#EA8F60"/>
<stop offset="0.305" stop-color="#F7BF68"/>
<stop offset="0.65" stop-color="#F6BA67"/>
<stop offset="0.715" stop-color="#DF6759"/>
<stop offset="1" stop-color="#722479"/>
</linearGradient>
<linearGradient id="paint19_linear_590_66" x1="482.621" y1="628.179" x2="482.621" y2="684.917" gradientUnits="userSpaceOnUse">
<stop stop-color="#EA8F60"/>
<stop offset="0.305" stop-color="#F7BF68"/>
<stop offset="0.65" stop-color="#F6BA67"/>
<stop offset="0.715" stop-color="#DF6759"/>
<stop offset="1" stop-color="#722479"/>
</linearGradient>
<linearGradient id="paint20_linear_590_66" x1="473.898" y1="513.377" x2="473.898" y2="623.506" gradientUnits="userSpaceOnUse">
<stop stop-color="#EA8F60"/>
<stop offset="0.305" stop-color="#F7BF68"/>
<stop offset="0.65" stop-color="#F6BA67"/>
<stop offset="0.715" stop-color="#DF6759"/>
<stop offset="1" stop-color="#722479"/>
</linearGradient>
<linearGradient id="paint21_linear_590_66" x1="524.387" y1="466.154" x2="524.387" y2="641.53" gradientUnits="userSpaceOnUse">
<stop stop-color="#EA8F60"/>
<stop offset="0.305" stop-color="#F7BF68"/>
<stop offset="0.65" stop-color="#F6BA67"/>
<stop offset="0.715" stop-color="#DF6759"/>
<stop offset="1" stop-color="#722479"/>
</linearGradient>
<linearGradient id="paint22_linear_590_66" x1="496.822" y1="467.403" x2="496.822" y2="507.872" gradientUnits="userSpaceOnUse">
<stop stop-color="#EA8F60"/>
<stop offset="0.305" stop-color="#F7BF68"/>
<stop offset="0.65" stop-color="#F6BA67"/>
<stop offset="0.715" stop-color="#DF6759"/>
<stop offset="1" stop-color="#722479"/>
</linearGradient>
<linearGradient id="paint23_linear_590_66" x1="415.492" y1="431.319" x2="415.492" y2="441.076" gradientUnits="userSpaceOnUse">
<stop stop-color="#EA8F60"/>
<stop offset="0.305" stop-color="#F7BF68"/>
<stop offset="0.65" stop-color="#F6BA67"/>
<stop offset="0.715" stop-color="#DF6759"/>
<stop offset="1" stop-color="#722479"/>
</linearGradient>
<linearGradient id="paint24_linear_590_66" x1="565.096" y1="413.187" x2="565.096" y2="493.814" gradientUnits="userSpaceOnUse">
<stop stop-color="#EA8F60"/>
<stop offset="0.305" stop-color="#F7BF68"/>
<stop offset="0.65" stop-color="#F6BA67"/>
<stop offset="0.715" stop-color="#DF6759"/>
<stop offset="1" stop-color="#722479"/>
</linearGradient>
<linearGradient id="paint25_linear_590_66" x1="574.374" y1="443.587" x2="574.374" y2="534.932" gradientUnits="userSpaceOnUse">
<stop stop-color="#EA8F60"/>
<stop offset="0.305" stop-color="#F7BF68"/>
<stop offset="0.65" stop-color="#F6BA67"/>
<stop offset="0.715" stop-color="#DF6759"/>
<stop offset="1" stop-color="#722479"/>
</linearGradient>
<linearGradient id="paint26_linear_590_66" x1="374.565" y1="565.124" x2="374.565" y2="742.64" gradientUnits="userSpaceOnUse">
<stop stop-color="#EA8F60"/>
<stop offset="0.305" stop-color="#F7BF68"/>
<stop offset="0.65" stop-color="#F6BA67"/>
<stop offset="0.715" stop-color="#DF6759"/>
<stop offset="1" stop-color="#722479"/>
</linearGradient>
<linearGradient id="paint27_linear_590_66" x1="414.768" y1="636" x2="414.768" y2="661.695" gradientUnits="userSpaceOnUse">
<stop stop-color="#EA8F60"/>
<stop offset="0.305" stop-color="#F7BF68"/>
<stop offset="0.65" stop-color="#F6BA67"/>
<stop offset="0.715" stop-color="#DF6759"/>
<stop offset="1" stop-color="#722479"/>
</linearGradient>
<linearGradient id="paint28_linear_590_66" x1="445.584" y1="590.377" x2="445.584" y2="647.251" gradientUnits="userSpaceOnUse">
<stop stop-color="#EA8F60"/>
<stop offset="0.305" stop-color="#F7BF68"/>
<stop offset="0.65" stop-color="#F6BA67"/>
<stop offset="0.715" stop-color="#DF6759"/>
<stop offset="1" stop-color="#722479"/>
</linearGradient>
<linearGradient id="paint29_linear_590_66" x1="416.813" y1="532.563" x2="416.813" y2="591.312" gradientUnits="userSpaceOnUse">
<stop stop-color="#EA8F60"/>
<stop offset="0.305" stop-color="#F7BF68"/>
<stop offset="0.65" stop-color="#F6BA67"/>
<stop offset="0.715" stop-color="#DF6759"/>
<stop offset="1" stop-color="#722479"/>
</linearGradient>
<linearGradient id="paint30_linear_590_66" x1="350.396" y1="511.774" x2="350.396" y2="517.541" gradientUnits="userSpaceOnUse">
<stop stop-color="#EA8F60"/>
<stop offset="0.305" stop-color="#F7BF68"/>
<stop offset="0.65" stop-color="#F6BA67"/>
<stop offset="0.715" stop-color="#DF6759"/>
<stop offset="1" stop-color="#722479"/>
</linearGradient>
<linearGradient id="paint31_linear_590_66" x1="406.115" y1="544.567" x2="406.115" y2="596.622" gradientUnits="userSpaceOnUse">
<stop stop-color="#EA8F60"/>
<stop offset="0.305" stop-color="#F7BF68"/>
<stop offset="0.65" stop-color="#F6BA67"/>
<stop offset="0.715" stop-color="#DF6759"/>
<stop offset="1" stop-color="#722479"/>
</linearGradient>
<linearGradient id="paint32_linear_590_66" x1="343.534" y1="521.229" x2="343.534" y2="527.809" gradientUnits="userSpaceOnUse">
<stop stop-color="#EA8F60"/>
<stop offset="0.305" stop-color="#F7BF68"/>
<stop offset="0.65" stop-color="#F6BA67"/>
<stop offset="0.715" stop-color="#DF6759"/>
<stop offset="1" stop-color="#722479"/>
</linearGradient>
<linearGradient id="paint33_linear_590_66" x1="228.092" y1="595.973" x2="228.092" y2="652.597" gradientUnits="userSpaceOnUse">
<stop stop-color="#EA8F60"/>
<stop offset="0.305" stop-color="#F7BF68"/>
<stop offset="0.65" stop-color="#F6BA67"/>
<stop offset="0.715" stop-color="#DF6759"/>
<stop offset="1" stop-color="#722479"/>
</linearGradient>
<linearGradient id="paint34_linear_590_66" x1="266.361" y1="481.95" x2="266.361" y2="613.867" gradientUnits="userSpaceOnUse">
<stop stop-color="#EA8F60"/>
<stop offset="0.305" stop-color="#F7BF68"/>
<stop offset="0.65" stop-color="#F6BA67"/>
<stop offset="0.715" stop-color="#DF6759"/>
<stop offset="1" stop-color="#722479"/>
</linearGradient>
<linearGradient id="paint35_linear_590_66" x1="154.497" y1="611.333" x2="154.497" y2="677.475" gradientUnits="userSpaceOnUse">
<stop stop-color="#EA8F60"/>
<stop offset="0.305" stop-color="#F7BF68"/>
<stop offset="0.65" stop-color="#F6BA67"/>
<stop offset="0.715" stop-color="#DF6759"/>
<stop offset="1" stop-color="#722479"/>
</linearGradient>
<linearGradient id="paint36_linear_590_66" x1="276.023" y1="733.523" x2="276.023" y2="775.748" gradientUnits="userSpaceOnUse">
<stop stop-color="#EA8F60"/>
<stop offset="0.305" stop-color="#F7BF68"/>
<stop offset="0.65" stop-color="#F6BA67"/>
<stop offset="0.715" stop-color="#DF6759"/>
<stop offset="1" stop-color="#722479"/>
</linearGradient>
<linearGradient id="paint37_linear_590_66" x1="271.962" y1="765.812" x2="271.962" y2="788.572" gradientUnits="userSpaceOnUse">
<stop stop-color="#EA8F60"/>
<stop offset="0.305" stop-color="#F7BF68"/>
<stop offset="0.65" stop-color="#F6BA67"/>
<stop offset="0.715" stop-color="#DF6759"/>
<stop offset="1" stop-color="#722479"/>
</linearGradient>
<linearGradient id="paint38_linear_590_66" x1="137.682" y1="620.81" x2="137.682" y2="685.202" gradientUnits="userSpaceOnUse">
<stop stop-color="#EA8F60"/>
<stop offset="0.305" stop-color="#F7BF68"/>
<stop offset="0.65" stop-color="#F6BA67"/>
<stop offset="0.715" stop-color="#DF6759"/>
<stop offset="1" stop-color="#722479"/>
</linearGradient>
<linearGradient id="paint39_linear_590_66" x1="253" y1="126.572" x2="633" y2="809" gradientUnits="userSpaceOnUse">
<stop stop-color="#FDEDA4"/>
<stop offset="0.418103" stop-color="#F6C16A"/>
<stop offset="0.74196" stop-color="#DF6759"/>
<stop offset="0.969821" stop-color="#722479"/>
</linearGradient>
</defs>
</svg>
