<svg width="1497" height="1685" viewBox="0 0 1497 1685" fill="none" xmlns="http://www.w3.org/2000/svg">
<path d="M1033.66 701.296C1072.62 724.49 1125.38 716.689 1145.56 679.661C1165.27 642.153 1151.99 589.252 1106.55 571.939C998.079 531.069 970.134 663.485 1033.66 701.296ZM1082.94 585.402C1088.95 588.191 1088.95 596.944 1079.09 595.512C1050.8 590.71 1034.08 608.504 1029.37 629.65C1028.51 633.02 1022.94 633.501 1022.5 629.179C1020.8 597.913 1052.7 571.425 1082.94 585.402Z" fill="url(#paint0_linear_1341_2)"/>
<path d="M1191.4 674.842C1189.81 672.876 1187.68 671.569 1185.34 671.134C1183.01 670.698 1180.61 671.158 1178.54 672.441C1175.53 674.842 1178.54 680.133 1181.54 677.723C1184.97 675.322 1190.55 679.653 1187.97 693.116C1182.82 722.443 1152.82 740.717 1159.25 706.596C1161.1 697.687 1165.1 689.523 1170.82 683.006C1172.96 680.125 1169.54 674.834 1166.96 677.715C1151.94 691.195 1145.1 723.404 1158.82 731.576C1177.68 743.135 1205.77 691.448 1191.4 674.842Z" fill="url(#paint1_linear_1341_2)"/>
<path d="M1196.97 666.679C1207.01 648.899 1216.04 630.428 1224.01 611.377C1224.19 610.642 1224.15 609.857 1223.87 609.158C1223.6 608.459 1223.11 607.889 1222.5 607.547C1221.89 607.205 1221.2 607.112 1220.53 607.283C1219.87 607.455 1219.28 607.881 1218.87 608.487L1192.29 662.829C1190.55 666.679 1194.75 670.47 1196.97 666.679Z" fill="url(#paint2_linear_1341_2)"/>
<path d="M1148.11 757.559C1153.98 753.8 1158.98 748.527 1162.68 742.175C1163.96 739.285 1160.54 736.876 1158.39 738.325C1154.65 742.83 1150.49 746.861 1145.97 750.347C1142.85 752.839 1139.06 754.032 1135.25 753.717C1110.71 752.32 1086.54 746.476 1063.66 736.412C1040.95 726.791 1013.51 715.737 1011.37 685.441C1010.94 682.071 1007.08 681.591 1006.66 685.441C1003.22 715.771 1036.22 732.562 1056.38 741.695C1080.71 752.777 1106.47 759.435 1132.67 761.418C1135.35 761.958 1138.09 761.895 1140.74 761.232C1143.39 760.57 1145.89 759.321 1148.11 757.559Z" fill="url(#paint3_linear_1341_2)"/>
<path d="M1072.23 559.42C1100.53 548.847 1127.1 548.366 1152.82 568.081C1179.86 588.301 1184.97 611.36 1190.12 643.577C1190.55 646.459 1195.69 646.459 1195.69 643.577C1195.63 627.48 1192.04 611.647 1185.24 597.473C1178.44 583.3 1168.63 571.224 1156.68 562.31C1132.65 543.556 1096.24 538.265 1070.09 554.129C1066.66 555.595 1069.24 560.886 1072.23 559.42Z" fill="url(#paint4_linear_1341_2)"/>
<path d="M961.212 737.844C964.216 734.921 960.356 730.633 957.36 733.034C944.071 743.969 933.697 758.767 927.357 775.833C921.777 790.256 917.489 800.838 931.646 810.459C945.787 820.569 976.653 832.095 993.363 839.787C993.738 840.006 994.151 840.134 994.573 840.162C994.995 840.19 995.418 840.118 995.814 839.95C996.21 839.782 996.57 839.522 996.87 839.187C997.17 838.852 997.403 838.45 997.555 838.006C997.707 837.563 997.773 837.089 997.75 836.615C997.727 836.141 997.615 835.678 997.421 835.256C997.228 834.834 996.957 834.462 996.626 834.166C996.295 833.869 995.913 833.654 995.503 833.536C978.358 823.923 948.791 812.38 936.782 805.169C925.209 798.429 929.07 790.737 933.35 779.203C939.532 763.1 949.09 748.911 961.212 737.844Z" fill="url(#paint5_linear_1341_2)"/>
<path d="M1020.37 747.947C1005.69 740.606 990.494 734.654 974.933 730.153C974.28 730.007 973.602 730.133 973.027 730.508C972.451 730.882 972.016 731.48 971.805 732.188C971.594 732.896 971.621 733.667 971.88 734.355C972.139 735.042 972.613 735.601 973.213 735.924C995.082 745.537 1007.51 748.899 1030.66 760.921C1045.68 768.622 1052.09 771.031 1042.67 792.667C1035.33 810.846 1023.41 826.223 1008.38 836.906C1005.81 838.827 1008.81 843.646 1011.39 842.197C1023.82 835.946 1042.68 812.861 1049.97 793.138C1061.09 762.85 1041.36 757.602 1020.37 747.947Z" fill="url(#paint6_linear_1341_2)"/>
<path d="M914.064 891.719C926.486 898.947 931.21 898.459 938.096 890.278C941.922 885.714 945.5 880.898 948.813 875.854C954.821 867.202 953.522 861.911 945.809 856.62C938.564 852.008 930.96 848.145 923.091 845.078C918.803 843.637 916.663 849.408 920.951 851.338C923.091 852.29 945.809 862.391 946.237 866.233C946.665 869.123 939.801 876.815 938.096 879.216C928.656 891.239 928.228 890.758 914.515 883.547C894.366 872.004 897.37 875.855 914.943 852.29C916.227 850.849 915.371 838.346 900.366 859.502C888.343 875.854 891.767 878.727 914.064 891.719Z" fill="url(#paint7_linear_1341_2)"/>
<path d="M795.76 570.979C794.375 570.067 793.192 568.814 792.301 567.316C791.41 565.817 790.834 564.111 790.615 562.326C789.759 554.634 783.331 557.516 785.043 565.216C785.521 567.666 786.564 569.932 788.068 571.787C789.572 573.643 791.483 575.023 793.612 575.79C797.044 577.239 798.719 572.976 795.76 570.979Z" fill="url(#paint8_linear_1341_2)"/>
<path d="M889.184 793.635C861.262 788.757 848.465 772 837.32 744.104C827.134 715.135 820.642 684.699 818.034 653.696C830.437 646.429 843.723 641.245 857.469 638.312C860.894 637.832 860.038 630.62 856.613 631.091C842.253 633.397 828.425 638.79 815.886 646.973C811.606 650.343 811.606 651.295 811.606 657.083C814.068 687.958 820.566 718.258 830.891 747.011C840.752 771.528 854.923 796.053 889.619 800.864C896.063 801.319 895.192 794.671 889.184 793.635Z" fill="url(#paint9_linear_1341_2)"/>
<path d="M818.905 633.012C798.133 616.726 799.875 568.889 809.045 586.371C812.01 593.259 815.915 599.587 820.618 605.125C823.186 607.526 825.762 604.156 824.05 601.275C819.852 594.558 816.126 587.485 812.905 580.12C806.041 570.498 796.188 577.71 796.188 590.23C796.616 608.023 800.904 629.667 816.329 638.32C816.947 638.6 817.634 638.616 818.261 638.364C818.887 638.112 819.41 637.611 819.728 636.955C820.046 636.299 820.138 635.535 819.987 634.808C819.835 634.08 819.45 633.441 818.905 633.012Z" fill="url(#paint10_linear_1341_2)"/>
<path d="M803.472 564.248C800.844 561.922 791.456 546.934 797.044 544.525C797.655 544.258 798.167 543.765 798.495 543.127C798.823 542.49 798.948 541.746 798.848 541.018C798.748 540.29 798.43 539.623 797.946 539.125C797.463 538.628 796.842 538.33 796.188 538.282C790.615 537.313 783.751 546.934 794.903 562.327C803.9 574.829 806.837 567.23 803.472 564.248Z" fill="url(#paint11_linear_1341_2)"/>
<path d="M818.477 583.01C818.905 586.86 822.766 585.9 822.766 582.049C822.766 568.569 807.333 555.603 806.476 547.903C806.048 545.502 807.333 545.502 809.48 545.502C814.709 546.822 819.478 549.83 823.201 554.154C840.775 571.004 846.347 597.922 849.343 622.928C849.772 627.25 854.916 626.769 854.488 621.967C852.347 594.552 845.919 566.185 826.198 547.431C808.624 531.078 794.047 537.81 803.052 556.084C807.761 565.216 816.758 572.428 818.477 583.01Z" fill="url(#paint12_linear_1341_2)"/>
<path d="M891.775 706.588C893.119 710.893 895.628 711.398 900.787 710.43C939.786 700.32 958.614 697.455 999.799 703.69C1000.64 703.784 1001.48 703.51 1002.14 702.923C1002.8 702.337 1003.23 701.486 1003.34 700.549C1003.45 699.612 1003.23 698.663 1002.73 697.904C1002.23 697.144 1001.49 696.632 1000.65 696.478C966.483 689.17 931.21 691.818 898.211 704.17C890.76 681.931 882.025 660.261 872.061 639.297C870.349 636.416 865.633 638.337 866.917 641.698C875.486 663.797 884.798 684.337 891.775 706.588Z" fill="url(#paint13_linear_1341_2)"/>
<path d="M1034.52 1071.57C1028.94 1073.98 1024.23 1076.38 1023.36 1074.46C1020.36 1067.24 1041.79 1046.08 1054.66 1040.31C1058.09 1038.87 1057.24 1034.06 1053.37 1035.02C1032.35 1041.28 1007.5 1072.54 1019.51 1080.7C1022.49 1081.67 1025.65 1081.74 1028.66 1080.89C1031.67 1080.05 1034.43 1078.33 1036.66 1075.9C1038.81 1073.98 1037.09 1070.13 1034.52 1071.57Z" fill="url(#paint14_linear_1341_2)"/>
<path d="M1042.66 1117.26C1039.23 1117.26 1037.09 1116.77 1036.65 1112.93C1035.79 1101.38 1042.66 1085.04 1047.37 1075.42C1048.22 1073.49 1046.94 1066.77 1042.22 1074.46C1036.65 1083.11 1029.37 1105.23 1031.08 1115.34C1031.15 1116.79 1031.52 1118.2 1032.17 1119.46C1032.82 1120.72 1033.72 1121.79 1034.81 1122.59C1035.89 1123.38 1037.13 1123.88 1038.42 1124.04C1039.71 1124.2 1041.01 1124.02 1042.22 1123.51C1046.52 1122.07 1045.65 1117.26 1042.66 1117.26Z" fill="url(#paint15_linear_1341_2)"/>
<path d="M1059.38 1126.42C1058.63 1127.23 1057.63 1127.69 1056.59 1127.69C1055.55 1127.69 1054.55 1127.23 1053.8 1126.42C1050.8 1119.68 1057.24 1090.36 1059.81 1083.63C1061.1 1079.78 1056.81 1076.89 1055.09 1080.74C1050.81 1090.36 1042.67 1122.57 1049.52 1131.71C1053.81 1137.48 1061.54 1133.15 1063.67 1128.82C1065.38 1125.43 1061.52 1123.98 1059.38 1126.42Z" fill="url(#paint16_linear_1341_2)"/>
<path d="M1077.38 1121.58C1067.06 1127.43 1071.33 1099.21 1073.95 1086.48C1074.8 1082.15 1070.94 1077.82 1068.37 1085.03C1064.52 1096.09 1060.23 1123.5 1070.52 1127.84C1072.35 1128.81 1074.44 1128.95 1076.36 1128.23C1078.27 1127.52 1079.87 1125.99 1080.81 1123.99C1081.67 1122.07 1079.53 1120.63 1077.38 1121.58Z" fill="url(#paint17_linear_1341_2)"/>
<path d="M780.755 1199.48C784.134 1158.61 769.077 1058.32 824.906 977.797C836.425 961.355 848.73 945.625 861.765 930.676C864.341 927.786 860.481 922.495 857.477 925.385C845.052 937.89 833.451 951.388 822.766 965.774C787.183 1014.34 776.038 1064.35 773.47 1127.35C772.259 1151.21 772.545 1175.14 774.326 1198.96C775.182 1202.85 780.394 1203.81 780.755 1199.48Z" fill="url(#paint18_linear_1341_2)"/>
<path d="M1065.8 1031.66C1060.23 1031.66 1061.52 1036.95 1064.52 1037.43C1080.81 1040.8 1091.09 1041.76 1105.24 1057.14C1097.64 1074.55 1093.41 1093.56 1092.81 1112.93C1091.95 1122.54 1082.52 1117.73 1087.24 1091.28C1088.09 1086.96 1080.81 1081.67 1080.37 1105.23C1079.95 1130.24 1096.24 1127.84 1098.81 1117.26C1100.96 1108.12 1096.67 1100.41 1109.96 1061.95C1112.1 1055.7 1114.24 1054.74 1109.53 1049.93C1097.15 1038.6 1081.78 1032.17 1065.8 1031.66Z" fill="url(#paint19_linear_1341_2)"/>
<path d="M1065.38 1022.05C1086.1 974.638 1094.88 897.153 1084.23 846.038C1084.12 845.145 1083.69 844.338 1083.05 843.797C1082.4 843.256 1081.59 843.024 1080.8 843.153C1080 843.281 1079.28 843.76 1078.8 844.482C1078.32 845.205 1078.11 846.114 1078.23 847.007C1084.64 919.993 1081.03 951.941 1060.2 1019.64C1059.92 1020.41 1059.92 1021.27 1060.2 1022.04C1060.48 1022.81 1061.03 1023.42 1061.71 1023.74C1062.4 1024.06 1063.17 1024.06 1063.86 1023.74C1064.55 1023.43 1065.09 1022.81 1065.38 1022.05Z" fill="url(#paint20_linear_1341_2)"/>
<path d="M1144.25 770.542C1168.57 810.129 1178.4 858.696 1171.68 906.184C1165.25 959.076 1142.96 1004.28 1116.38 1047.08C1113.38 1051.41 1119.82 1056.22 1122.39 1051.89C1153.26 1004.76 1177.69 947.543 1180.69 888.871C1182.83 847.513 1173.41 798.471 1148.11 767.214C1145.54 763.305 1142.16 767.138 1144.25 770.542Z" fill="url(#paint21_linear_1341_2)"/>
<path d="M1133.1 772.943C1136.11 771.587 1134.39 767.181 1131.39 767.652C1109.96 771.503 1082.52 803.248 1081.24 831.135C1080.81 834.977 1085.52 834.977 1085.95 831.615C1091.09 802.288 1114.84 781.149 1133.1 772.943Z" fill="url(#paint22_linear_1341_2)"/>
<path d="M983.502 723.901C987.701 720.196 992.313 717.123 997.223 714.76C997.759 714.488 998.214 714.049 998.534 713.495C998.853 712.94 999.023 712.294 999.023 711.634C999.023 710.974 998.853 710.328 998.534 709.774C998.214 709.219 997.759 708.78 997.223 708.508C992.078 707.068 982.646 716.2 979.649 719.09C977.051 721.5 980.506 725.822 983.502 723.901Z" fill="url(#paint23_linear_1341_2)"/>
<path d="M1202.12 678.693C1198.69 677.732 1196.97 683.023 1199.97 684.464C1209.83 689.755 1221.4 694.085 1227.83 705.147C1234.69 717.65 1228.69 729.192 1222.26 739.766C1208.55 762.37 1193.54 784.005 1178.12 805.169C1175.54 809.011 1180.68 813.341 1183.68 809.491C1202.1 785.689 1219 760.461 1234.26 733.995C1244.02 714.634 1237.54 690.471 1202.12 678.693Z" fill="url(#paint24_linear_1341_2)"/>
<path d="M1239.41 733.034C1244.86 743.388 1247.82 755.156 1247.98 767.18C1247.55 808.058 1206.83 846.999 1188.4 873.453C1185.83 877.295 1190.12 880.665 1193.11 876.823C1214.55 849.863 1255.27 811.428 1255.27 765.259C1255.58 758.685 1254.72 752.106 1252.74 745.911C1250.75 739.716 1247.67 734.031 1243.69 729.192C1241.55 727.263 1237.73 729.647 1239.41 733.034Z" fill="url(#paint25_linear_1341_2)"/>
<path d="M1073.93 932.117C1075.68 928.292 1070.93 926.346 1068.36 930.196C1053.54 956.519 1034.33 979.38 1011.78 997.52C974.144 1026.72 932.417 1048.65 888.328 1062.39C880.615 1064.79 879.316 1065.76 878.047 1072.97C872.902 1100.38 860.901 1182.13 855.321 1211.46C832.102 1212.1 808.943 1208.53 786.74 1200.88C783.308 1199.92 782.452 1205.68 785.456 1207.13C804.321 1216.76 831.748 1219.64 853.181 1219.64C860.045 1219.64 861.322 1216.76 862.606 1210.5C866.894 1188.38 884.04 1091.7 886.638 1072.49C917.717 1062.23 947.859 1048.69 976.661 1032.05C1012.23 1011 1052.09 979.971 1073.93 932.117Z" fill="url(#paint26_linear_1341_2)"/>
<path d="M1013.1 1079.75C996.511 1069.26 980.48 1057.7 965.088 1045.12C962.512 1043.19 958.659 1046.09 961.227 1049.44C975.738 1065.19 992.751 1077.75 1011.39 1086.47C1015.22 1087.92 1016.93 1082.17 1013.1 1079.75Z" fill="url(#paint27_linear_1341_2)"/>
<path d="M1063.24 971.066C1041.37 1000.4 1021.66 1028.77 998.935 1058.11C996.795 1060.99 1000.65 1064.85 1002.8 1061.95C1026.43 1034.91 1047.94 1005.63 1067.09 974.436C1068.81 970.56 1065.38 967.704 1063.24 971.066Z" fill="url(#paint28_linear_1341_2)"/>
<path d="M1027.23 964.334C1016.54 930.01 987.362 889.798 957.382 874.894C954.378 873.453 952.666 878.264 955.234 880.185C983.532 901.82 1005.82 924.416 1022.07 967.695C1024.65 974.435 1029.01 970.071 1027.23 964.334Z" fill="url(#paint29_linear_1341_2)"/>
<path d="M900.779 845.558C899.45 841.733 886.631 837.386 886.203 843.637C886.203 848.448 890.919 846.038 895.635 848.928C899.488 851.81 901.613 847.976 900.779 845.558Z" fill="url(#paint30_linear_1341_2)"/>
<path d="M940.642 899.9C991.65 937.888 998.469 965.295 1004.08 975.876C1007.94 983.088 1013.09 979.727 1010.09 971.546C995.39 938.8 972.05 911.934 943.248 894.609C940.252 893.168 937.638 897.979 940.642 899.9Z" fill="url(#paint31_linear_1341_2)"/>
<path d="M880.63 856.14C875.486 855.18 872.917 859.991 877.198 861.431C880.66 862.313 883.984 863.773 887.059 865.762C893.067 869.604 893.067 861.903 890.063 859.991C887.122 858.151 883.937 856.851 880.63 856.14Z" fill="url(#paint32_linear_1341_2)"/>
<path d="M804.757 978.766C795.876 978.906 787.063 980.527 778.607 983.576C774.279 984.519 770.356 987.057 767.462 990.788C742.614 1020.67 713.496 1045.7 681.307 1064.84C659.933 1053.81 641.145 1037.35 626.439 1016.75C624.299 1013.86 620.431 1017.71 622.151 1020.6C630.727 1035.98 657.305 1063.39 675.735 1070.61C677.441 1071.51 679.328 1071.89 681.207 1071.72C683.086 1071.55 684.894 1070.84 686.452 1069.65C716.492 1053.78 755.033 1017.71 776.467 991.294C786.327 988.884 796.188 987.443 805.613 984.082C808.617 983.088 807.325 979.718 804.757 978.766Z" fill="url(#paint33_linear_1341_2)"/>
<path d="M629.443 1007.13C666.828 964.915 689.02 918.67 738.744 891.238C776.466 870.572 818.049 866.713 862.201 862.871C867.773 862.391 869.485 859.981 872.91 854.21C885.183 833.602 899.102 814.288 914.493 796.507C917.925 792.666 914.065 790.256 911.061 792.185C902.492 797.948 870.77 842.196 865.625 854.699C815.473 858.069 778.614 862.391 745.608 878.289C693.308 903.775 661.593 955.715 626.011 1002.84C623.871 1006.17 626.875 1010.03 629.443 1007.13Z" fill="url(#paint34_linear_1341_2)"/>
<path d="M675.735 1076.86C671.446 1075.9 661.165 1097.53 645.732 1105.23C620.439 1089.37 575.003 1062.43 544.144 1014.83C569.859 1011.46 586.576 1010.49 613.154 1020.6C617.442 1022.52 619.162 1014.34 614.866 1012.42C591.317 1003.15 565.92 1001.49 541.569 1007.62C535.14 1009.53 535.561 1012.42 538.565 1018.19C559.134 1055.7 601.573 1090.32 637.148 1109.56C639.494 1111.54 642.354 1112.62 645.293 1112.62C648.232 1112.62 651.092 1111.54 653.438 1109.56C665.018 1101.86 682.163 1078.3 675.735 1076.86Z" fill="url(#paint35_linear_1341_2)"/>
<path d="M853.624 1225.93C854.159 1239.63 852.414 1253.33 848.48 1266.32C803.999 1269.33 759.426 1262.46 717.318 1246.1C730.914 1230.34 747.886 1218.75 766.613 1212.44C767.491 1212.15 768.234 1211.5 768.689 1210.61C769.143 1209.72 769.273 1208.66 769.05 1207.67C768.828 1206.67 768.271 1205.81 767.496 1205.27C766.721 1204.73 765.788 1204.54 764.893 1204.75C748.176 1209.56 722.034 1225.9 711.745 1241.29C707.885 1247.54 710.454 1250.43 715.598 1252.84C754.177 1269.69 809.473 1275.92 850.628 1273.51C852.768 1273.51 854.052 1271.1 854.48 1269.18C859.111 1255.05 860.583 1239.86 858.768 1224.94C858.574 1224.27 858.169 1223.69 857.626 1223.32C857.084 1222.95 856.441 1222.82 855.815 1222.94C855.19 1223.05 854.624 1223.42 854.222 1223.97C853.819 1224.52 853.607 1225.22 853.624 1225.93Z" fill="url(#paint36_linear_1341_2)"/>
<path d="M845.483 1279.76C842.99 1285.1 833.903 1293.7 826.626 1283.6C823.186 1278.8 821.046 1278.32 817.186 1283.12C816.049 1285.02 814.486 1286.56 812.654 1287.57C810.822 1288.59 808.784 1289.05 806.745 1288.9C804.706 1288.76 802.737 1288.01 801.034 1286.74C799.332 1285.48 797.956 1283.73 797.044 1281.68C793.612 1274.94 791.899 1273.03 786.755 1279.76C785.526 1281.5 783.922 1282.87 782.093 1283.73C780.265 1284.59 778.271 1284.91 776.3 1284.67C774.329 1284.43 772.445 1283.63 770.824 1282.35C769.203 1281.07 767.899 1279.35 767.034 1277.35C764.03 1271.58 763.609 1269.66 758.022 1275.43C749.873 1283.6 740.448 1283.12 736.994 1270.62C734.854 1263.4 732.285 1263.88 728.417 1268.21C727.04 1269.6 725.338 1270.53 723.512 1270.87C721.685 1271.22 719.808 1270.97 718.101 1270.16C716.394 1269.36 714.927 1268.02 713.87 1266.32C712.814 1264.61 712.212 1262.6 712.136 1260.52C712.136 1256.67 704.844 1255.23 707.419 1266.29C708.137 1268.96 709.421 1271.39 711.161 1273.38C712.901 1275.37 715.046 1276.85 717.41 1277.7C719.774 1278.55 722.288 1278.75 724.733 1278.27C727.179 1277.79 729.485 1276.65 731.451 1274.95C732.6 1278.16 734.457 1281 736.849 1283.2C739.241 1285.39 742.089 1286.87 745.129 1287.5C748.168 1288.12 751.299 1287.87 754.229 1286.77C757.158 1285.67 759.792 1283.75 761.882 1281.2C763.359 1284.06 765.421 1286.49 767.899 1288.28C770.376 1290.08 773.199 1291.18 776.133 1291.51C779.067 1291.84 782.029 1291.38 784.774 1290.18C787.519 1288.97 789.969 1287.05 791.922 1284.57C793.456 1287.51 795.598 1289.99 798.168 1291.81C800.737 1293.62 803.658 1294.72 806.684 1295C809.71 1295.28 812.753 1294.74 815.554 1293.43C818.356 1292.11 820.834 1290.06 822.781 1287.45C833.077 1301.87 851.071 1289.85 850.643 1279.76C850.412 1279.21 850.046 1278.75 849.59 1278.42C849.133 1278.1 848.604 1277.92 848.063 1277.92C847.522 1277.92 846.993 1278.1 846.536 1278.42C846.08 1278.75 845.714 1279.21 845.483 1279.76Z" fill="url(#paint37_linear_1341_2)"/>
<path d="M635.872 1113.41C632.868 1113.41 617.097 1126.04 612.726 1104.74C611.87 1098.98 610.578 1097.06 605.006 1099.46C595.994 1103.79 587.86 1099.46 587.86 1087.92C587.432 1077.81 588.288 1079.26 579.291 1081.67C568.575 1084.56 563.002 1074.45 565.143 1062.43C565.241 1061.58 565.139 1060.71 564.847 1059.91C564.556 1059.11 564.084 1058.41 563.478 1057.87C562.873 1057.34 562.154 1056.99 561.393 1056.86C560.631 1056.74 559.853 1056.83 559.135 1057.14C549.702 1061.95 543.273 1054.25 546.706 1043.19C548.418 1037.91 545.421 1034.55 540.698 1035.98C534.69 1037.43 530.837 1032.61 533.405 1025.87C536.409 1018.66 531.265 1019.13 529.981 1020.1C528.085 1022.02 526.769 1024.55 526.214 1027.35C525.659 1030.15 525.892 1033.07 526.882 1035.71C527.872 1038.35 529.569 1040.58 531.739 1042.09C533.909 1043.6 536.444 1044.32 538.993 1044.14C538.374 1047.04 538.412 1050.06 539.104 1052.94C539.795 1055.81 541.119 1058.45 542.953 1060.6C544.787 1062.76 547.074 1064.36 549.603 1065.26C552.132 1066.17 554.823 1066.35 557.43 1065.79C556.947 1069.22 557.234 1072.74 558.263 1076.02C559.293 1079.31 561.034 1082.25 563.33 1084.59C565.625 1086.93 568.403 1088.59 571.413 1089.43C574.424 1090.26 577.572 1090.25 580.576 1089.38C580.778 1092.65 581.658 1095.82 583.144 1098.64C584.631 1101.46 586.683 1103.85 589.138 1105.62C591.593 1107.4 594.383 1108.5 597.286 1108.85C600.189 1109.21 603.126 1108.8 605.862 1107.65C606.421 1111.23 607.787 1114.59 609.83 1117.42C611.873 1120.24 614.525 1122.43 617.534 1123.78C620.543 1125.13 623.81 1125.6 627.025 1125.13C630.239 1124.67 633.295 1123.29 635.902 1121.13C639.296 1118.22 639.296 1114.37 635.872 1113.41Z" fill="url(#paint38_linear_1341_2)"/>
<path d="M1240.7 477.697C1118.94 442.649 1053.8 414.223 1022.51 319.973C986.934 211.29 817.614 163.209 692.88 260.349C507.676 404.122 442.121 292.069 319.528 290.662C30.1902 287.747 -15.2453 582.041 87.6342 734.963C145.927 822.002 132.214 900.86 87.6342 992.229C6.61634 1159.09 147.196 1286.04 301.955 1249.49C367.111 1234.11 432.268 1210.54 536.424 1371.66C652.589 1551.51 915.349 1476.97 988.218 1330.31C1028.09 1250 1094.11 1218.25 1203.4 1205.28C1403.62 1181.18 1464.45 988.378 1464.45 812.86C1464.01 679.173 1379.59 517.665 1240.7 477.697ZM887.059 329.586C884.52 332.501 878.91 333.427 877.198 325.727C873.338 308.422 895.74 319.602 887.059 329.586ZM721.606 471.437C723.003 462.322 735.311 465.186 733.622 474.807C731.474 482.98 720.412 479.155 721.606 471.437ZM697.574 779.683C691.566 781.073 692.858 768.132 692.858 764.771C688.577 764.771 676.996 767.18 677.432 760.92C677.432 756.11 688.997 756.598 692.858 756.11C692.858 752.268 691.138 734.963 695.861 734.963C701.006 734.474 700.15 751.307 700.15 755.638C702.718 755.638 712.571 753.709 712.571 759.008C712.571 763.338 703.146 763.819 700.555 764.299C700.6 767.66 701.877 778.689 697.596 779.683H697.574ZM667.999 404.602C668.901 399.319 680.856 405.562 683.86 407.003C683.432 402.673 681.285 387.769 686.429 387.288C691.138 387.288 691.573 399.791 692.001 404.138C695.005 401.729 701.854 393.068 704.858 397.398C707.434 401.729 697.146 408.941 694.149 411.831C697.574 413.271 715.177 419.514 711.723 425.774C708.719 431.065 696.703 422.404 693.286 420.483C693.714 424.325 696.718 443.559 690.717 443.559C685.145 443.559 685.145 424.813 684.709 420.483C682.141 422.893 671.424 434.907 668.427 431.537C664.567 427.215 677.86 417.602 680.857 414.687C677.883 412.774 667.203 409.455 668.022 404.602H667.999ZM621.73 661.362C624.269 654.622 636.75 657.992 632.875 667.613C629.871 675.811 617.39 672.904 621.73 661.362ZM625.583 853.713C626.717 854.989 627.354 856.718 627.354 858.52C627.354 860.322 626.717 862.05 625.583 863.326C619.154 869.578 614.866 861.877 614.866 856.586C615.294 851.329 622.579 850.369 625.583 853.739V853.713ZM605.869 575.309C617.442 575.309 610.585 588.789 602.865 587.803C598.149 586.851 595.152 575.309 605.869 575.309ZM526.564 635.893C528.817 629.709 542.853 639.263 546.285 641.193C546.285 637.342 546.285 616.187 551.85 617.148C556.574 618.108 554.854 633.998 554.426 638.303C557.43 635.893 567.718 624.823 570.715 631.563C572.863 636.374 559.57 645.506 556.574 647.907C559.998 650.309 576.287 658.969 572.435 665.701C568.995 671.472 557.858 660.418 554.411 658.009C554.411 663.3 558.271 685.424 552.27 686.376C544.986 687.825 545.842 662.786 545.842 658.009C542.41 661.379 532.121 673.401 528.696 669.071C524.408 663.78 538.978 652.221 542.41 649.356C538.993 646.955 524.949 640.3 526.564 635.893ZM311.808 365.645C312.901 365.429 314.026 365.557 315.059 366.015C316.091 366.473 316.99 367.244 317.656 368.24C318.322 369.237 318.729 370.421 318.831 371.661C318.934 372.901 318.728 374.149 318.236 375.266C317.705 376.329 316.966 377.242 316.073 377.937C315.181 378.631 314.159 379.088 313.085 379.274C312.012 379.459 310.915 379.367 309.877 379.005C308.84 378.644 307.89 378.022 307.099 377.187C306.442 376.136 306.041 374.911 305.937 373.633C305.833 372.355 306.028 371.069 306.504 369.902C306.98 368.735 307.72 367.728 308.651 366.981C309.581 366.234 310.669 365.774 311.808 365.645ZM205.917 1016.27C199.984 1010.88 207.629 998.952 214.486 1005.21C221.342 1011.47 211.136 1021 205.939 1016.27H205.917ZM235.063 723.421C232.112 715.703 244.924 708.508 246.636 722.452C246.535 724.026 245.932 725.508 244.938 726.626C243.945 727.743 242.626 728.423 241.222 728.541C239.819 728.658 238.425 728.206 237.294 727.266C236.163 726.326 235.371 724.961 235.063 723.421ZM311.785 920.566C312.221 924.407 314.361 942.209 309.217 942.209C303.644 942.209 304.072 925.857 303.644 921.526C298.928 922.006 266.357 925.857 269.354 918.645C271.502 912.874 298.5 912.385 303.216 912.385C302.788 908.063 299.364 882.577 304.936 882.055C312.221 881.575 310.944 906.1 311.365 911.391C314.369 910.911 325.078 908.501 325.506 913.312C326.385 918.653 314.812 919.614 311.808 920.574L311.785 920.566ZM446.387 1116.76C436.098 1114.36 440.379 1098.01 449.391 1099.45C459.266 1100.42 456.698 1119.17 446.409 1116.77L446.387 1116.76ZM451.531 647.907C451.531 636.854 468.241 642.145 461.392 652.238C460.681 653.338 459.663 654.142 458.5 654.523C457.337 654.904 456.094 654.84 454.967 654.341C453.84 653.842 452.893 652.936 452.275 651.767C451.657 650.598 451.403 649.231 451.554 647.882L451.531 647.907ZM455.384 799.38C454.986 791.208 466.536 783.516 468.241 798.428C468.699 804.688 455.857 809.01 455.406 799.389L455.384 799.38ZM473.881 497.917C459.33 514.458 443.068 528.988 425.441 541.196C407.665 564.48 385.382 582.9 360.292 595.049C340.571 604.19 314.849 615.269 295.135 608.032C277.99 614.283 259.125 620.054 244.128 623.896C214.546 631.597 197.828 617.653 220.974 588.798C231.256 576.022 243.626 565.574 257.413 558.021C258.377 557.423 259.511 557.271 260.573 557.597C261.636 557.923 262.543 558.701 263.102 559.766C263.66 560.831 263.827 562.099 263.565 563.299C263.303 564.499 262.635 565.538 261.701 566.193C248.546 574.396 236.674 584.954 226.554 597.45C205.977 623.896 236.407 614.763 248.408 611.402C260.845 608.032 275.444 603.221 287.415 598.899C302.848 580.617 332.851 568.123 356.853 556.1C377.43 545.518 401.432 532.51 423.729 530.126C436.71 520.238 449.149 509.482 460.979 497.917C472.552 486.855 481.128 467.149 458.41 472.432C443.638 476.135 429.266 481.618 415.543 488.784C411.683 490.705 408.259 484.454 412.111 482.533C428.923 472.899 447.021 466.403 465.695 463.299C489.276 460.847 488.037 480.149 473.881 497.917ZM1242.41 828.244C1225.26 856.611 1193.97 887.877 1188.83 895.569C1177.25 986.929 1132.67 1070.13 1115.98 1063.39C1104.83 1097.09 1110.83 1103.83 1105.26 1122.07C1094.98 1153.8 1009.25 1159.14 1022.97 1101.38C1005.39 1098.5 965.523 1068.68 953.522 1054.25C934.082 1063.94 914.022 1071.98 893.51 1078.3C889.649 1105.26 873.796 1203.83 868.652 1219.2C874.66 1247.09 864.791 1293.73 851.071 1302.88C831.357 1316.36 699.759 1303.36 695.907 1266.33C693.331 1240.36 722.943 1209.59 764.916 1195.63C759.772 1140.81 763.632 1045.12 796.638 995.118C784.622 997.528 785.486 996.559 780.341 997.528C770.06 1018.68 706.623 1073.98 687.758 1081.68C677.477 1108.64 649.615 1131.69 635.459 1133.61C601.168 1138.42 514.585 1063.88 517.552 1026.38C520.984 982.616 592.569 993.678 616.578 1004.26C640.152 967.703 682.584 899.908 719.015 880.193C763.559 859.417 810.998 847.536 859.189 845.086C866.073 832.724 873.812 820.989 882.335 809.988C871.899 808.927 861.859 804.987 853.108 798.519C844.358 792.052 837.17 783.257 832.183 772.918C821.466 751.762 801.745 675.786 803.465 642.608C792.749 625.853 787.45 605.497 788.445 584.905C755.401 542.587 801.722 506.999 834.729 542.586C851.454 560.38 861.765 594.038 863.455 618.563C877.168 618.083 890.889 654.631 902.033 689.249C914.891 684.438 977.885 680.116 998.913 684.927C990.336 670.975 964.194 564.222 1057.63 555.089C1106.51 509.889 1193.95 550.279 1201.67 621.925C1208.52 605.075 1217.52 594.518 1228.24 599.329C1238.95 604.14 1214.09 657.032 1205.96 668.574C1231.67 682.998 1253.1 701.752 1259.96 737.339C1266.84 772.471 1265.97 789.287 1242.41 828.244ZM1295.99 944.139C1293.91 954.737 1277.97 944.619 1286.12 936.927C1287.13 935.938 1288.39 935.343 1289.72 935.236C1291.05 935.128 1292.38 935.512 1293.5 936.329C1294.62 937.147 1295.47 938.353 1295.92 939.763C1296.37 941.173 1296.39 942.71 1295.99 944.139Z" fill="url(#paint39_linear_1341_2)"/>
<path d="M971.501 754.669C965.929 749.378 952.644 763.33 958.209 768.149C965.929 775.353 977.051 759.935 971.501 754.669Z" fill="#D9D9D9"/>
<path d="M995.075 764.771C990.261 754.729 976.21 772.472 983.059 778.251C987.362 782.085 999.709 774.443 995.075 764.771Z" fill="#D9D9D9"/>
<path d="M945.787 781.604C945.153 781.664 944.552 781.947 944.071 782.414C943.59 782.881 943.253 783.507 943.11 784.202C942.966 784.897 943.023 785.625 943.272 786.282C943.521 786.939 943.949 787.49 944.495 787.856C959.072 794.107 986.506 806.13 1001.94 812.381C1005.8 814.302 1007.95 807.57 1004.51 805.161C985.885 794.596 966.158 786.683 945.787 781.604Z" fill="#D9D9D9"/>
<path d="M1018.22 775.833C1017.52 769.093 1005.36 774.392 1004.08 784.005C1003.97 785.338 1004.23 786.676 1004.84 787.829C1005.44 788.982 1006.36 789.891 1007.45 790.425C1008.55 790.958 1009.76 791.09 1010.93 790.801C1012.09 790.513 1013.15 789.818 1013.94 788.816C1015.59 787.25 1016.85 785.232 1017.6 782.957C1018.35 780.682 1018.57 778.228 1018.22 775.833Z" fill="#D9D9D9"/>
<path d="M310.523 468.556C258.637 501.692 267.236 566.649 287.806 598.874C336.038 583.455 381.973 560.118 424.12 529.621C416.805 477.697 367.081 432.438 310.523 468.556Z" fill="#110C1D"/>
<path d="M425.404 541.172C384.912 569.942 341.059 592.273 295.098 607.527C337.95 655.128 427.544 619.061 425.404 541.172Z" fill="#110C1D"/>
<defs>
<linearGradient id="paint0_linear_1341_2" x1="1077.26" y1="564.196" x2="1077.26" y2="714.408" gradientUnits="userSpaceOnUse">
<stop stop-color="#F7BF68"/>
<stop offset="0.5" stop-color="#DF6759"/>
<stop offset="1" stop-color="#722479"/>
</linearGradient>
<linearGradient id="paint1_linear_1341_2" x1="1173.38" y1="670.974" x2="1173.38" y2="733.245" gradientUnits="userSpaceOnUse">
<stop stop-color="#F7BF68"/>
<stop offset="0.5" stop-color="#DF6759"/>
<stop offset="1" stop-color="#722479"/>
</linearGradient>
<linearGradient id="paint2_linear_1341_2" x1="1208" y1="607.199" x2="1208" y2="668.248" gradientUnits="userSpaceOnUse">
<stop stop-color="#F7BF68"/>
<stop offset="0.5" stop-color="#DF6759"/>
<stop offset="1" stop-color="#722479"/>
</linearGradient>
<linearGradient id="paint3_linear_1341_2" x1="1084.68" y1="682.73" x2="1084.68" y2="761.781" gradientUnits="userSpaceOnUse">
<stop stop-color="#F7BF68"/>
<stop offset="0.5" stop-color="#DF6759"/>
<stop offset="1" stop-color="#722479"/>
</linearGradient>
<linearGradient id="paint4_linear_1341_2" x1="1132.07" y1="544.753" x2="1132.07" y2="645.738" gradientUnits="userSpaceOnUse">
<stop stop-color="#F7BF68"/>
<stop offset="0.5" stop-color="#DF6759"/>
<stop offset="1" stop-color="#722479"/>
</linearGradient>
<linearGradient id="paint5_linear_1341_2" x1="959.927" y1="732.331" x2="959.927" y2="840.168" gradientUnits="userSpaceOnUse">
<stop stop-color="#F7BF68"/>
<stop offset="0.5" stop-color="#DF6759"/>
<stop offset="1" stop-color="#722479"/>
</linearGradient>
<linearGradient id="paint6_linear_1341_2" x1="1012.42" y1="730.094" x2="1012.42" y2="842.465" gradientUnits="userSpaceOnUse">
<stop stop-color="#F7BF68"/>
<stop offset="0.5" stop-color="#DF6759"/>
<stop offset="1" stop-color="#722479"/>
</linearGradient>
<linearGradient id="paint7_linear_1341_2" x1="923.06" y1="844.85" x2="923.06" y2="896.8" gradientUnits="userSpaceOnUse">
<stop stop-color="#F7BF68"/>
<stop offset="0.5" stop-color="#DF6759"/>
<stop offset="1" stop-color="#722479"/>
</linearGradient>
<linearGradient id="paint8_linear_1341_2" x1="791.021" y1="557.801" x2="791.021" y2="576.084" gradientUnits="userSpaceOnUse">
<stop stop-color="#F7BF68"/>
<stop offset="0.5" stop-color="#DF6759"/>
<stop offset="1" stop-color="#722479"/>
</linearGradient>
<linearGradient id="paint9_linear_1341_2" x1="852.845" y1="631.069" x2="852.845" y2="800.886" gradientUnits="userSpaceOnUse">
<stop stop-color="#F7BF68"/>
<stop offset="0.5" stop-color="#DF6759"/>
<stop offset="1" stop-color="#722479"/>
</linearGradient>
<linearGradient id="paint10_linear_1341_2" x1="810.395" y1="575.677" x2="810.395" y2="638.542" gradientUnits="userSpaceOnUse">
<stop stop-color="#F7BF68"/>
<stop offset="0.5" stop-color="#DF6759"/>
<stop offset="1" stop-color="#722479"/>
</linearGradient>
<linearGradient id="paint11_linear_1341_2" x1="796.878" y1="538.215" x2="796.878" y2="569.274" gradientUnits="userSpaceOnUse">
<stop stop-color="#F7BF68"/>
<stop offset="0.5" stop-color="#DF6759"/>
<stop offset="1" stop-color="#722479"/>
</linearGradient>
<linearGradient id="paint12_linear_1341_2" x1="827.411" y1="538.146" x2="827.411" y2="625.89" gradientUnits="userSpaceOnUse">
<stop stop-color="#F7BF68"/>
<stop offset="0.5" stop-color="#DF6759"/>
<stop offset="1" stop-color="#722479"/>
</linearGradient>
<linearGradient id="paint13_linear_1341_2" x1="935.033" y1="637.892" x2="935.033" y2="710.846" gradientUnits="userSpaceOnUse">
<stop stop-color="#F7BF68"/>
<stop offset="0.5" stop-color="#DF6759"/>
<stop offset="1" stop-color="#722479"/>
</linearGradient>
<linearGradient id="paint14_linear_1341_2" x1="1036.59" y1="1034.89" x2="1036.59" y2="1081.48" gradientUnits="userSpaceOnUse">
<stop stop-color="#F7BF68"/>
<stop offset="0.5" stop-color="#DF6759"/>
<stop offset="1" stop-color="#722479"/>
</linearGradient>
<linearGradient id="paint15_linear_1341_2" x1="1039.22" y1="1070.85" x2="1039.22" y2="1124.1" gradientUnits="userSpaceOnUse">
<stop stop-color="#F7BF68"/>
<stop offset="0.5" stop-color="#DF6759"/>
<stop offset="1" stop-color="#722479"/>
</linearGradient>
<linearGradient id="paint16_linear_1341_2" x1="1055.49" y1="1078.92" x2="1055.49" y2="1134.49" gradientUnits="userSpaceOnUse">
<stop stop-color="#F7BF68"/>
<stop offset="0.5" stop-color="#DF6759"/>
<stop offset="1" stop-color="#722479"/>
</linearGradient>
<linearGradient id="paint17_linear_1341_2" x1="1072.56" y1="1081.17" x2="1072.56" y2="1128.69" gradientUnits="userSpaceOnUse">
<stop stop-color="#F7BF68"/>
<stop offset="0.5" stop-color="#DF6759"/>
<stop offset="1" stop-color="#722479"/>
</linearGradient>
<linearGradient id="paint18_linear_1341_2" x1="817.672" y1="924.548" x2="817.672" y2="1202.33" gradientUnits="userSpaceOnUse">
<stop stop-color="#F7BF68"/>
<stop offset="0.5" stop-color="#DF6759"/>
<stop offset="1" stop-color="#722479"/>
</linearGradient>
<linearGradient id="paint19_linear_1341_2" x1="1087.15" y1="1031.66" x2="1087.15" y2="1124.84" gradientUnits="userSpaceOnUse">
<stop stop-color="#F7BF68"/>
<stop offset="0.5" stop-color="#DF6759"/>
<stop offset="1" stop-color="#722479"/>
</linearGradient>
<linearGradient id="paint20_linear_1341_2" x1="1074.38" y1="843.118" x2="1074.38" y2="1023.98" gradientUnits="userSpaceOnUse">
<stop stop-color="#F7BF68"/>
<stop offset="0.5" stop-color="#DF6759"/>
<stop offset="1" stop-color="#722479"/>
</linearGradient>
<linearGradient id="paint21_linear_1341_2" x1="1148.29" y1="765.565" x2="1148.29" y2="1053.59" gradientUnits="userSpaceOnUse">
<stop stop-color="#F7BF68"/>
<stop offset="0.5" stop-color="#DF6759"/>
<stop offset="1" stop-color="#722479"/>
</linearGradient>
<linearGradient id="paint22_linear_1341_2" x1="1107.94" y1="767.617" x2="1107.94" y2="834.079" gradientUnits="userSpaceOnUse">
<stop stop-color="#F7BF68"/>
<stop offset="0.5" stop-color="#DF6759"/>
<stop offset="1" stop-color="#722479"/>
</linearGradient>
<linearGradient id="paint23_linear_1341_2" x1="988.878" y1="708.355" x2="988.878" y2="724.38" gradientUnits="userSpaceOnUse">
<stop stop-color="#F7BF68"/>
<stop offset="0.5" stop-color="#DF6759"/>
<stop offset="1" stop-color="#722479"/>
</linearGradient>
<linearGradient id="paint24_linear_1341_2" x1="1207.89" y1="678.577" x2="1207.89" y2="810.992" gradientUnits="userSpaceOnUse">
<stop stop-color="#F7BF68"/>
<stop offset="0.5" stop-color="#DF6759"/>
<stop offset="1" stop-color="#722479"/>
</linearGradient>
<linearGradient id="paint25_linear_1341_2" x1="1221.47" y1="728.502" x2="1221.47" y2="878.518" gradientUnits="userSpaceOnUse">
<stop stop-color="#F7BF68"/>
<stop offset="0.5" stop-color="#DF6759"/>
<stop offset="1" stop-color="#722479"/>
</linearGradient>
<linearGradient id="paint26_linear_1341_2" x1="928.963" y1="928.103" x2="928.963" y2="1219.64" gradientUnits="userSpaceOnUse">
<stop stop-color="#F7BF68"/>
<stop offset="0.5" stop-color="#DF6759"/>
<stop offset="1" stop-color="#722479"/>
</linearGradient>
<linearGradient id="paint27_linear_1341_2" x1="987.819" y1="1044.5" x2="987.819" y2="1086.7" gradientUnits="userSpaceOnUse">
<stop stop-color="#F7BF68"/>
<stop offset="0.5" stop-color="#DF6759"/>
<stop offset="1" stop-color="#722479"/>
</linearGradient>
<linearGradient id="paint28_linear_1341_2" x1="1032.93" y1="969.577" x2="1032.93" y2="1062.98" gradientUnits="userSpaceOnUse">
<stop stop-color="#F7BF68"/>
<stop offset="0.5" stop-color="#DF6759"/>
<stop offset="1" stop-color="#722479"/>
</linearGradient>
<linearGradient id="paint29_linear_1341_2" x1="990.812" y1="874.629" x2="990.812" y2="971.111" gradientUnits="userSpaceOnUse">
<stop stop-color="#F7BF68"/>
<stop offset="0.5" stop-color="#DF6759"/>
<stop offset="1" stop-color="#722479"/>
</linearGradient>
<linearGradient id="paint30_linear_1341_2" x1="893.581" y1="840.487" x2="893.581" y2="849.957" gradientUnits="userSpaceOnUse">
<stop stop-color="#F7BF68"/>
<stop offset="0.5" stop-color="#DF6759"/>
<stop offset="1" stop-color="#722479"/>
</linearGradient>
<linearGradient id="paint31_linear_1341_2" x1="975.15" y1="894.344" x2="975.15" y2="979.833" gradientUnits="userSpaceOnUse">
<stop stop-color="#F7BF68"/>
<stop offset="0.5" stop-color="#DF6759"/>
<stop offset="1" stop-color="#722479"/>
</linearGradient>
<linearGradient id="paint32_linear_1341_2" x1="883.537" y1="856.015" x2="883.537" y2="866.821" gradientUnits="userSpaceOnUse">
<stop stop-color="#F7BF68"/>
<stop offset="0.5" stop-color="#DF6759"/>
<stop offset="1" stop-color="#722479"/>
</linearGradient>
<linearGradient id="paint33_linear_1341_2" x1="714.536" y1="978.766" x2="714.536" y2="1071.76" gradientUnits="userSpaceOnUse">
<stop stop-color="#F7BF68"/>
<stop offset="0.5" stop-color="#DF6759"/>
<stop offset="1" stop-color="#722479"/>
</linearGradient>
<linearGradient id="paint34_linear_1341_2" x1="770.561" y1="791.506" x2="770.561" y2="1008.15" gradientUnits="userSpaceOnUse">
<stop stop-color="#F7BF68"/>
<stop offset="0.5" stop-color="#DF6759"/>
<stop offset="1" stop-color="#722479"/>
</linearGradient>
<linearGradient id="paint35_linear_1341_2" x1="606.798" y1="1003.99" x2="606.798" y2="1112.62" gradientUnits="userSpaceOnUse">
<stop stop-color="#F7BF68"/>
<stop offset="0.5" stop-color="#DF6759"/>
<stop offset="1" stop-color="#722479"/>
</linearGradient>
<linearGradient id="paint36_linear_1341_2" x1="784.704" y1="1204.67" x2="784.704" y2="1274.01" gradientUnits="userSpaceOnUse">
<stop stop-color="#F7BF68"/>
<stop offset="0.5" stop-color="#DF6759"/>
<stop offset="1" stop-color="#722479"/>
</linearGradient>
<linearGradient id="paint37_linear_1341_2" x1="778.759" y1="1257.69" x2="778.759" y2="1295.07" gradientUnits="userSpaceOnUse">
<stop stop-color="#F7BF68"/>
<stop offset="0.5" stop-color="#DF6759"/>
<stop offset="1" stop-color="#722479"/>
</linearGradient>
<linearGradient id="paint38_linear_1341_2" x1="582.182" y1="1019.55" x2="582.182" y2="1125.31" gradientUnits="userSpaceOnUse">
<stop stop-color="#F7BF68"/>
<stop offset="0.5" stop-color="#DF6759"/>
<stop offset="1" stop-color="#722479"/>
</linearGradient>
<linearGradient id="paint39_linear_1341_2" x1="751" y1="207.869" x2="865.977" y2="1549.96" gradientUnits="userSpaceOnUse">
<stop stop-color="#F7BF68"/>
<stop offset="0.652677" stop-color="#DF6759"/>
<stop offset="0.969821" stop-color="#722479"/>
</linearGradient>
</defs>
</svg>
