<svg width="74" height="74" viewBox="0 0 74 74" fill="none" xmlns="http://www.w3.org/2000/svg">
<path d="M21.5835 15.4163H52.4168V21.583H58.5835V9.24967C58.5835 5.85801 55.8085 3.11384 52.4168 3.11384L21.5835 3.08301C18.1918 3.08301 15.4168 5.85801 15.4168 9.24967V21.583H21.5835V15.4163ZM47.5143 51.1522L61.6668 36.9997L47.5143 22.8472L43.1668 27.2255L52.941 36.9997L43.1668 46.7738L47.5143 51.1522ZM30.8335 46.7738L21.0593 36.9997L30.8335 27.2255L26.486 22.8472L12.3335 36.9997L26.486 51.1522L30.8335 46.7738ZM52.4168 58.583H21.5835V52.4163H15.4168V64.7497C15.4168 68.1413 18.1918 70.9163 21.5835 70.9163H52.4168C55.8085 70.9163 58.5835 68.1413 58.5835 64.7497V52.4163H52.4168V58.583Z" fill="url(#paint0_linear_590_114)"/>
<defs>
<linearGradient id="paint0_linear_590_114" x1="37.0002" y1="3.08301" x2="37.0002" y2="70.9163" gradientUnits="userSpaceOnUse">
<stop stop-color="#F7BF68"/>
<stop offset="0.5" stop-color="#DF6759"/>
<stop offset="1" stop-color="#722479"/>
</linearGradient>
</defs>
</svg>
