<svg width="75" height="75" viewBox="0 0 75 75" fill="none" xmlns="http://www.w3.org/2000/svg">
<path d="M9.37492 25.7813C9.37458 23.0619 10.0502 20.3851 11.341 17.9917C12.6318 15.5982 14.4973 13.5631 16.7697 12.0694C19.0421 10.5758 21.6501 9.6704 24.3593 9.43472C27.0684 9.19904 29.7936 9.64046 32.2898 10.7193C34.786 11.7981 36.9749 13.4804 38.6596 15.6151C40.3443 17.7497 41.472 20.2696 41.9413 22.9481C42.4106 25.6267 42.2067 28.3799 41.3479 30.9601C40.4892 33.5403 39.0026 35.8666 37.0218 37.7297C40.7568 39.5422 43.9997 42.2286 46.4755 45.5611C48.9513 48.8937 50.5869 52.7742 51.2437 56.8734C51.316 57.3296 51.2978 57.7955 51.19 58.2446C51.0823 58.6937 50.8872 59.1172 50.6158 59.4909C50.3444 59.8645 50.002 60.1811 49.6083 60.4225C49.2146 60.6639 48.7772 60.8253 48.321 60.8977C47.8649 60.97 47.399 60.9518 46.9499 60.844C46.5008 60.7363 46.0773 60.5412 45.7036 60.2698C45.3299 59.9984 45.0133 59.656 44.772 59.2623C44.5306 58.8686 44.3691 58.4311 44.2968 57.975C43.5937 53.5702 41.3433 49.5603 37.9498 46.6655C34.5562 43.7706 30.2417 42.1804 25.7812 42.1804C21.3206 42.1804 17.0061 43.7706 13.6126 46.6655C10.219 49.5603 7.96861 53.5702 7.26554 57.975C7.1929 58.4311 7.03114 58.8685 6.78947 59.2621C6.54781 59.6557 6.23098 59.9979 5.85708 60.2691C5.48318 60.5403 5.05953 60.7351 4.61031 60.8426C4.1611 60.95 3.69512 60.968 3.23898 60.8953C2.78284 60.8227 2.34548 60.6609 1.95186 60.4192C1.55824 60.1776 1.21607 59.8608 0.944896 59.4869C0.673719 59.113 0.478844 58.6893 0.371396 58.2401C0.263947 57.7909 0.24603 57.3249 0.318668 56.8688C0.976487 52.771 2.61261 48.8923 5.08835 45.5614C7.56408 42.2305 10.8064 39.5456 14.5405 37.7344C12.9078 36.2012 11.6069 34.3494 10.7184 32.2934C9.82985 30.2374 9.37261 28.021 9.37492 25.7813ZM51.5624 18.75C54.2859 18.7519 56.9503 19.5444 59.2322 21.0312C61.514 22.518 63.3152 24.6352 64.4171 27.1259C65.5189 29.6165 65.8741 32.3735 65.4395 35.062C65.0049 37.7506 63.7992 40.2553 61.9687 42.2719C64.8219 43.6884 67.357 45.6705 69.42 48.0977C71.483 50.5249 73.0306 53.3464 73.9687 56.3906C74.1545 56.9816 74.1806 57.6112 74.0444 58.2155C73.9083 58.8198 73.6146 59.3774 73.1933 59.8315C72.772 60.2857 72.2381 60.6203 71.6456 60.8013C71.0532 60.9824 70.4234 61.0035 69.8202 60.8625C69.2175 60.7221 68.6624 60.4256 68.2107 60.0026C67.7589 59.5797 67.4265 59.0453 67.2468 58.4531C66.4067 55.7354 64.8757 53.2821 62.8036 51.3332C60.7314 49.3843 58.189 48.0065 55.4249 47.3344C54.6573 47.1491 53.9744 46.7107 53.4863 46.09C52.9982 45.4692 52.7333 44.7022 52.7343 43.9125V42.2625C52.7339 41.608 52.9162 40.9663 53.2607 40.4098C53.6052 39.8533 54.0983 39.404 54.6843 39.1125C56.1054 38.4082 57.2466 37.2442 57.9226 35.8095C58.5986 34.3747 58.7697 32.7536 58.4081 31.2093C58.0465 29.6651 57.1734 28.2885 55.9306 27.3031C54.6878 26.3176 53.1484 25.7813 51.5624 25.7813C50.63 25.7813 49.7358 25.4109 49.0765 24.7516C48.4172 24.0922 48.0468 23.198 48.0468 22.2656C48.0468 21.3332 48.4172 20.439 49.0765 19.7797C49.7358 19.1204 50.63 18.75 51.5624 18.75ZM25.7812 16.4063C24.5327 16.378 23.2912 16.5995 22.1295 17.0577C20.9678 17.5159 19.9094 18.2015 19.0163 19.0744C18.1232 19.9473 17.4136 20.9898 16.9289 22.1407C16.4443 23.2916 16.1945 24.5277 16.1942 25.7765C16.1939 27.0253 16.4431 28.2616 16.9271 29.4127C17.4112 30.5639 18.1203 31.6067 19.0129 32.48C19.9056 33.3534 20.9637 34.0396 22.1251 34.4983C23.2866 34.9571 24.528 35.1792 25.7765 35.1516C28.226 35.0974 30.557 34.0865 32.2704 32.3351C33.9839 30.5838 34.9436 28.2313 34.9442 25.7812C34.9448 23.3311 33.9863 20.9781 32.2737 19.2259C30.5611 17.4738 28.2306 16.4616 25.7812 16.4063Z" fill="white"/>
</svg>
