<svg width="76" height="75" viewBox="0 0 76 75" fill="none" xmlns="http://www.w3.org/2000/svg">
<g clip-path="url(#clip0_565_1522)">
<path d="M9.87498 25.7813C9.87464 23.062 10.5503 20.3852 11.8411 17.9917C13.1319 15.5982 14.9973 13.5632 17.2698 12.0695C19.5422 10.5759 22.1502 9.67047 24.8593 9.43478C27.5684 9.1991 30.2937 9.64052 32.7899 10.7193C35.2861 11.7981 37.475 13.4805 39.1597 15.6151C40.8444 17.7497 41.9721 20.2696 42.4414 22.9482C42.9106 25.6267 42.7067 28.3799 41.848 30.9601C40.9893 33.5403 39.5026 35.8666 37.5219 37.7298C41.2569 39.5422 44.4998 42.2286 46.9755 45.5612C49.4513 48.8938 51.0869 52.7742 51.7437 56.8735C51.8161 57.3296 51.7978 57.7956 51.6901 58.2447C51.5824 58.6938 51.3872 59.1172 51.1158 59.4909C50.8444 59.8646 50.5021 60.1812 50.1084 60.4225C49.7146 60.6639 49.2772 60.8254 48.8211 60.8977C48.3649 60.9701 47.899 60.9518 47.4499 60.8441C47.0008 60.7364 46.5773 60.5412 46.2037 60.2698C45.83 59.9984 45.5134 59.6561 45.272 59.2624C45.0306 58.8686 44.8692 58.4312 44.7969 57.9751C44.0938 53.5703 41.8434 49.5604 38.4498 46.6655C35.0562 43.7706 30.7418 42.1804 26.2812 42.1804C21.8207 42.1804 17.5062 43.7706 14.1126 46.6655C10.7191 49.5604 8.46867 53.5703 7.7656 57.9751C7.69297 58.4312 7.5312 58.8686 7.28953 59.2622C7.04787 59.6558 6.73104 59.998 6.35714 60.2692C5.98324 60.5403 5.55959 60.7352 5.11037 60.8427C4.66116 60.9501 4.19518 60.968 3.73904 60.8954C3.2829 60.8227 2.84554 60.661 2.45192 60.4193C2.0583 60.1776 1.71613 59.8608 1.44496 59.4869C1.17378 59.113 0.978905 58.6894 0.871457 58.2402C0.764008 57.7909 0.746091 57.325 0.818729 56.8688C1.47655 52.7711 3.11267 48.8924 5.58841 45.5615C8.06415 42.2306 11.3065 39.5457 15.0406 37.7344C13.4078 36.2013 12.1069 34.3495 11.2184 32.2935C10.3299 30.2375 9.87267 28.0211 9.87498 25.7813ZM52.0625 18.7501C54.786 18.752 57.4504 19.5444 59.7322 21.0312C62.0141 22.518 63.8152 24.6353 64.9171 27.1259C66.019 29.6166 66.3742 32.3735 65.9396 35.0621C65.505 37.7507 64.2992 40.2553 62.4687 42.2719C65.3219 43.6884 67.8571 45.6706 69.9201 48.0978C71.983 50.525 73.5306 53.3465 74.4687 56.3907C74.6545 56.9816 74.6807 57.6112 74.5445 58.2156C74.4083 58.8199 74.1147 59.3774 73.6934 59.8316C73.2721 60.2857 72.7381 60.6203 72.1457 60.8014C71.5533 60.9825 70.9235 61.0036 70.3203 60.8626C69.7176 60.7222 69.1625 60.4256 68.7107 60.0027C68.259 59.5798 67.9266 59.0453 67.7468 58.4532C66.9068 55.7354 65.3758 53.2822 63.3036 51.3333C61.2315 49.3844 58.6891 48.0065 55.925 47.3344C55.1574 47.1491 54.4745 46.7108 53.9864 46.09C53.4983 45.4693 53.2334 44.7022 53.2344 43.9126V42.2626C53.2339 41.608 53.4163 40.9664 53.7608 40.4099C54.1053 39.8534 54.5983 39.4041 55.1844 39.1126C56.6054 38.4083 57.7467 37.2442 58.4227 35.8095C59.0987 34.3748 59.2698 32.7536 58.9081 31.2094C58.5465 29.6651 57.6734 28.2885 56.4307 27.3031C55.1879 26.3177 53.6485 25.7814 52.0625 25.7813C51.1301 25.7813 50.2359 25.4109 49.5766 24.7516C48.9173 24.0923 48.5469 23.1981 48.5469 22.2657C48.5469 21.3333 48.9173 20.4391 49.5766 19.7798C50.2359 19.1205 51.1301 18.7501 52.0625 18.7501ZM26.2812 16.4063C25.0328 16.3781 23.7912 16.5996 22.6296 17.0577C21.4679 17.5159 20.4094 18.2016 19.5164 19.0745C18.6233 19.9473 17.9136 20.9898 17.429 22.1407C16.9444 23.2917 16.6946 24.5278 16.6943 25.7766C16.694 27.0254 16.9431 28.2616 17.4272 29.4128C17.9112 30.5639 18.6204 31.6068 19.513 32.4801C20.4056 33.3534 21.4637 34.0396 22.6252 34.4984C23.7867 34.9571 25.0281 35.1792 26.2765 35.1516C28.726 35.0975 31.057 34.0865 32.7705 32.3352C34.4839 30.5839 35.4437 28.2314 35.4443 25.7813C35.4449 23.3312 34.4863 20.9782 32.7737 19.226C31.0612 17.4738 28.7307 16.4617 26.2812 16.4063Z" fill="url(#paint0_linear_565_1522)"/>
</g>
<defs>
<linearGradient id="paint0_linear_565_1522" x1="37.7027" y1="9.37305" x2="37.7027" y2="60.9547" gradientUnits="userSpaceOnUse">
<stop stop-color="#F7BF68"/>
<stop offset="0.5" stop-color="#DF6759"/>
<stop offset="1" stop-color="#722479"/>
</linearGradient>
<clipPath id="clip0_565_1522">
<rect width="75" height="75" fill="white" transform="translate(0.5)"/>
</clipPath>
</defs>
</svg>
