<svg width="74" height="74" viewBox="0 0 74 74" fill="none" xmlns="http://www.w3.org/2000/svg">
<path d="M21.5833 15.4163H52.4166V21.583H58.5833V9.24967C58.5833 5.85801 55.8083 3.11384 52.4166 3.11384L21.5833 3.08301C18.1916 3.08301 15.4166 5.85801 15.4166 9.24967V21.583H21.5833V15.4163ZM47.5141 51.1522L61.6666 36.9997L47.5141 22.8472L43.1666 27.2255L52.9408 36.9997L43.1666 46.7738L47.5141 51.1522ZM30.8333 46.7738L21.0591 36.9997L30.8333 27.2255L26.4858 22.8472L12.3333 36.9997L26.4858 51.1522L30.8333 46.7738ZM52.4166 58.583H21.5833V52.4163H15.4166V64.7497C15.4166 68.1413 18.1916 70.9163 21.5833 70.9163H52.4166C55.8083 70.9163 58.5833 68.1413 58.5833 64.7497V52.4163H52.4166V58.583Z" fill="url(#paint0_linear_565_1505)"/>
<defs>
<linearGradient id="paint0_linear_565_1505" x1="37" y1="3.08301" x2="37" y2="70.9163" gradientUnits="userSpaceOnUse">
<stop stop-color="#F7BF68"/>
<stop offset="0.5" stop-color="#DF6759"/>
<stop offset="1" stop-color="#722479"/>
</linearGradient>
</defs>
</svg>
