<svg width="75" height="75" viewBox="0 0 75 75" fill="none" xmlns="http://www.w3.org/2000/svg">
<g clip-path="url(#clip0_876_948)">
<path d="M51.5625 4.6875C52.8057 4.6875 53.998 5.18136 54.8771 6.06044C55.7561 6.93951 56.25 8.1318 56.25 9.375V65.625C56.25 66.8682 55.7561 68.0605 54.8771 68.9396C53.998 69.8186 52.8057 70.3125 51.5625 70.3125H23.4375C22.1943 70.3125 21.002 69.8186 20.1229 68.9396C19.2439 68.0605 18.75 66.8682 18.75 65.625V9.375C18.75 8.1318 19.2439 6.93951 20.1229 6.06044C21.002 5.18136 22.1943 4.6875 23.4375 4.6875H51.5625ZM23.4375 0C20.9511 0 18.5665 0.987721 16.8084 2.74587C15.0502 4.50403 14.0625 6.8886 14.0625 9.375V65.625C14.0625 68.1114 15.0502 70.496 16.8084 72.2541C18.5665 74.0123 20.9511 75 23.4375 75H51.5625C54.0489 75 56.4335 74.0123 58.1916 72.2541C59.9498 70.496 60.9375 68.1114 60.9375 65.625V9.375C60.9375 6.8886 59.9498 4.50403 58.1916 2.74587C56.4335 0.987721 54.0489 0 51.5625 0L23.4375 0Z" fill="white"/>
<path d="M37.5 65.625C38.7432 65.625 39.9355 65.1311 40.8146 64.2521C41.6936 63.373 42.1875 62.1807 42.1875 60.9375C42.1875 59.6943 41.6936 58.502 40.8146 57.6229C39.9355 56.7439 38.7432 56.25 37.5 56.25C36.2568 56.25 35.0645 56.7439 34.1854 57.6229C33.3064 58.502 32.8125 59.6943 32.8125 60.9375C32.8125 62.1807 33.3064 63.373 34.1854 64.2521C35.0645 65.1311 36.2568 65.625 37.5 65.625Z" fill="white"/>
</g>
<defs>
<clipPath id="clip0_876_948">
<rect width="75" height="75" fill="white"/>
</clipPath>
</defs>
</svg>
