<svg width="75" height="75" viewBox="0 0 75 75" fill="none" xmlns="http://www.w3.org/2000/svg">
<path fill-rule="evenodd" clip-rule="evenodd" d="M54.3938 3.90625H56.7719C59.4969 3.90625 61.7719 3.90625 63.5844 4.15C65.4906 4.40625 67.2281 4.96875 68.625 6.3625C70.025 7.75625 70.5938 9.49062 70.85 11.4C71.0938 13.2063 71.0938 15.475 71.0938 18.1906V20.5656C71.0938 23.8469 71.0938 26.15 70.2188 28.2562C69.3438 30.3625 67.7125 31.9906 65.3844 34.3094L65.0719 34.6219L56.7281 42.9406L57.0188 43.3875C58.25 45.2875 59.2469 46.825 59.9656 48.1531C60.7094 49.5281 61.2406 50.8187 61.4531 52.2469C61.7869 54.555 61.4844 56.9105 60.5781 59.0594C60.2438 59.8656 59.6656 60.7062 59.0719 61.4719C58.4469 62.2781 57.6844 63.1531 56.8656 64.0437C55.1315 65.8999 53.3582 67.719 51.5469 69.5L51.2625 69.7812C49.0125 72.025 45.1125 71.3 43.9125 68.2906C43.2031 66.5031 42.9125 65.7906 42.5531 65.1344C42.2186 64.5261 41.835 63.946 41.4063 63.4C40.95 62.8156 40.4188 62.275 39.0938 60.9594L37.5156 59.575C37.4944 59.5556 37.4736 59.5358 37.4531 59.5156C37.1578 59.5535 36.8603 59.5723 36.5625 59.5719C34.5875 59.5719 32.9594 58.75 31.425 57.5813C29.975 56.4781 28.3625 54.8719 26.4375 52.9531L21.9156 48.4437C19.9906 46.525 18.3813 44.9188 17.2719 43.4719C16.1031 41.9406 15.2719 40.3156 15.2719 38.3406C15.2719 37.9844 15.3031 37.6344 15.3531 37.2875L12.7594 34.7031C11.4454 33.35 9.84914 32.3033 8.08438 31.6375L6.9 31.1688C6.16858 30.8807 5.52047 30.4149 5.01422 29.8135C4.50797 29.2121 4.15954 28.4941 4.00043 27.7243C3.84131 26.9544 3.87652 26.1571 4.10288 25.4043C4.32923 24.6515 4.73959 23.9669 5.29688 23.4125L5.31875 23.3906C7.10613 21.5856 8.93047 19.8175 10.7906 18.0875C11.6875 17.2719 12.5656 16.5125 13.3688 15.8906C14.1406 15.2969 14.9844 14.7188 15.7875 14.3875C17.942 13.4857 20.3008 13.1855 22.6125 13.5188C24.0406 13.7281 25.3313 14.2563 26.7094 15C28.0406 15.7188 29.5844 16.7094 31.4906 17.9375L31.9531 18.2344L40.3031 9.90625L40.6156 9.59688C42.9406 7.275 44.5719 5.64688 46.6844 4.775C48.7938 3.90313 51.1 3.90625 54.3938 3.90625ZM28.5531 21.6219C26.8031 20.4969 25.5438 19.6969 24.4875 19.125C23.3625 18.5219 22.6125 18.2562 21.925 18.1562C20.4531 17.9464 18.9519 18.1397 17.5813 18.7156C17.1003 18.9615 16.6477 19.2591 16.2313 19.6031C15.5688 20.1125 14.7969 20.7781 13.95 21.55C12.1326 23.2394 10.351 24.9669 8.60625 26.7312L8.59375 26.75V26.7719L8.60313 26.7969L8.62813 26.8094L9.825 27.2844L10.225 27.4437C12.2799 28.2907 14.1549 29.5209 15.75 31.0688C15.8375 31.15 15.9219 31.2344 16.0563 31.3719L17.55 32.8594C17.7531 32.6063 17.9688 32.3531 18.1875 32.1031C19.1938 30.9531 20.4844 29.6656 21.9813 28.175L28.5531 21.6219ZM42.0438 57.3094L42.2969 57.5312L42.4594 57.6937C43.6781 58.9125 44.4375 59.6625 45.0969 60.5062C45.6812 61.2549 46.2048 62.0491 46.6625 62.8812C47.1625 63.7906 47.55 64.75 48.1531 66.2656L48.2156 66.2031C49.9851 64.4637 51.7178 62.6873 53.4125 60.875C54.1875 60.0312 54.8562 59.2594 55.3656 58.6C55.7115 58.1866 56.0103 57.7359 56.2563 57.2563C56.8328 55.8934 57.0262 54.3991 56.8156 52.9344C56.7156 52.2531 56.45 51.5063 55.8469 50.3875C55.2719 49.3313 54.4688 48.075 53.3344 46.325L46.7438 52.8938C45.2125 54.4188 43.8938 55.7344 42.7219 56.7469C42.4994 56.9386 42.2733 57.1261 42.0438 57.3094ZM54.8344 8.59375C50.9219 8.59375 49.6156 8.63438 48.4719 9.10625C47.3313 9.57812 46.3781 10.4687 43.6125 13.2281L25.3406 31.4438C23.7844 32.9969 22.6031 34.175 21.7156 35.1938C20.8188 36.2094 20.3625 36.9094 20.1406 37.4594C20.0225 37.7382 19.9609 38.0378 19.9594 38.3406C19.9594 38.8719 20.1438 39.5094 20.9969 40.6219C21.8875 41.7906 23.2719 43.175 25.3406 45.2406L25.8313 45.7281L30.6125 40.9594C31.053 40.5201 31.65 40.2738 32.2721 40.2747C32.8942 40.2756 33.4904 40.5236 33.9297 40.9641C34.369 41.4046 34.6152 42.0015 34.6144 42.6236C34.6135 43.2457 34.3655 43.842 33.925 44.2812L29.1531 49.0375L29.6313 49.5187C31.7031 51.5812 33.0906 52.9594 34.2625 53.85C35.3813 54.7 36.0219 54.8844 36.5625 54.8844C36.8402 54.8842 37.1156 54.8334 37.375 54.7344C37.9219 54.5344 38.6188 54.0969 39.6563 53.2031C40.6875 52.3094 41.8938 51.1094 43.4906 49.5156L61.7625 31.3031C64.5281 28.5438 65.4187 27.5969 65.8906 26.4594C66.3625 25.3219 66.4062 24.0281 66.4062 20.125V18.3531C66.4062 15.4344 66.4 13.4781 66.2031 12.025C66.0156 10.6406 65.6969 10.0594 65.3156 9.68125C64.9375 9.30313 64.3531 8.98125 62.9594 8.79375C61.4969 8.6 59.5375 8.59375 56.6094 8.59375H54.8344ZM52.0719 22.8875C51.3715 22.1908 50.4238 21.7997 49.4359 21.7997C48.4481 21.7997 47.5004 22.1908 46.8 22.8875C46.4549 23.2307 46.1811 23.6388 45.9943 24.0882C45.8074 24.5376 45.7112 25.0195 45.7112 25.5062C45.7112 25.993 45.8074 26.4749 45.9943 26.9243C46.1811 27.3737 46.4549 27.7818 46.8 28.125C47.5004 28.8217 48.4481 29.2128 49.4359 29.2128C50.4238 29.2128 51.3715 28.8217 52.0719 28.125C52.4169 27.7818 52.6908 27.3737 52.8776 26.9243C53.0645 26.4749 53.1606 25.993 53.1606 25.5062C53.1606 25.0195 53.0645 24.5376 52.8776 24.0882C52.6908 23.6388 52.4169 23.2307 52.0719 22.8875ZM43.4906 19.5625C45.0698 17.9889 47.2082 17.1054 49.4375 17.1054C51.6668 17.1054 53.8052 17.9889 55.3844 19.5625C56.1664 20.3412 56.787 21.2668 57.2104 22.2859C57.6339 23.3051 57.8518 24.3979 57.8518 25.5016C57.8518 26.6052 57.6339 27.698 57.2104 28.7172C56.787 29.7364 56.1664 30.6619 55.3844 31.4406C53.8052 33.0142 51.6668 33.8978 49.4375 33.8978C47.2082 33.8978 45.0698 33.0142 43.4906 31.4406C42.709 30.6619 42.0889 29.7366 41.6657 28.7177C41.2426 27.6988 41.0247 26.6064 41.0247 25.5031C41.0247 24.3998 41.2426 23.3074 41.6657 22.2885C42.0889 21.2696 42.709 20.3412 43.4906 19.5625Z" fill="url(#paint0_linear_565_1510)"/>
<defs>
<linearGradient id="paint0_linear_565_1510" x1="37.4981" y1="3.90625" x2="37.4981" y2="71.0927" gradientUnits="userSpaceOnUse">
<stop stop-color="#F7BF68"/>
<stop offset="0.5" stop-color="#DF6759"/>
<stop offset="1" stop-color="#722479"/>
</linearGradient>
</defs>
</svg>
