<svg width="75" height="75" viewBox="0 0 75 75" fill="none" xmlns="http://www.w3.org/2000/svg">
<path fill-rule="evenodd" clip-rule="evenodd" d="M54.3936 3.90625H56.7717C59.4967 3.90625 61.7717 3.90625 63.5842 4.15C65.4905 4.40625 67.228 4.96875 68.6248 6.3625C70.0248 7.75625 70.5936 9.49062 70.8499 11.4C71.0936 13.2063 71.0936 15.475 71.0936 18.1906V20.5656C71.0936 23.8469 71.0936 26.15 70.2186 28.2562C69.3436 30.3625 67.7123 31.9906 65.3842 34.3094L65.0717 34.6219L56.728 42.9406L57.0186 43.3875C58.2499 45.2875 59.2467 46.825 59.9655 48.1531C60.7092 49.5281 61.2405 50.8187 61.453 52.2469C61.7868 54.555 61.4842 56.9105 60.578 59.0594C60.2436 59.8656 59.6655 60.7062 59.0717 61.4719C58.4467 62.2781 57.6842 63.1531 56.8655 64.0437C55.1313 65.8999 53.358 67.719 51.5467 69.5L51.2623 69.7812C49.0123 72.025 45.1124 71.3 43.9124 68.2906C43.203 66.5031 42.9123 65.7906 42.553 65.1344C42.2184 64.5261 41.8348 63.946 41.4061 63.4C40.9499 62.8156 40.4186 62.275 39.0936 60.9594L37.5155 59.575C37.4943 59.5556 37.4734 59.5358 37.453 59.5156C37.1576 59.5535 36.8601 59.5723 36.5624 59.5719C34.5874 59.5719 32.9592 58.75 31.4249 57.5813C29.9749 56.4781 28.3624 54.8719 26.4374 52.9531L21.9155 48.4437C19.9905 46.525 18.3811 44.9188 17.2717 43.4719C16.103 41.9406 15.2717 40.3156 15.2717 38.3406C15.2717 37.9844 15.303 37.6344 15.353 37.2875L12.7592 34.7031C11.4452 33.35 9.84898 32.3033 8.08423 31.6375L6.89985 31.1688C6.16843 30.8807 5.52031 30.4149 5.01406 29.8135C4.50782 29.2121 4.15939 28.4941 4.00028 27.7243C3.84116 26.9544 3.87637 26.1571 4.10272 25.4043C4.32908 24.6515 4.73944 23.9669 5.29673 23.4125L5.3186 23.3906C7.10598 21.5856 8.93032 19.8175 10.7905 18.0875C11.6874 17.2719 12.5655 16.5125 13.3686 15.8906C14.1405 15.2969 14.9842 14.7188 15.7874 14.3875C17.9418 13.4857 20.3007 13.1855 22.6124 13.5188C24.0405 13.7281 25.3311 14.2563 26.7092 15C28.0405 15.7188 29.5842 16.7094 31.4905 17.9375L31.953 18.2344L40.303 9.90625L40.6155 9.59688C42.9405 7.275 44.5717 5.64688 46.6842 4.775C48.7936 3.90313 51.0998 3.90625 54.3936 3.90625ZM28.553 21.6219C26.803 20.4969 25.5436 19.6969 24.4874 19.125C23.3624 18.5219 22.6124 18.2562 21.9249 18.1562C20.453 17.9464 18.9518 18.1397 17.5811 18.7156C17.1002 18.9615 16.6475 19.2591 16.2311 19.6031C15.5686 20.1125 14.7967 20.7781 13.9499 21.55C12.1325 23.2394 10.3508 24.9669 8.6061 26.7312L8.5936 26.75V26.7719L8.60298 26.7969L8.62798 26.8094L9.82485 27.2844L10.2249 27.4437C12.2798 28.2907 14.1548 29.5209 15.7499 31.0688C15.8373 31.15 15.9217 31.2344 16.0561 31.3719L17.5499 32.8594C17.753 32.6063 17.9686 32.3531 18.1874 32.1031C19.1936 30.9531 20.4842 29.6656 21.9811 28.175L28.553 21.6219ZM42.0436 57.3094L42.2967 57.5312L42.4592 57.6937C43.678 58.9125 44.4374 59.6625 45.0967 60.5062C45.6811 61.2549 46.2046 62.0491 46.6624 62.8812C47.1624 63.7906 47.5499 64.75 48.153 66.2656L48.2155 66.2031C49.985 64.4637 51.7176 62.6873 53.4123 60.875C54.1873 60.0312 54.8561 59.2594 55.3655 58.6C55.7114 58.1866 56.0101 57.7359 56.2561 57.2563C56.8326 55.8934 57.026 54.3991 56.8155 52.9344C56.7155 52.2531 56.4498 51.5063 55.8467 50.3875C55.2717 49.3313 54.4686 48.075 53.3342 46.325L46.7436 52.8938C45.2124 54.4188 43.8936 55.7344 42.7217 56.7469C42.4992 56.9386 42.2731 57.1261 42.0436 57.3094ZM54.8342 8.59375C50.9217 8.59375 49.6155 8.63438 48.4717 9.10625C47.3311 9.57812 46.378 10.4687 43.6124 13.2281L25.3405 31.4438C23.7842 32.9969 22.603 34.175 21.7155 35.1938C20.8186 36.2094 20.3624 36.9094 20.1405 37.4594C20.0223 37.7382 19.9607 38.0378 19.9592 38.3406C19.9592 38.8719 20.1436 39.5094 20.9967 40.6219C21.8874 41.7906 23.2717 43.175 25.3405 45.2406L25.8311 45.7281L30.6124 40.9594C31.0529 40.5201 31.6498 40.2738 32.2719 40.2747C32.894 40.2756 33.4903 40.5236 33.9295 40.9641C34.3688 41.4046 34.6151 42.0015 34.6142 42.6236C34.6133 43.2457 34.3654 43.842 33.9249 44.2812L29.153 49.0375L29.6311 49.5187C31.703 51.5812 33.0905 52.9594 34.2624 53.85C35.3811 54.7 36.0217 54.8844 36.5624 54.8844C36.8401 54.8842 37.1154 54.8334 37.3749 54.7344C37.9217 54.5344 38.6186 54.0969 39.6561 53.2031C40.6874 52.3094 41.8936 51.1094 43.4905 49.5156L61.7623 31.3031C64.528 28.5438 65.4186 27.5969 65.8905 26.4594C66.3623 25.3219 66.4061 24.0281 66.4061 20.125V18.3531C66.4061 15.4344 66.3998 13.4781 66.203 12.025C66.0155 10.6406 65.6967 10.0594 65.3155 9.68125C64.9373 9.30313 64.353 8.98125 62.9592 8.79375C61.4967 8.6 59.5373 8.59375 56.6092 8.59375H54.8342ZM52.0717 22.8875C51.3714 22.1908 50.4237 21.7997 49.4358 21.7997C48.4479 21.7997 47.5002 22.1908 46.7999 22.8875C46.4548 23.2307 46.181 23.6388 45.9941 24.0882C45.8073 24.5376 45.7111 25.0195 45.7111 25.5062C45.7111 25.993 45.8073 26.4749 45.9941 26.9243C46.181 27.3737 46.4548 27.7818 46.7999 28.125C47.5002 28.8217 48.4479 29.2128 49.4358 29.2128C50.4237 29.2128 51.3714 28.8217 52.0717 28.125C52.4168 27.7818 52.6906 27.3737 52.8775 26.9243C53.0643 26.4749 53.1605 25.993 53.1605 25.5062C53.1605 25.0195 53.0643 24.5376 52.8775 24.0882C52.6906 23.6388 52.4168 23.2307 52.0717 22.8875ZM43.4905 19.5625C45.0696 17.9889 47.208 17.1054 49.4374 17.1054C51.6667 17.1054 53.8051 17.9889 55.3842 19.5625C56.1663 20.3412 56.7868 21.2668 57.2103 22.2859C57.6337 23.3051 57.8517 24.3979 57.8517 25.5016C57.8517 26.6052 57.6337 27.698 57.2103 28.7172C56.7868 29.7364 56.1663 30.6619 55.3842 31.4406C53.8051 33.0142 51.6667 33.8978 49.4374 33.8978C47.208 33.8978 45.0696 33.0142 43.4905 31.4406C42.7089 30.6619 42.0887 29.7366 41.6656 28.7177C41.2424 27.6988 41.0246 26.6064 41.0246 25.5031C41.0246 24.3998 41.2424 23.3074 41.6656 22.2885C42.0887 21.2696 42.7089 20.3412 43.4905 19.5625Z" fill="white"/>
</svg>
