<?xml version="1.0" encoding="iso-8859-1"?>
<!-- Uploaded to: SVG Repo, www.svgrepo.com, Generator: SVG Repo Mixer Tools -->
<svg height="800px" width="800px" version="1.1" id="Layer_1" xmlns="http://www.w3.org/2000/svg" xmlns:xlink="http://www.w3.org/1999/xlink" 
	 viewBox="0 0 512 512" xml:space="preserve">
<path style="fill:#F9A926;" d="M389.566,111.304c-9.217,0-16.696-7.473-16.696-16.696V61.217c0-9.223,7.479-16.696,16.696-16.696
	s16.696,7.473,16.696,16.696v33.391C406.261,103.831,398.783,111.304,389.566,111.304z"/>
<path style="fill:#FFC033;" d="M22.261,311.652c-9.217,0-16.696-7.479-16.696-16.696v-33.391c0-27.619,22.468-50.087,50.087-50.087
	h33.391c9.217,0,16.696,7.479,16.696,16.696s-7.479,16.696-16.696,16.696H55.653c-9.206,0-16.696,7.49-16.696,16.696v33.391
	C38.957,304.174,31.478,311.652,22.261,311.652z"/>
<g>
	<path style="fill:#736056;" d="M256,244.87c-9.217,0-16.696-7.479-16.696-16.696V83.478c0-9.223,7.479-16.696,16.696-16.696
		c9.217,0,16.696,7.473,16.696,16.696v144.696C272.696,237.391,265.218,244.87,256,244.87z"/>
	<path style="fill:#736056;" d="M256,512c-9.217,0-16.696-7.479-16.696-16.696V361.739c0-9.217,7.479-16.696,16.696-16.696
		c9.217,0,16.696,7.479,16.696,16.696v133.565C272.696,504.521,265.218,512,256,512z"/>
</g>
<g>
	<path style="fill:#665247;" d="M272.696,495.304V361.739c0-9.217-7.479-16.696-16.696-16.696V512
		C265.218,512,272.696,504.521,272.696,495.304z"/>
	<path style="fill:#665247;" d="M272.696,228.174V83.478c0-9.223-7.479-16.696-16.696-16.696V244.87
		C265.218,244.87,272.696,237.391,272.696,228.174z"/>
</g>
<path style="fill:#A6673A;" d="M356.174,512H155.827c-9.217,0-16.696-7.479-16.696-16.696c0-9.217,7.479-16.696,16.696-16.696
	h200.348c9.217,0,16.696,7.479,16.696,16.696C372.87,504.521,365.392,512,356.174,512z"/>
<path style="fill:#99522E;" d="M356.174,478.609H256V512h100.174c9.217,0,16.696-7.479,16.696-16.696
	C372.87,486.087,365.392,478.609,356.174,478.609z"/>
<path style="fill:#D7EBFF;" d="M495.054,96.277c-9.576-11.674-23.684-18.364-38.706-18.364h-33.391
	c-64.445,0-116.87,52.429-116.87,116.87v16.696H89.044c-9.217,0-16.696,7.479-16.696,16.696v133.565v19.554
	c-19.435,6.891-33.391,25.456-33.391,47.229v33.391c0,9.217,7.479,16.696,16.696,16.696s16.696-7.479,16.696-16.696v-33.391
	c0-9.206,7.49-16.696,16.696-16.696h33.391c21.772,0,40.337-13.956,47.229-33.391h172.674c6.891,19.435,25.456,33.391,47.229,33.391
	h33.391c9.206,0,16.696,7.49,16.696,16.696v33.391c0,9.217,7.479,16.696,16.696,16.696c9.217,0,16.696-7.479,16.696-16.696v-33.391
	c0-21.737-14-40.096-33.391-47.01V193.316c0-8.402,6.826-15.229,15.229-15.229c24.685,0,45.945-16.869,50.566-40.103
	c0.011,0,0.011-0.006,0.011-0.006C508.403,123.108,504.609,107.907,495.054,96.277z"/>
<path style="fill:#BDDEFF;" d="M456.348,77.913h-33.391c-64.445,0-116.87,52.429-116.87,116.87v16.696H256v166.956h86.337
	c6.891,19.435,25.456,33.391,47.229,33.391h33.391c9.206,0,16.696,7.49,16.696,16.696v33.391c0,9.217,7.479,16.696,16.696,16.696
	c9.217,0,16.696-7.479,16.696-16.696v-33.391c0-21.737-14-40.096-33.391-47.01V193.316c0-8.402,6.826-15.229,15.229-15.229
	c24.685,0,45.945-16.869,50.566-40.103c0.011,0,0.011-0.006,0.011-0.006c2.945-14.869-0.848-30.071-10.403-41.701
	C485.479,84.604,471.37,77.913,456.348,77.913z"/>
<path style="fill:#FFC033;" d="M256,100.174c-27.619,0-50.087-22.468-50.087-50.087S228.381,0,256,0s50.087,22.468,50.087,50.087
	S283.62,100.174,256,100.174z"/>
<path style="fill:#F9A926;" d="M306.087,50.087C306.087,22.468,283.62,0,256,0v100.174
	C283.62,100.174,306.087,77.706,306.087,50.087z"/>
<path style="fill:#E6563A;" d="M139.131,211.478v50.087c0,27.619,22.468,50.087,50.087,50.087H256
	c27.619,0,50.087-22.468,50.087-50.087v-50.087H139.131z"/>
<path style="fill:#D9472B;" d="M256,311.652c27.619,0,50.087-22.468,50.087-50.087v-50.087H256V311.652z"/>
</svg>