<svg xmlns="http://www.w3.org/2000/svg" fill="none" viewBox="0 0 293 56">
  <path fill="#D1D1D1" d="M134.531 33.405c2.423 0 3.933-1.364 3.933-3.142 0-2.645-2.649-3.605-4.938-5.111-3.083-1.834-4.689-3.58-4.689-6.337 0-3.449 2.675-5.92 6.766-5.92 1.946 0 3.864.468 5.595 1.363l-.122 3.58c-2.077-1.137-3.777-1.772-5.189-1.772-2.109 0-3.306 1.047-3.306 2.565 0 2.045 2.566 3.066 4.654 4.43 3.405 2.044 5.163 3.99 5.163 7.1 0 3.896-2.897 6.684-7.678 6.684a13.9 13.9 0 0 1-6.003-1.328l-.337-4.403c2.29 1.489 4.274 2.282 6.162 2.282m-22.064.008c2.422 0 3.93-1.363 3.93-3.141 0-2.645-2.646-3.605-4.936-5.111-3.082-1.834-4.686-3.58-4.686-6.337 0-3.449 2.67-5.92 6.766-5.92 1.947 0 3.867.468 5.599 1.363l-.122 3.58c-2.078-1.137-3.777-1.772-5.186-1.772-2.112 0-3.306 1.047-3.306 2.565 0 2.045 2.562 3.066 4.654 4.43 3.384 2.044 5.157 3.99 5.157 7.1 0 3.896-2.894 6.684-7.673 6.684a13.9 13.9 0 0 1-6.005-1.328l-.337-4.403c2.298 1.489 4.277 2.282 6.162 2.282m42.474-6.64c0 4.332 1.821 6.549 5.371 6.549s5.384-2.255 5.384-6.65V13.67h3.971v13.044c0 6.562-3.536 10.107-9.337 10.107s-9.355-3.958-9.355-10.042v-13.11h3.966zm35.338-6.434c0-3.502-3.78-3.455-6.984-3.455v6.954c2.501 0 6.984.252 6.984-3.499M179.48 13.67h5.159c2.838 0 5.035.184 6.952 1.55a5.9 5.9 0 0 1 2.609 4.769c0 2.945-1.729 5.16-4.872 6.24l7.199 9.84h-4.552l-6.766-9.305h-1.886v9.305h-3.838V13.667m90.014 22.417h-3.931V17.09h-7.515v-3.42h18.927v3.42h-7.481zM85.34 27.141a40 40 0 0 1 3.722-7.916 40.2 40.2 0 0 1 3.75 7.916zm3.864-14.203-.165-.087-.169.087c-5.526 8.27-7.62 12.746-10.961 23.146h3.986c.363-1.363 1.31-4.198 1.78-5.535h10.738c.474 1.34 1.418 4.166 1.775 5.535h3.975c-3.385-10.493-5.535-15.013-10.968-23.146m119.932 14.203a40 40 0 0 1 3.721-7.916 41 41 0 0 1 3.757 7.916zm3.864-14.203-.169-.07-.165.088c-5.532 8.27-7.624 12.746-10.965 23.146h3.975c.363-1.363 1.307-4.198 1.784-5.535h10.752c.473 1.34 1.417 4.166 1.783 5.535h3.972c-3.385-10.494-5.529-15.013-10.964-23.146m22.303 9.192 14.601 14.697.189-.059.058-.184V13.67h-3.774v13.863l-14.601-14.7-.189.056-.061.187v23.008h3.777zm52.38-6.097v1.84q.257.014.514 0c.352.032.703-.035 1.014-.199a.89.89 0 0 0 .261-.749q0-.916-1.176-.913h-.311zm2.179 4.836-1.392-2.364h-.787v2.364h-.785v-5.512h1.404q1.973 0 1.972 1.527a1.53 1.53 0 0 1-1.057 1.498l1.496 2.487zm2.333-2.7c0-2.069-1.665-3.748-3.719-3.75-2.054 0-3.722 1.676-3.724 3.744 0 2.068 1.664 3.747 3.718 3.75a3.72 3.72 0 0 0 2.635-1.097 3.6 3.6 0 0 0 1.09-2.647m-8.158 0c-.003-2.472 1.981-4.48 4.439-4.485 2.455-.003 4.448 1.995 4.454 4.47.002 2.472-1.982 4.479-4.44 4.485a4.43 4.43 0 0 1-3.146-1.308 4.32 4.32 0 0 1-1.307-3.162M20.137 20.852c3.413 5.578 6.542 11.271 10.238 16.563 3.642 5.222 7.875 10.04 11.934 15.166a25.8 25.8 0 0 1-12.484 2.504c-.552-.024-1.185-.574-1.6-1.021a118.7 118.7 0 0 1-16.685-24.57c-.322-.627-.142-1.54-.104-2.315 0-.31.337-.594.41-.91 1.188-4.472 4.133-6.152 8.29-5.42zM47.77.212c1.246 1.048 2.24 1.818 3.16 2.669 5.962 5.488 6.537 7.12 3.336 14.507-2.836 6.544-6.374 12.775-9.352 19.258-1.4 3.066-3.675 3.832-6.6 3.718-1.494-.061-3.045.568-4.294-1.147-2.615-3.566-2.708-3.481-.364-7.255 5.883-9.478 10.572-19.5 13.533-30.301.122-.39.308-.76.578-1.442zM.28 21.985A26.55 26.55 0 0 1 4.04 9.916c.391-.681 1.396-1.173 2.204-1.34a115.6 115.6 0 0 1 29.232-2.14c.816.043 1.69.777 2.368 1.392.677.617 1.09 1.486 1.603 2.255 1.691 2.548 1.523 5.594-.514 7.881a1.78 1.78 0 0 1-1.275.5A117.9 117.9 0 0 0 .28 21.985"/>
</svg>
