<svg xmlns="http://www.w3.org/2000/svg" xml:space="preserve" viewBox="0 0 600 75">
  <path d="M1.4 37.7v-.2c0-19.2 14.5-35 35.3-35C48.6 2.5 56 6.2 62 11.7c.8.7.8 1.9.2 2.6l-7.1 8.1c-.7.8-1.8.9-2.6.2-4.8-4-9.7-6.4-15.9-6.4-11.4 0-19.6 9.5-19.6 21.1v1.5c0 10.9 8.7 19.9 19.5 19.9 7.2 0 11.8-2.6 16.6-6.8.7-.6 1.9-.6 2.6.1l6.9 7c.7.7.7 1.9 0 2.7-6.6 6.6-14.2 10.7-26.4 10.7-20 .1-34.8-15.3-34.8-34.7m65.6 0v-.2c0-19.2 15.2-35 36.1-35S139 18.1 139 37.3v.2c0 19.2-15.2 35-36.1 35S67 56.9 67 37.7m56.3 0v-.2c0-11.6-8.5-21.3-20.5-21.3s-20.3 9.5-20.3 21.1v.2c0 11.6 8.5 21.3 20.5 21.3s20.3-9.5 20.3-21.1m25-32.2c0-1 .8-1.9 1.9-1.9h24.5c21.3 0 36 14.6 36 33.6v.2c0 19-14.7 33.8-36 33.8h-24.5c-1 0-1.9-.8-1.9-1.9zm14.9 11.6V56c0 1 .8 1.9 1.9 1.9h9.6c12.2 0 20.4-8.2 20.4-20.2v-.2c0-12-8.2-20.4-20.4-20.4zm58.7-13.4h47.3c1 0 1.9.8 1.9 1.9V15c0 1-.8 1.9-1.9 1.9h-32.5c-1 0-1.9.8-1.9 1.9v10c0 1 .8 1.9 1.9 1.9h28.1c1 0 1.9.8 1.9 1.9V42c0 1-.8 1.9-1.9 1.9h-28.1c-1 0-1.9.8-1.9 1.9v10.4c0 1 .8 1.9 1.9 1.9h33c1 0 1.9.8 1.9 1.9v9.5c0 1-.8 1.9-1.9 1.9h-47.8c-1 0-1.9-.8-1.9-1.9v-64c0-1 .9-1.8 1.9-1.8m62.9 1.8c0-1 .8-1.9 1.9-1.9h25.8c16.1 0 25.9 9.6 25.9 23.4v.2c0 15.7-12.2 23.8-27.4 23.8h-9.4c-1 0-1.9.8-1.9 1.9v16.5c0 1-.8 1.9-1.9 1.9h-11.1c-1 0-1.9-.8-1.9-1.9zm26.7 32.3c7.4 0 11.8-4.4 11.8-10.2v-.2c0-6.7-4.6-10.2-12.1-10.2h-9.6c-1 0-1.9.8-1.9 1.9V36c0 1 .8 1.9 1.9 1.9h9.9zm55.6-34.6h11.2c.8 0 1.4.5 1.7 1.1l27.4 64.4c.5 1.2-.4 2.6-1.7 2.6h-11.4c-.8 0-1.5-.5-1.7-1.2l-5.2-12.8c-.3-.7-1-1.2-1.7-1.2h-26.1c-.8 0-1.5.5-1.7 1.2l-5.2 12.8c-.3.7-1 1.2-1.7 1.2h-11.1c-1.4 0-2.3-1.4-1.7-2.6l27.4-64.4c0-.7.7-1.1 1.5-1.1m13.3 37.2-6.2-15.1c-.6-1.6-2.9-1.6-3.5 0l-6.2 15.1c-.5 1.2.4 2.6 1.7 2.6h12.4c1.4 0 2.3-1.3 1.8-2.6m43.8-23h-16.8c-1 0-1.9-.8-1.9-1.9v-10c0-1 .8-1.9 1.9-1.9h52.3c1 0 1.9.8 1.9 1.9v10c0 1-.8 1.9-1.9 1.9h-16.8c-1 0-1.9.8-1.9 1.9v50.2c0 1-.8 1.9-1.9 1.9H428c-1 0-1.9-.8-1.9-1.9V19.3c-.1-1.1-.9-1.9-1.9-1.9m50.6-13.7h11.1c1 0 1.9.8 1.9 1.9v23c0 1 .8 1.9 1.9 1.9h23.7c1 0 1.9-.8 1.9-1.9v-23c0-1 .8-1.9 1.9-1.9h11.1c1 0 1.9.8 1.9 1.9v63.9c0 1-.8 1.9-1.9 1.9h-11.1c-1 0-1.9-.8-1.9-1.9V46.1c0-1-.8-1.9-1.9-1.9h-23.7c-1 0-1.9.8-1.9 1.9v23.4c0 1-.8 1.9-1.9 1.9h-11.1c-1 0-1.9-.8-1.9-1.9v-64c0-1 .9-1.8 1.9-1.8"/>
  <path fill="#6EC396" d="m598.3 27.1-4.9-8.3c-.5-.9-1.7-1.2-2.6-.7l-11.8 7V12.6c0-1-.8-1.9-1.9-1.9h-9.6c-1 0-1.9.8-1.9 1.9v12.7l-11.8-6.9c-.9-.5-2.1-.2-2.6.7l-4.9 8.3c-.5.9-.2 2.1.7 2.6l12 7.1-11.8 6.9c-.9.5-1.2 1.7-.7 2.6l4.9 8.3c.5.9 1.7 1.2 2.6.7l11.6-6.9V61c0 1.1.9 2 2 2h9.5c1 0 1.9-.8 1.9-1.9V48.7l11.8 6.9c.9.5 2.1.2 2.6-.7l4.9-8.3c.5-.9.2-2.1-.7-2.6l-12.2-7.1 12.2-7.2c.9-.6 1.2-1.7.7-2.6"/>
</svg>
