<svg xmlns="http://www.w3.org/2000/svg" fill="none" viewBox="0 0 216 80">
  <g fill="#fff" clip-path="url(#a)">
    <path d="M0 .504v61.023l7.782.024v-29.06h18.764V24.81H7.782V8.181H32.22V.5zm46.227 12.387c2.803 0 5.075-2.293 5.075-5.12 0-2.829-2.272-5.122-5.075-5.122s-5.075 2.293-5.075 5.121 2.272 5.121 5.075 5.121m-3.959 7.681V61.54h7.782V20.572z"/>
    <path fill-rule="evenodd" d="M78.915 19.378c-10.334 0-17.546 8.818-17.546 19.288s7.212 19.289 17.546 19.289c4.731 0 8.63-1.849 11.468-4.857v5.454c0 6.787-5.284 12.46-12.18 12.46-2.48 0-4.943-.969-6.905-2.333l-3.9 6.814a19.75 19.75 0 0 0 10.804 3.2c11.026 0 19.963-9.017 19.963-20.14v-37.98h-7.782v3.662c-2.837-3.009-6.737-4.857-11.468-4.857m-9.764 19.288c0-6.499 4.927-11.607 10.61-11.607s10.61 5.108 10.61 11.607c0 6.5-4.927 11.607-10.61 11.607s-10.61-5.108-10.61-11.607" clip-rule="evenodd"/>
    <path d="M126.207 27.06c-4.601 0-8.332 3.934-8.332 8.576V61.54h-7.782V20.573h7.782v3.753c2.28-2.974 5.64-4.948 10.024-4.948 5.453 0 9.638 2.733 12.062 6.915 2.696-4.04 7.093-6.915 12.385-6.915 8.857 0 14.37 7.21 14.422 16.13V61.54h-7.782V35.636c0-4.643-3.73-8.577-8.332-8.577s-8.332 3.935-8.332 8.577V61.54h-7.783V35.636c0-4.643-3.73-8.577-8.332-8.577"/>
    <path fill-rule="evenodd" d="M208.218 25.217c-3.463-3.607-8.204-5.84-13.704-5.84-11.578 0-19.794 9.891-19.794 21.679s8.216 21.678 19.794 21.678c5.5 0 10.241-2.232 13.704-5.839v4.644H216V20.573h-7.782zm-25.716 15.839c0-7.82 5.935-13.997 12.858-13.997 6.922 0 12.858 6.177 12.858 13.997s-5.936 13.997-12.858 13.997-12.858-6.176-12.858-13.997" clip-rule="evenodd"/>
  </g>
  <defs>
    <clipPath id="a">
      <path fill="#fff" d="M0 .5h216v79H0z"/>
    </clipPath>
  </defs>
</svg>
