<svg xmlns="http://www.w3.org/2000/svg" fill="none" viewBox="0 0 222 73">
  <path fill="#D1D1D1" d="M41.995 25.735h12.474c.364 0 .516.082.548.46.774 6.982-.196 13.596-4.256 19.529-2.59 3.806-6.158 6.439-10.317 8.335a27.3 27.3 0 0 1-12.785 2.366C14.47 55.87 3.197 46.218.97 33.215-.825 22.748 2.517 13.913 10.48 6.927A27 27 0 0 1 25.604.32c8.398-.933 15.86 1.325 22.338 6.784.46.386.451.386 0 .837-1.583 1.626-3.175 3.238-4.743 4.882-.255.263-.386.301-.7.044a20.03 20.03 0 0 0-14.47-4.953c-11.273.597-19.926 10.198-19.33 21.45a20.4 20.4 0 0 0 2.95 9.526 20.4 20.4 0 0 0 7.123 6.993 19.96 19.96 0 0 0 11.478 2.765c4.704-.293 8.896-1.881 12.378-5.137 2.626-2.467 4.05-5.565 4.522-9.104.132-1.007.112-1.007-.893-1.015l-10.177-.027c-2.236 0-4.476-.035-6.724-.047-.325 0-.425-.07-.425-.412q.03-3.375 0-6.755c0-.386.135-.433.46-.424q6.316.02 12.598.012zm121.943-1.72c.035-.773.087-1.545.105-2.352 0-.31.123-.387.419-.387h6.677c.314 0 .387.076.387.387v33.29c0 4.14-1.052 7.937-3.52 11.293a14.64 14.64 0 0 1-6.132 4.856 17.7 17.7 0 0 1-4.109 1.006c-2.948.53-5.978.372-8.855-.46-4.221-1.254-7.272-3.948-9.476-7.681-.316-.547-.583-1.123-.9-1.668-.143-.245-.082-.354.167-.459q3.146-1.356 6.281-2.73c.282-.122.317.045.387.214a12.54 12.54 0 0 0 4.028 4.783 7.6 7.6 0 0 0 5.067 1.308 13.3 13.3 0 0 0 3.647-.626c3.095-1.138 4.865-3.443 5.636-6.562.395-1.844.513-3.737.352-5.617 0-.105.026-.266-.118-.3-.143-.036-.202.107-.29.178a16.3 16.3 0 0 1-5.964 3.258c-3.397.963-6.689.565-9.872-.836-6.425-2.835-9.837-7.975-11.024-14.694-.557-3.169.118-6.235 1.478-9.151a19.54 19.54 0 0 1 9.218-9.525c5.284-2.607 10.282-1.893 14.989 1.483.448.328.894.673 1.334 1.015a1 1 0 0 1 .088-.023m-18.997 13.948c.027 2.835.736 5.201 2.275 7.305 3.409 4.672 9.713 5.359 13.925 1.518 4.611-4.248 4.878-11.968.56-16.52-3.549-3.744-8.934-4.095-12.811-.795-2.688 2.284-3.849 5.289-3.949 8.492m-50.706.301c-.03 10.075-8.237 18.217-18.331 18.188-10.095-.03-18.252-8.22-18.222-18.296s8.236-18.216 18.33-18.187h.015c10.089.035 18.24 8.226 18.208 18.295m-7.938.74c0-3.045-.665-5.254-1.934-7.135-3.714-5.508-11.182-6.155-15.666-1.36a11.496 11.496 0 0 0 .316 15.847 9.74 9.74 0 0 0 12.66 1.07 10.63 10.63 0 0 0 4.62-8.425h.001zm10.9-.784c-.01-10.078 8.161-18.254 18.258-18.269 10.098-.012 18.29 8.145 18.305 18.223.011 10.078-8.16 18.254-18.258 18.269h-.035c-10.08-.015-18.249-8.162-18.27-18.223m8.005-.678c0 3.089.663 5.277 1.964 7.196 3.547 5.251 10.634 6.073 15.189 1.764 4.297-4.06 4.643-11.154.774-15.619-3.353-3.861-8.708-4.76-12.888-2.03a10.6 10.6 0 0 0-5.03 8.691h-.011zm101.666 18.611c-9.341 0-16.783-6.351-18.248-15.057-1.504-8.928 3.787-17.652 12.463-20.223 5.653-1.677 11.908-.337 16.281 5a25.8 25.8 0 0 1 4.104 7.512c.117.31-.097.31-.255.386-1.911.813-3.813 1.626-5.736 2.428a9006 9006 0 0 1-17.595 7.366c-.326.14-.361.255-.208.565a8.93 8.93 0 0 0 3.87 4.08 8.96 8.96 0 0 0 5.547.963c2.708-.336 5.08-1.351 6.935-3.408q.554-.608.967-1.316c.097-.173.158-.27.387-.112a461 461 0 0 0 5.557 3.692c.311.202.106.337 0 .474a17.9 17.9 0 0 1-8.166 6.456 17.2 17.2 0 0 1-5.903 1.197zm-10.73-18.439.486-.193 3.131-1.307c4.109-1.712 8.201-3.432 12.307-5.137.326-.132.343-.246.158-.521a7.7 7.7 0 0 0-2.028-2.074c-1.934-1.331-4.062-1.545-6.307-1.086-3.315.667-5.804 2.376-6.985 5.661a12.6 12.6 0 0 0-.762 4.66zm-19.181-9.17V2.494c0-.42.088-.535.522-.53 2.345.027 4.687.021 7.031 0 .323 0 .425.062.425.408v52.396c0 .31-.082.387-.386.387h-7.123c-.422 0-.46-.15-.46-.504q-.013-13.054-.012-26.109z"/>
</svg>
