<svg xmlns="http://www.w3.org/2000/svg" xml:space="preserve" viewBox="0 0 580.2 182.2">
  <path fill="#0A314F" d="M250 23.6v49.2h-46.9V23.6h-17.9v104.7h17.9V89.7H250v38.6h17.8V23.6zm77.5 0h-45.4v104.7h17.8V90h27.6c18.3 0 33.2-14.8 33.2-33.2s-14.9-33.2-33.2-33.2m-27.6 17.2H327c8.8-.6 16.5 6 17.1 14.8s-6 16.5-14.8 17.1c-.8.1-1.5.1-2.3 0h-27.1zm157.4 74c-21.7 20-55.6 18.6-75.6-3.2-20-21.7-18.6-55.6 3.2-75.6 20.5-18.8 51.9-18.8 72.4 0l-12.8 13.8c-14.2-13-36.2-12.1-49.2 2.1s-12.1 36.2 2.1 49.2c13.4 12.3 34 12.2 47.3-.1z"/>
  <path fill="#0A314F" d="M550.6 114.8c-21.7 20-55.6 18.6-75.6-3.2-20-21.7-18.6-55.6 3.2-75.6 20.5-18.8 51.9-18.8 72.4 0l-12.8 13.8c-14.2-13-36.2-12.1-49.2 2.1s-12.1 36.2 2.1 49.2c13.4 12.3 34 12.2 47.3-.1z"/>
  <path fill="#095F8A" d="M207.3 174.4c0 5.9-5.5 7.8-11.2 7.8-3.8 0-7.6-1-10.8-2.9l2.5-3.9c2.6 1.5 5.5 2.3 8.5 2.4 3.6 0 6-.9 6-3.1 0-2.4-3.2-3.3-6.7-4.4-4.6-1.4-9.7-3-9.7-8.3 0-2.1 1-4 2.6-5.2 1.9-1.4 4.7-2.1 8.1-2.1 3.6 0 7.1 1 10.2 2.9l-2.4 3.8c-2.4-1.5-5.2-2.3-8-2.4-3.7 0-5.5 1.1-5.5 2.7 0 2.5 3.3 3.4 6.9 4.5 4.4 1.5 9.5 3.2 9.5 8.2m58.1-19.2-10.8 15.9v10.5h-4.9v-10.5L239 155.2h5.6l7.6 11.3 7.6-11.3zm53 19.2c0 5.9-5.5 7.8-11.2 7.8-3.8 0-7.5-1-10.8-2.9l2.5-3.9c2.6 1.5 5.5 2.3 8.5 2.4 3.6 0 6-.9 6-3.1 0-2.4-3.2-3.3-6.7-4.4-4.6-1.4-9.7-3-9.7-8.3 0-2.1 1-4 2.6-5.2 1.9-1.4 4.7-2.1 8.1-2.1 3.6 0 7.1 1 10.2 2.9l-2.4 3.8c-2.4-1.5-5.2-2.3-8.1-2.4-3.7 0-5.5 1.1-5.5 2.7 0 2.5 3.3 3.4 6.9 4.5 4.6 1.5 9.6 3.2 9.6 8.2m56.3-19.2v4.5h-9.3v21.9h-4.8v-21.9h-9.3v-4.5zm39.3 4.6v6.4h13.6v4.6H414v6.4h16.4v4.6h-21.3v-26.4h21.3v4.5H414zm80.3 21.9h-4.8v-17.4l-8.2 11.4h-2.8l-8.2-11.4v17.4h-4.9v-26.4h3.8l10.6 14.9 10.7-14.9h3.8zm56.3-7.3c0 5.9-5.5 7.8-11.2 7.8-3.8 0-7.5-1-10.8-2.9l2.5-3.9c2.6 1.5 5.5 2.3 8.5 2.4 3.6 0 6-.9 6-3.1 0-2.4-3.2-3.3-6.7-4.4-4.6-1.4-9.7-3-9.7-8.3 0-2.1 1-4 2.7-5.2 1.9-1.4 4.7-2.1 8.1-2.1 3.6 0 7.1 1 10.2 2.9l-2.4 3.8c-2.4-1.5-5.2-2.3-8-2.4-3.7 0-5.5 1.1-5.5 2.7 0 2.5 3.3 3.4 6.9 4.5 4.4 1.5 9.4 3.2 9.4 8.2"/>
  <path fill="#FFF" d="M78.6 48.8c6.6 4.3 16.4.4 16.2-8.7-.6-5.7-5.7-9.7-11.4-9.1-.3 0-.6.1-.8.1-9 1.7-11.5 12.8-4 17.7m-4.3 73.9c-.2 9.7 11.6 13.1 17.7 7.3 1.6-1.6 2.6-3.6 2.8-5.9.2-7.8-6.5-10.4-10.7-10.2-3.2.3-8.9 2.3-9.8 8.8m25.2-10.2c5.1 4.2 12.7 3.6 16.9-1.5 1.6-2 2.6-4.4 2.8-6.9.2-6.3-4.8-11.6-11.1-11.7h-1.3c-10.5.8-15.1 13.4-7.3 20.1m24.6-19.8c7.6 6.3 19.9 2.1 20.5-10 0-7.8-6.4-13.7-13.9-12.9-10.9 1.2-15.2 15.7-6.6 22.9M95.6 61.4c1.1 11.8 14.9 14.8 21.1 7.1 1.7-2.1 2.5-4.8 2.4-7.5-.3-6.7-6-11.9-12.7-11.6-.2 0-.5 0-.7.1-5.9.7-10.3 5.9-10.1 11.9"/>
  <path fill="#60A9D4" d="M51.8 112.5c5.1 4.2 12.7 3.6 16.9-1.5 1.6-2 2.6-4.4 2.8-6.9.2-6.3-4.8-11.6-11.1-11.7h-1.3c-10.5.8-15.1 13.4-7.3 20.1m24.6-19.8c7.6 6.3 19.9 2.1 20.5-10 0-7.8-6.4-13.7-13.9-12.9-11 1.2-15.2 15.7-6.6 22.9M47.9 61.4C49 73.2 62.8 76.2 69 68.5c1.6-2.1 2.5-4.8 2.4-7.5-.8-9-8.3-12.2-13.4-11.6-6 .8-10.3 6-10.1 12"/>
  <path fill="#00AE8F" d="M27.9 92.7c7.6 6.3 19.9 2.1 20.5-10 0-7.8-6.4-13.7-13.9-12.9-11 1.2-15.2 15.7-6.6 22.9"/>
  <path fill="#0A314F" d="M563.9 25.7h-2.6v-2h7.3v2h-2.5v6.6h-2.2zm7.3-2h2.6l1.2 2.9.7 2h.1l.7-2 1.2-2.9h2.5v8.6h-2v-3.2l.2-3.1h-.1l-1.8 4.9h-1.6l-1.8-4.9h-.1l.2 3.1v3.1h-2z"/>
</svg>
