<svg xmlns="http://www.w3.org/2000/svg" fill="none" viewBox="0 0 256 52">
  <path fill="#D1D1D1" d="M93.97 1.82h9.7l16.494 29.869 16.492-29.87h9.491v49.084h-7.913v-37.62l-14.464 26.05h-7.424l-14.463-26.05v37.62H93.97zm77.7 49.96q-5.498 0-9.664-2.436t-6.496-6.75q-2.33-4.311-2.33-9.887 0-5.644 2.276-9.992 2.276-4.347 6.321-6.803 4.044-2.455 9.297-2.455 5.218 0 8.981 2.473t5.796 6.925q2.031 4.451 2.031 10.45v2.173h-26.86q.733 4.49 3.624 7.066t7.302 2.577q3.535 0 6.094-1.05 2.555-1.054 4.796-3.19l4.203 5.154q-6.269 5.753-15.373 5.749zm5.781-29.116q-2.488-2.54-6.514-2.541-3.923 0-6.565 2.595-2.646 2.594-3.344 6.976h19.26q-.35-4.49-2.837-7.03m20.029-1.839h-7.284v-6.487h7.284V3.611h7.633v10.727h11.066v6.487h-11.066v16.443q0 4.101 1.402 5.856 1.4 1.752 4.796 1.753 1.505 0 2.557-.123a43 43 0 0 0 2.311-.334v6.414a21 21 0 0 1-2.923.63c-1.13.168-2.273.248-3.415.245q-12.361 0-12.361-13.534V20.822zm58.48 30.078h-7.492v-5.119a13.55 13.55 0 0 1-5.077 4.435q-3.081 1.559-7.004 1.562-4.832 0-8.56-2.473-3.73-2.472-5.864-6.8c-1.423-2.888-2.136-6.187-2.136-9.906q0-5.608 2.172-9.923 2.17-4.313 6.004-6.767t8.808-2.455q3.747 0 6.723 1.454a13.3 13.3 0 0 1 4.937 4.119v-4.698h7.492V50.9zm-7.633-23.768c-.817-2.082-2.108-3.722-3.868-4.928q-2.644-1.806-6.112-1.807-4.904 0-7.809 3.297-2.909 3.297-2.905 8.906 0 5.644 2.801 8.94 2.8 3.298 7.6 3.298 3.536-.001 6.302-1.825 2.766-1.823 3.991-4.91V27.131zM8.424 34.233c0 2.968.65 5.247 1.5 6.624 1.116 1.806 2.777 2.57 4.475 2.57 2.186 0 4.187-.543 8.041-5.88 3.087-4.279 6.726-10.284 9.175-14.05l4.146-6.379c2.881-4.429 6.213-9.353 10.037-12.692 3.12-2.723 6.488-4.238 9.876-4.238 5.688 0 11.105 3.3 15.254 9.491 4.537 6.78 6.74 15.317 6.74 24.13 0 5.238-1.031 9.087-2.785 12.127-1.694 2.942-5 5.88-10.559 5.88v-8.385c4.76 0 5.948-4.378 5.948-9.39 0-7.14-1.665-15.065-5.328-20.727-2.6-4.017-5.968-6.472-9.676-6.472-4.008 0-7.236 3.028-10.86 8.425-1.927 2.866-3.907 6.364-6.126 10.305l-2.446 4.34c-4.913 8.723-6.157 10.709-8.614 13.988-4.308 5.74-7.982 7.916-12.823 7.916-5.742 0-9.372-2.49-11.621-6.241C.943 42.517.04 38.506.04 33.937l8.384.299z"/>
  <path fill="#D1D1D1" d="M6.65 10.27C10.493 4.337 16.041.188 22.403.188c3.684 0 7.35 1.093 11.174 4.22 4.185 3.42 8.644 9.049 14.207 18.327l1.995 3.33c4.817 8.034 7.555 12.167 9.16 14.114 2.061 2.502 3.508 3.249 5.384 3.249 4.76 0 5.948-4.378 5.948-9.39l7.397-.232c0 5.238-1.032 9.087-2.786 12.127-1.694 2.942-5 5.88-10.559 5.88-3.454 0-6.517-.752-9.903-3.948-2.6-2.454-5.643-6.814-7.985-10.732l-6.961-11.644c-3.493-5.844-6.697-10.202-8.552-12.173-1.995-2.12-4.56-4.682-8.653-4.682-3.314 0-6.126 2.326-8.48 5.886l-7.14-4.247z"/>
  <path fill="#D1D1D1" d="M22.27 8.628c-3.314 0-6.126 2.326-8.48 5.886-3.329 5.03-5.366 12.522-5.366 19.716 0 2.968.65 5.247 1.5 6.624l-7.15 4.712C.94 42.508.038 38.498.038 33.928c0-8.31 2.278-16.974 6.61-23.663C10.49 4.33 16.038.182 22.4.182l-.134 8.439z"/>
</svg>
