<svg xmlns="http://www.w3.org/2000/svg" fill="none" viewBox="0 0 305 66">
  <path fill="#D1D1D1" d="M15.466 31.717H.97c-.665 0-.966-.074-.944-.876q.05-14.682 0-29.38C.025.79.21.64.839.64Q15.515.66 30.17.66c.684 0 .87.169.87.876v29.289c0 .745-.2.931-.925.912-4.884-.056-9.768-.02-14.653-.02zm18.757-15.529V1.505c0-.685.149-.876.855-.876q14.651.03 29.319 0c.633 0 .835.15.835.82V30.83c0 .69-.166.896-.869.896q-14.673-.01-29.346-.011c-.65 0-.814-.186-.814-.821.039-4.908.025-9.803.025-14.708zM.055 50.383V35.699c0-.651.15-.82.814-.82q14.652.03 29.322 0c.683 0 .89.15.89.857q-.028 14.663 0 29.288c0 .727-.165.932-.91.932q-14.62-.03-29.227 0c-.706 0-.87-.186-.87-.876C.07 60.185.056 55.29.056 50.383m34.168.02V35.718c0-.635.149-.84.8-.84q14.706.03 29.412 0c.595 0 .794.13.794.765V65.2c0 .56-.13.746-.719.746-9.865-.02-19.73-.02-29.604 0-.76 0-.664-.391-.664-.876zm71.583-7.039c1.115-3.142 2.208-6.081 3.414-9.018q4.095-9.903 8.097-19.852a1.11 1.11 0 0 1 1.204-.812c2.499.055 4.998.036 7.524 0 .595 0 .869.075.869.782v37.569c0 .67-.199.84-.836.82-1.724-.038-3.47-.038-5.199 0-.609 0-.8-.205-.8-.8V27.676c0-2.138.185-4.262.26-6.106-3.545 9.622-7.723 19.261-11.586 29.014-.891 2.25-.93 2.25-3.398 2.25q-1.948 0-2.674-1.784c-3.544-8.635-7.106-17.276-10.676-25.922-.426-1.001-.683-2.105-1.054-3.275v4.093q0 9.938.036 19.91V52c0 .633-.15.877-.82.857a100 100 0 0 0-4.822 0c-.634 0-.78-.224-.78-.82v-37.57c0-.596.143-.801.78-.801 2.728.036 5.437 0 8.168 0a.815.815 0 0 1 .95.521c3.564 9.176 7.394 18.239 10.786 27.464.205.586.335 1.049.559 1.714zm183.219-26.33c-.8-.205-1.414-.502-2.101-.615-2.999-.46-4.829.876-5.125 3.87-.13 1.323-.038 2.66-.055 4.008 0 .427.199.502.576.502h8.633c.501 0 .631-.186.631-.652v-4.839c0-.61.13-.945.781-1.117 1.724-.502 3.434-1.001 5.125-1.578.725-.247.761.036.761.61v6.697c0 .69.191.917.893.895 1.636-.055 3.285.036 4.921-.039.78 0 .949.247.91.952-.055 1.206-.036 2.418 0 3.627 0 .632-.166.876-.836.857-1.71-.036-3.398 0-5.108 0-.501 0-.78.075-.78.707.038 4.373 0 8.746.074 13.119.075 3.505 2.499 4.933 5.704 3.505.91-.41.924-.41.924.632v3.628a.87.87 0 0 1-.681 1.026h-.003a13.26 13.26 0 0 1-7.128.404c-2.729-.632-4.383-2.398-5.108-5.08a13.8 13.8 0 0 1-.41-3.682V31.166c0-.707-.149-.968-.91-.952q-4.043.084-8.078 0c-.706 0-.855.206-.855.896 0 6.922 0 13.827.039 20.748 0 .851-.224 1.098-1.079 1.056-1.5-.074-3-.074-4.55 0-.869.04-1.148-.166-1.129-1.098.036-6.846 0-13.696.036-20.562 0-.796-.166-1.117-.999-1.042-.999.075-2.001 0-2.969 0-.446 0-.684-.075-.67-.616.039-1.392.039-2.79 0-4.182 0-.502.186-.635.651-.615h3.248c.559 0 .745-.15.745-.727-.1-1.614-.07-3.23.094-4.839.835-5.318 4.79-8.516 10.302-8.41 1.021-.009 2.04.116 3.03.371.335.095.557.225.557.616-.075 1.722-.056 3.43-.056 5.219zM255.131 53.49c-6.738 0-11.733-3.406-13.407-9.301a18.5 18.5 0 0 1 .28-11.165 12.35 12.35 0 0 1 7.333-7.778 17.75 17.75 0 0 1 8.194-1.076c1.984.122 3.918.66 5.678 1.584a11.83 11.83 0 0 1 5.889 7.44 18.94 18.94 0 0 1 .11 10.274c-1.613 6.045-6.649 9.897-13.053 10.019l-1.024.01zm-7.203-14.609a11.7 11.7 0 0 0 .576 4.149c1.079 3.26 3.788 5.1 7.319 5.008 3.529-.092 5.753-1.878 6.664-5.341.645-2.435.675-4.992.094-7.443-.8-3.386-3.229-5.51-6.39-5.602q-5.998-.194-7.687 5.156a11.5 11.5 0 0 0-.576 4.073M201.84 53.466c-3.75 0-7.148-.912-9.998-3.505a12.34 12.34 0 0 1-3.653-6.342 18.5 18.5 0 0 1 .39-10.44c1.799-5.286 5.665-8.095 11.083-8.877a17.8 17.8 0 0 1 7.997.541 11.45 11.45 0 0 1 4.829 2.781 11.5 11.5 0 0 1 2.95 4.734c1.6 4.69 1.539 9.392-.683 13.896-2.045 4.154-5.554 6.367-10.068 7.052q-.68.116-1.375.15-.735.044-1.469.01zm.354-23.812c-3.639 0-6.168 1.878-7.134 5.416a15.3 15.3 0 0 0-.39 5.785c.465 4.204 2.859 6.771 6.962 7.107 3.399.28 6.238-1.098 7.353-4.745.825-2.645.891-5.468.191-8.15-.894-3.535-3.343-5.416-6.998-5.416h.013zm34.538 1.783a12.6 12.6 0 0 0-5.869-2.005 6.5 6.5 0 0 0-2.469.22c-1.059.374-1.873 1-2.025 2.18a2.78 2.78 0 0 0 1.356 2.92 25 25 0 0 0 3.343 1.602 25.5 25.5 0 0 1 3.619 1.858c4.793 2.906 4.663 10.124.094 13.213-2.878 1.933-6.088 2.285-9.411 2.005a18.3 18.3 0 0 1-5.128-1.178.83.83 0 0 1-.631-.871v-5.64c.26-.15.39 0 .501.13a13.65 13.65 0 0 0 6.763 2.374 6.8 6.8 0 0 0 3-.391 2.59 2.59 0 0 0 1.563-3.317q0-.006-.005-.014a2.5 2.5 0 0 0-.869-1.173c-1.19-.968-2.64-1.503-3.999-2.082-1.054-.447-2.059-.968-3.08-1.503-5.019-2.69-5.208-10.36-.401-13.56 2.654-1.764 5.59-2.23 8.689-1.953 1.446.118 2.874.406 4.253.857.391.13.745.26.725.802-.038 1.727-.019 3.535-.019 5.524zm-70.506.577a13.2 13.2 0 0 0-4.744-2.213c-5.232-1.056-9.801 2.31-10.247 7.67-.185 2.25-.074 4.465.999 6.512 1.896 3.505 6.094 4.913 10.308 3.46a12 12 0 0 0 3.044-1.541c.446-.322.631-.28.631.316v4.839a.755.755 0 0 1-.501.795c-4.718 2.474-13.446 2.735-18.139-2.77a13.33 13.33 0 0 1-3.179-7.107c-.535-4.282 0-8.375 2.529-11.988 3.06-4.367 7.499-5.915 12.663-5.876a16.7 16.7 0 0 1 5.72 1.056c.63.247.929.541.891 1.268-.006 1.802.03 3.59.03 5.58zm11.517-2.867c.78-1.248 1.5-2.435 2.598-3.33 1.91-1.504 4.085-1.803 6.404-1.318.334.075.669.144.65.633v6.217a8.5 8.5 0 0 0-3.434-1.001 4.96 4.96 0 0 0-4.66 2.31 9.6 9.6 0 0 0-1.561 5.634v13.585c0 .763-.185 1.002-.999 1.002a88 88 0 0 0-4.998 0c-.5 0-.705-.13-.705-.672V25.51c0-.502.116-.707.669-.707q2.645.052 5.294 0c.595 0 .739.205.725.74-.025 1.206.014 2.418.014 3.608zm-37.978 9.733v13.025c0 .746-.224.951-.949.932-1.613-.056-3.21-.036-4.829 0-.609 0-.869-.111-.869-.802.02-8.834.02-17.675 0-26.512 0-.577.186-.747.739-.727 1.674.039 3.343.055 4.998 0 .711 0 .894.186.874.893.014 4.392.036 8.801.036 13.194zm-3.229-25.978a3.94 3.94 0 0 1 4.062 3.819v.02c0 2.16-1.779 3.832-4.065 3.832a3.83 3.83 0 0 1-3.965-3.697 3.833 3.833 0 0 1 3.965-3.974z"/>
</svg>
