<svg width="322" height="63" viewBox="0 0 322 63" fill="none" xmlns="http://www.w3.org/2000/svg">
<g filter="url(#filter0_f_590_9)">
<path d="M193.353 21.8215L193.449 21.6657L193.346 21.8215C191.638 20.6228 189.17 20.0664 186.75 20.0664C181.266 20.0664 177.35 22.8421 174.763 26.7466C172.177 30.6511 170.981 35.6938 170.981 40.1897C170.981 43.4296 171.456 46.4534 173.378 49.191C174.329 50.5232 176.633 53.7218 184.086 53.7314C189.257 53.7314 191.707 52.3578 193.039 51.5629L193.256 51.2545C193.517 50.0971 194.393 44.8255 194.741 43.4837L194.474 43.2738C191.856 45.3978 189.002 46.9558 185.766 46.9558C183.592 46.9558 181.94 46.4279 180.825 45.4105C179.707 44.393 179.17 42.905 179.17 41.0545C179.17 40.3709 179.226 39.7477 179.273 39.0641L179.294 38.9052L179.443 38.9052C184.508 38.7748 187.089 38.708 191.316 38.708L196.138 38.708L196.464 38.4727C197.014 36.1294 197.306 33.732 197.34 31.3251C197.34 28.8133 197.079 24.3492 193.284 21.831M189.943 32.8418L189.912 32.9848L184.949 33.0484L180.043 33.112L180.086 32.9435L180.111 32.8672C180.21 32.5175 180.319 32.1073 180.44 31.7289C180.785 30.4921 181.353 29.3347 182.114 28.3109C182.263 28.1233 182.421 27.9326 182.589 27.7513C184.111 26.0503 185.558 25.7864 186.483 25.7864C187.034 25.7629 187.582 25.8715 188.085 26.1033C188.587 26.3351 189.03 26.6839 189.378 27.1218C189.48 27.2585 189.573 27.4016 189.657 27.5542C189.962 28.1011 190.154 28.7052 190.216 29.3316C190.247 29.5605 190.26 29.7958 190.26 30.0279C190.235 30.969 190.126 31.907 189.94 32.8322M170.652 27.109L170.316 27.4524L165.428 27.3221L163.164 38.2343C162.854 39.6015 162.158 43.0163 162.158 44.1164C162.131 44.5215 162.199 44.9275 162.356 45.3003C162.513 45.6732 162.755 46.002 163.062 46.2594C163.571 46.6429 164.191 46.842 164.823 46.8254C166.18 46.8254 166.655 46.447 167.562 46.0655L167.72 46.2213L166.518 52.5041L166.121 52.9142C164.59 53.3199 163.019 53.5418 161.438 53.5756C156.898 53.5501 153.609 51.9826 153.596 46.5615C153.596 44.0242 154.6 39.4012 155.345 35.9641L157.14 27.3189L153.305 27.4524L153.075 27.109L154.187 21.0043L154.534 20.8072L158.475 20.8072L160.037 12.7661L160.338 12.4164C164.245 11.3894 165.372 10.8966 168.925 9.70106L169.115 9.92044L167.934 15.0936L166.72 20.9312L171.723 20.7722L171.857 21.0393L170.642 27.109L170.652 27.109ZM230.985 16.8201L230.715 17.1189L217.814 17.0935L215.715 28.1074L227.004 27.7545L227.174 28.0279C226.243 31.1948 226.025 32.0914 225.401 34.864L225.119 35.1501L214.383 35.1247L212.973 42.7683L211.187 52.7012L210.945 52.9301L201.7 53.1718L201.588 52.9301L203.188 44.4789L205.641 32.5397C207.495 23.2682 208.038 20.308 209.762 10.2098L210.045 9.93316L223.55 9.93316L232.128 9.7106L232.298 9.9427L230.982 16.8264L230.985 16.8201ZM249.201 22.1776C247.41 20.8835 244.543 20.219 240.615 20.219C238.649 20.219 236.686 20.4129 234.758 20.7913C233.003 21.1347 231.913 21.4208 230.985 21.6943L230.73 21.955L229.457 28.6384L229.854 28.896C231.025 28.3459 232.227 27.869 233.454 27.4588C234.879 26.9087 236.382 26.613 237.907 26.5812C239.876 26.5812 241.379 26.8547 242.4 27.427C243.534 28.1011 244.223 29.3443 244.211 30.686C244.211 30.9945 244.186 31.3029 244.133 31.6081C244.081 31.8656 244.053 32.0532 244.037 32.1613L244.018 32.3044C244.018 32.3044 243.382 32.3489 242.705 32.4062C242.255 32.4507 241.689 32.5175 241.028 32.5938C239.953 32.7146 238.717 32.8704 237.634 33.058C235.037 33.4999 227.746 34.6605 225.56 39.6619C223.265 43.754 223.653 49.2005 225.907 51.8459C226.856 52.9554 228.137 53.7113 229.55 53.9953C229.621 54.0207 229.876 54.0525 229.92 54.0684C236.227 55.0636 240.751 49.439 240.751 49.439L240.099 52.8983L240.373 53.1368L247.462 52.8983L247.754 52.6312L251.928 31.182C252.024 30.6542 252.096 30.1233 252.139 29.5859C252.183 28.9659 252.214 28.4699 252.214 28.1042C252.27 25.726 251.136 23.4844 249.205 22.1585M241.919 43.63C241.919 43.63 240.227 46.3548 237.783 47.3119C235.339 48.2689 233.569 47.5217 232.879 46.552C232.32 45.792 231.159 43.3978 233.364 40.708C235.572 38.0149 242.987 37.8146 242.987 37.8146L241.919 43.6331L241.919 43.63ZM276.325 19.7866L274.595 29.0136L274.225 29.392C273.607 29.2775 272.977 29.2203 272.35 29.2234C270.736 29.208 269.142 29.5905 267.703 30.3387C266.264 31.087 265.023 32.1789 264.083 33.5222L264.052 33.5476L260.453 52.6948L260.201 52.9238L252.409 53.1654L252.204 52.9556L258.325 20.8136L258.655 20.4797L266.359 19.7198L266.663 20.0568L265.775 24.7149L266.173 24.3619C267.583 23.0297 269.139 21.8723 270.809 20.9058C272.244 20.0123 273.89 19.529 275.57 19.5068L276.045 19.5068L276.318 19.7802L276.325 19.7866ZM318 27.869C318 29.8148 317.575 31.8275 317.155 33.7893L313.55 52.6916L313.277 52.9142L305.115 53.2067L304.91 52.9142C304.91 52.9142 309.1 32.0469 309.1 30.9976C309.1 30.047 308.615 27.5192 306.019 27.5192C303.976 27.5192 301.867 29.6272 301.867 29.6272L297.47 52.6916L297.196 52.9206L293.693 53.0414L290.551 53.1527L289.001 53.2067L288.905 53.0764L288.805 52.9174L290.218 45.8079L290.178 45.8079C291.377 39.6714 292.954 31.6335 292.954 30.9945C292.954 30.0438 292.47 27.516 289.871 27.516C287.843 27.5224 285.728 29.6304 285.728 29.6304L281.331 52.6948L281.057 52.9238L279.797 52.9651L272.859 53.2036L272.685 52.9238L278.793 20.8199L279.101 20.502L287.209 19.7166L287.535 20.0536L286.678 24.5559C286.678 24.5559 290.594 20.149 295.582 20.0536C300.249 19.9614 301.224 24.5559 301.224 24.5559C301.224 24.5559 305.898 19.9487 310.845 20.0632C313.348 20.0632 318 21.2015 318 27.8562M147.851 22.1776C146.06 20.8835 143.199 20.219 139.271 20.219C137.305 20.219 135.346 20.4129 133.417 20.7913C131.659 21.1347 130.569 21.4208 129.638 21.6943L129.386 21.955L128.11 28.6448L128.511 28.8991C129.684 28.3586 130.886 27.8785 132.11 27.462C133.535 26.9151 135.041 26.6194 136.563 26.5844C138.538 26.5844 140.029 26.8579 141.06 27.4302C141.614 27.7624 142.072 28.2391 142.387 28.8116C142.702 29.3841 142.864 30.032 142.855 30.6892C142.858 30.9976 142.836 31.306 142.786 31.6113C142.746 31.7957 142.712 31.9801 142.69 32.1645L142.668 32.3076C142.668 32.3076 142.035 32.3521 141.355 32.4093L139.684 32.5969C138.603 32.7178 137.364 32.8736 136.287 33.0612C133.69 33.5031 126.399 34.6636 124.213 39.6714C121.918 43.7635 122.309 49.2037 124.563 51.8523C125.511 52.9651 126.793 53.7218 128.206 54.0016C128.278 54.0271 128.526 54.0589 128.576 54.0747C134.883 55.0699 139.408 49.4453 139.408 49.4453L138.734 52.9174L139.007 53.1559L146.097 52.9174L146.389 52.6758L150.556 31.2266C150.656 30.6988 150.73 30.1646 150.78 29.6304C150.817 29.02 150.851 28.5144 150.851 28.1488C150.882 26.9774 150.621 25.8173 150.093 24.7773C149.566 23.7373 148.789 22.8515 147.836 22.203M140.55 43.6395C140.55 43.6395 138.861 46.3644 136.417 47.3214C133.973 48.2784 132.206 47.5281 131.504 46.5615C130.955 45.8016 129.793 43.4074 132.001 40.7111C134.209 38.0149 141.625 37.8209 141.625 37.8209L140.55 43.6395ZM123.486 27.1249L123.144 27.4683L118.262 27.338L115.999 38.2502C115.682 39.6206 114.989 43.0322 114.989 44.1323C114.937 44.9526 115.272 45.7507 115.89 46.2753C116.4 46.6574 117.019 46.8564 117.651 46.8413C119.017 46.8413 119.505 46.4629 120.393 46.0814L120.551 46.2372L119.352 52.5231L118.952 52.9301C117.421 53.3368 115.85 53.5598 114.269 53.5946C109.732 53.5628 106.446 52.0017 106.421 46.5742C106.421 44.0369 107.431 39.4139 108.17 35.9768L109.974 27.3157L106.139 27.4493L105.906 27.1059L107.018 21.0012L107.365 20.804L111.26 20.804L112.819 12.763L113.126 12.4132C117.02 11.3862 118.148 10.8934 121.713 9.69788L121.896 9.91727L120.716 15.0904L119.52 20.9312L124.514 20.7722L124.65 21.0393L123.48 27.1218L123.486 27.1249ZM105.129 12.3115L103.645 20.1395L103.316 20.2444C102.84 19.5282 102.242 18.9066 101.549 18.4098C99.781 16.9791 97.6004 16.1876 95.3472 16.1587C93.8255 16.1015 92.338 16.6293 91.1766 17.6372C90.6711 18.0994 90.2685 18.6673 89.9958 19.3024C89.7231 19.9376 89.5867 20.6253 89.5959 21.3191C89.5959 24.0789 91.4498 25.4112 94.7261 27.4556L96.0056 28.2155C98.7539 30.0628 103.027 32.8926 103.027 39.3153C103.027 46.6155 98.4465 53.9412 87.4842 53.9603C84.8041 53.9603 82.1459 53.4643 79.6366 52.4977C78.3513 52.011 77.1483 51.3212 76.0716 50.4532L75.9877 49.9477L77.4411 42.3136L77.7702 42.1992C78.5345 43.1615 79.4547 43.9822 80.4906 44.6252C82.3396 45.9028 84.5145 46.5961 86.7451 46.6187C90.6145 46.6187 93.6578 44.339 93.6578 40.8415C93.6578 37.6969 91.2294 36.1199 88.6891 34.5905L86.9345 33.484C84.1706 31.6367 80.3416 29.1185 80.3323 22.8199C80.3513 19.6798 81.3298 16.6245 83.1303 14.0825C85.8973 10.3338 90.2449 8.99202 94.6298 8.99202C100.266 8.99202 103.49 11.0396 105.018 12.0317L105.129 12.3083L105.129 12.3115ZM25.8686 26.0725C28.0952 27.4779 31.21 28.3523 34.7222 28.3523C38.2345 28.3523 41.3773 27.462 43.6256 26.0725C45.874 24.6831 47.2249 22.7785 47.2249 20.7786C47.2249 18.7786 45.8926 16.9059 43.6256 15.5133C41.3586 14.1238 38.2438 13.2335 34.7222 13.2335C31.2006 13.2335 28.1045 14.1174 25.8748 15.5133C23.645 16.9059 22.3314 18.7914 22.3314 20.7786C22.3314 22.7658 23.645 24.6767 25.8717 26.0948M26.412 36.9243C24.1637 35.5348 21.024 34.6446 17.5086 34.6446C13.9932 34.6446 10.8629 35.5221 8.63941 36.9052C6.41279 38.2883 5.11781 40.1897 5.1116 42.1737C5.10539 44.1578 6.42211 46.0718 8.65184 47.4899C10.8816 48.9112 13.9901 49.7696 17.5024 49.7696C21.0147 49.7696 24.1792 48.8698 26.4058 47.4645C28.6324 46.0591 30.005 44.1927 30.005 42.1769C30.005 40.1611 28.6697 38.3138 26.4058 36.9211M60.7771 36.9211C58.5257 35.5317 55.3829 34.6414 51.8737 34.6414C48.3646 34.6414 45.2281 35.5158 43.0076 36.8989C40.7841 38.282 39.4643 40.1738 39.4643 42.1642C39.4643 44.1546 40.7655 46.0528 42.9952 47.4613C45.2249 48.8698 48.3335 49.741 51.8458 49.741C55.3581 49.741 58.5226 48.8412 60.7492 47.439C62.9758 46.0369 64.3484 44.1673 64.3484 42.1515C64.3484 40.1356 63.0193 38.2883 60.7492 36.8957M51.8427 29.392C50.3055 29.392 48.7745 29.535 47.2652 29.8244C50.4639 27.5001 52.411 24.2983 52.411 20.7659C52.411 13.6596 44.5231 8 34.7378 8C24.9524 8 17.1391 13.6596 17.1391 20.7659C17.1391 24.3047 19.0676 27.5033 22.2165 29.8307C20.6886 29.5382 19.1359 29.392 17.5832 29.3888C7.79783 29.3888 -6.38406e-08 35.0484 -8.06056e-08 42.1515C-9.73706e-08 49.2546 7.72641 55 17.5366 55C25.8686 55 32.8496 50.8221 34.7502 45.2134C36.6042 50.8316 43.4672 55 51.8147 55C61.6001 55 69.5283 49.2387 69.5283 42.1419C69.5283 35.0452 61.6373 29.3792 51.8551 29.3792M20.3408 20.7531C20.3408 17.5482 22.7382 15.3893 24.1171 14.3845C26.9151 12.3369 30.6758 11.2654 34.7378 11.2654C38.7997 11.2654 42.6039 12.3623 45.4082 14.3845C46.8149 15.3988 49.2155 17.5641 49.2248 20.7531C49.1751 26.0693 42.489 30.3363 34.6943 30.349C30.6479 30.349 26.9027 29.2393 24.1171 27.2013C21.7197 25.4271 20.3377 23.141 20.3377 20.7436M17.5397 51.7219C13.4839 51.7219 9.72633 50.6122 6.94693 48.5646C4.54951 46.8 3.17379 44.517 3.17379 42.1356C3.17379 38.9306 5.57432 36.7653 6.95004 35.7542C9.74807 33.7416 13.5088 32.6478 17.5738 32.6351C21.6389 32.6224 25.44 33.7416 28.2442 35.7606C29.651 36.7717 32.0546 38.937 32.0702 42.1356C32.0205 47.4518 25.3251 51.706 17.5366 51.7219M34.7595 39.0705C33.9925 36.7908 32.3963 34.7876 30.2224 33.1883C31.6913 33.465 33.1819 33.6017 34.6757 33.5953C36.2129 33.5953 37.7501 33.4522 39.2624 33.1629C37.0917 34.7622 35.5017 36.7876 34.7502 39.061M51.7868 51.706C47.7435 51.706 43.9952 50.5932 41.2065 48.5519C38.809 46.7809 37.4271 44.498 37.4271 42.0942C37.4271 38.8956 39.8276 36.7335 41.2065 35.7193C44.0076 33.7066 47.7652 32.6033 51.8303 32.6001C55.8953 32.5969 59.6964 33.7066 62.5069 35.7256C63.9105 36.7367 66.3018 38.9052 66.3142 42.0911C66.2769 47.4073 59.5784 51.671 51.7868 51.6806" fill="#D1D1D1"/>
</g>
<defs>
<filter id="filter0_f_590_9" x="-8" y="0" width="334" height="63" filterUnits="userSpaceOnUse" color-interpolation-filters="sRGB">
<feFlood flood-opacity="0" result="BackgroundImageFix"/>
<feBlend mode="normal" in="SourceGraphic" in2="BackgroundImageFix" result="shape"/>
<feGaussianBlur stdDeviation="4" result="effect1_foregroundBlur_590_9"/>
</filter>
</defs>
</svg>
