<?xml version="1.0" encoding="iso-8859-1"?>

<!DOCTYPE svg PUBLIC "-//W3C//DTD SVG 1.1//EN" "http://www.w3.org/Graphics/SVG/1.1/DTD/svg11.dtd">
<!-- Uploaded to: SVG Repo, www.svgrepo.com, Generator: SVG Repo Mixer Tools -->
<svg height="800px" width="800px" version="1.1" id="_x36_" xmlns="http://www.w3.org/2000/svg" xmlns:xlink="http://www.w3.org/1999/xlink" 
	 viewBox="0 0 512 512"  xml:space="preserve">
<g>
	<path style="fill:#EFECE7;" d="M484.42,224.895c0,96.575-60.832,178.931-146.26,210.743c-24.525,9.145-50.969,14.151-78.635,14.151
		c-4.147,0-8.294-0.139-12.441-0.356c-24.804-1.361-48.539-6.723-70.557-15.442C93.46,400.963,34.631,319.83,34.631,224.895
		C34.631,100.722,135.354,0,259.526,0C362.538,0,449.319,69.273,475.98,163.706C481.488,183.148,484.42,203.665,484.42,224.895z"/>
	<path style="fill:#E1D9D2;" d="M484.42,224.895c0,96.575-60.832,178.931-146.26,210.743L217.632,315.111l27.38-134.609
		l177.5-70.271l53.468,53.475C481.488,183.148,484.42,203.665,484.42,224.895z"/>
	<g>
		<path style="fill:#EED5B1;" d="M141.05,20.838C126.439,9.501,108.141,2.681,88.217,2.681c-15.428,0-29.879,4.098-42.41,11.184
			c1.445,12.049,6.995,36.329,27.617,58.117c9.787-6.164,21.606-5.375,31.889,0.203C109.335,57.789,118.948,33.244,141.05,20.838z"
			/>
		<path style="fill:#D5C7B0;" d="M65.271,103.634c-5.103-7.1-5.068-20.908,4.802-29.237c1.082-0.914,2.206-1.696,3.351-2.415
			C52.803,50.194,47.252,25.914,45.808,13.865C19.747,28.601,2.106,56.456,1.917,88.478
			C16.285,98.258,38.806,107.453,65.271,103.634z"/>
		<path style="fill:#D5C7B0;" d="M172.933,105.414c1.026-5.319,1.605-10.793,1.605-16.412c0-27.75-13.146-52.372-33.488-68.163
			c-22.102,12.406-31.715,36.951-35.736,51.346c11.442,6.213,20.936,18.388,23.603,33.571
			C140.82,102.998,156.995,102.754,172.933,105.414z"/>
		<g>
			<path style="fill:#C7BBAB;" d="M51.162,166.875c11.24,5.361,23.771,8.447,37.056,8.447c14.688,0,28.476-3.735,40.574-10.206
				c-2.905-7.973-6.8-13.292-10.549-17.146C103.171,169.025,75.994,175.301,51.162,166.875z"/>
			<path style="fill:#E4CBAA;" d="M172.933,105.414c-15.938-2.66-32.113-2.416-44.015,0.342c1.975,11.303,0.188,24.26-7.491,37.698
				c-0.942,1.648-2.115,3.016-3.183,4.517c3.749,3.854,7.644,9.173,10.549,17.146C151.34,153.053,167.941,131.328,172.933,105.414z"
				/>
		</g>
		<path style="fill:#DCCEB7;" d="M71.847,108.046c1.508-6.793,19.135-28.937,45.684-26.026
			c-11.847-13.417-30.068-18.877-44.106-10.039c1.382,1.459,2.073,2.192,2.073,2.192s-0.691-0.733-2.073-2.192
			c-1.145,0.719-2.269,1.501-3.351,2.415c-9.871,8.329-9.906,22.137-4.802,29.237c1.515-0.217,2.268-0.328,2.268-0.328
			s-0.753,0.111-2.268,0.328C66.96,105.987,69.208,107.606,71.847,108.046z"/>
		<g>
			<path style="fill:#EED5B1;" d="M132.938,134.602c-1.676-1.159-3.742-2.373-5.99-3.602c-0.098,0.286-0.202,0.58-0.3,0.866
				L132.938,134.602z"/>
			<path style="fill:#EED5B1;" d="M126.648,131.865c0.098-0.286,0.202-0.58,0.3-0.866c-6.8-3.707-15.924-7.477-25.788-10.213
				L126.648,131.865z"/>
			<path style="fill:#F5DDB9;" d="M117.531,82.02c-26.549-2.911-44.176,19.233-45.684,26.026l0.886,8.851
				c9.194-0.369,19.108,1.306,28.427,3.889c9.864,2.736,18.988,6.506,25.788,10.213C133.28,111.397,127.835,93.692,117.531,82.02z"
				/>
		</g>
		<g>
			<path style="fill:#EED5B1;" d="M72.733,116.897l-0.886-8.851c-2.639-0.44-4.887-2.06-6.576-4.412
				c-26.466,3.819-48.987-5.376-63.354-15.156c-0.006,0.174-0.021,0.349-0.021,0.523c0,30.612,16.001,57.405,40.036,72.715
				C58.59,151.817,74.228,135.635,72.733,116.897z"/>
			<path style="fill:#DCCEB7;" d="M101.161,120.786c-9.32-2.583-19.233-4.258-28.427-3.889c1.494,18.737-14.143,34.919-30.8,44.819
				c2.967,1.892,6.032,3.637,9.229,5.159c26.598,9.026,56.072,1.41,70.264-23.422c2.234-3.917,3.924-7.784,5.222-11.589
				L101.161,120.786z"/>
		</g>
	</g>
	<g>
		<path style="fill:#EED5B1;" d="M370.95,20.838c14.611-11.337,32.909-18.157,52.832-18.157c15.428,0,29.879,4.098,42.41,11.184
			c-1.445,12.049-6.995,36.329-27.616,58.117c-9.788-6.164-21.607-5.375-31.89,0.203C402.665,57.789,393.052,33.244,370.95,20.838z"
			/>
		<path style="fill:#D5C7B0;" d="M446.729,103.634c5.103-7.1,5.068-20.908-4.803-29.237c-1.082-0.914-2.206-1.696-3.35-2.415
			c20.621-21.787,26.172-46.068,27.616-58.117c26.06,14.737,43.702,42.591,43.89,74.614
			C495.715,98.258,473.194,107.453,446.729,103.634z"/>
		<path style="fill:#D5C7B0;" d="M339.067,105.414c-1.026-5.319-1.606-10.793-1.606-16.412c0-27.75,13.146-52.372,33.488-68.163
			c22.102,12.406,31.715,36.951,35.736,51.346c-11.442,6.213-20.936,18.388-23.603,33.571
			C371.18,102.998,355.005,102.754,339.067,105.414z"/>
		<g>
			<path style="fill:#C7BBAB;" d="M460.838,166.875c-11.24,5.361-23.771,8.447-37.056,8.447c-14.688,0-28.476-3.735-40.574-10.206
				c2.904-7.973,6.8-13.292,10.548-17.146C408.829,169.025,436.007,175.301,460.838,166.875z"/>
			<path style="fill:#E4CBAA;" d="M339.067,105.414c15.938-2.66,32.113-2.416,44.016,0.342c-1.976,11.303-0.189,24.26,7.49,37.698
				c0.942,1.648,2.115,3.016,3.183,4.517c-3.749,3.854-7.644,9.173-10.548,17.146C360.66,153.053,344.059,131.328,339.067,105.414z"
				/>
		</g>
		<path style="fill:#DCCEB7;" d="M440.154,108.046c-1.508-6.793-19.135-28.937-45.685-26.026
			c11.847-13.417,30.068-18.877,44.107-10.039c-1.383,1.459-2.074,2.192-2.074,2.192s0.691-0.733,2.074-2.192
			c1.144,0.719,2.268,1.501,3.35,2.415c9.871,8.329,9.906,22.137,4.803,29.237c-1.515-0.217-2.269-0.328-2.269-0.328
			s0.754,0.111,2.269,0.328C445.04,105.987,442.792,107.606,440.154,108.046z"/>
		<g>
			<path style="fill:#EED5B1;" d="M379.062,134.602c1.675-1.159,3.742-2.373,5.99-3.602c0.097,0.286,0.202,0.58,0.299,0.866
				L379.062,134.602z"/>
			<path style="fill:#EED5B1;" d="M385.352,131.865c-0.097-0.286-0.202-0.58-0.299-0.866c6.799-3.707,15.923-7.477,25.788-10.213
				L385.352,131.865z"/>
			<path style="fill:#F5DDB9;" d="M394.469,82.02c26.549-2.911,44.176,19.233,45.685,26.026l-0.887,8.851
				c-9.194-0.369-19.107,1.306-28.426,3.889c-9.864,2.736-18.989,6.506-25.788,10.213C378.72,111.397,384.165,93.692,394.469,82.02z
				"/>
		</g>
		<g>
			<path style="fill:#EED5B1;" d="M439.266,116.897l0.887-8.851c2.639-0.44,4.887-2.06,6.576-4.412
				c26.465,3.819,48.986-5.376,63.353-15.156c0.007,0.174,0.021,0.349,0.021,0.523c0,30.612-16.001,57.405-40.036,72.715
				C453.411,151.817,437.773,135.635,439.266,116.897z"/>
			<path style="fill:#DCCEB7;" d="M410.84,120.786c9.32-2.583,19.233-4.258,28.426-3.889c-1.493,18.737,14.144,34.919,30.801,44.819
				c-2.967,1.892-6.031,3.637-9.229,5.159c-26.598,9.026-56.071,1.41-70.264-23.422c-2.234-3.917-3.923-7.784-5.222-11.589
				L410.84,120.786z"/>
		</g>
	</g>
	<path style="fill:#E1D9D2;" d="M247.085,449.433c-24.804-1.361-48.539-6.723-70.557-15.442l27.519-27.519L247.085,449.433z"/>
	<g>
		<path style="fill:#231815;" d="M341.329,467.465v-68.499c-10.562,8.119-26.709,12.908-42.361,5.85c0,23.372,0,58.872,0,73.49
			c0,22.66,32.51,35.464,50.25,33.495c6.855-0.753,7.874-5.905,6.897-8.866c10.834,2.96,14.772-3.937,8.859-12.803
			C357.093,477.315,341.329,467.465,341.329,467.465z"/>
		<path style="fill:#231815;" d="M383.495,121.317c-24.79-15.931-47.527-29.53-47.527-29.53L264.6,74.083H256h-8.6l-71.367,17.703
			c0,0-22.738,13.6-47.527,29.53c-11.882,7.638-23.059,13.146-20.357,20.364c4.51,12.029,31.729,17.934,46.256,3.546
			c0,0,0,53.615,0,75.312c0,21.697,58.396,41.579,58.396,74.125c0,15.68,10.032,23.352,20.427,27.128
			c3.665,2.744,12.482,4.677,22.821,4.677c10.415,0,19.274-1.962,22.883-4.74c10.339-3.798,20.266-11.47,20.266-27.066
			c0-32.545,58.396-52.428,58.396-74.125c0-21.697,0-75.312,0-75.312c14.528,14.388,41.747,8.483,46.256-3.546
			C406.554,134.462,395.377,128.954,383.495,121.317z"/>
		<path style="fill:#231815;" d="M163.333,398.967v68.499c0,0-15.763,9.85-23.645,22.668c-5.913,8.866-1.976,15.763,8.859,12.803
			c-0.978,2.96,0.042,8.112,6.897,8.866c17.739,1.969,50.25-10.834,50.25-33.495c0-14.618,0-50.117,0-73.49
			C190.043,411.875,173.896,407.086,163.333,398.967z"/>
	</g>
	<path style="fill:#EFECE7;" d="M313.196,43.234c-13.152,0-24.685,6.973-31.086,17.418c-7.044-5.948-16.126-9.536-26.06-9.536
		c-9.927,0-19.024,3.588-26.047,9.536c-6.422-10.444-17.934-17.418-31.101-17.418c-20.133,0-36.455,16.322-36.455,36.455
		c0,20.126,16.322,36.448,36.455,36.448c7.812,0,15.044-2.464,20.978-6.639c6.618,13.278,20.322,22.409,36.169,22.409
		c15.847,0,29.557-9.131,36.168-22.409c5.941,4.175,13.166,6.639,20.978,6.639c20.126,0,36.448-16.322,36.448-36.448
		C349.644,59.556,333.322,43.234,313.196,43.234z"/>
</g>
</svg>