<svg id="svg2" xmlns="http://www.w3.org/2000/svg" xml:space="preserve" height="195.57" width="500" version="1.0">
    <path id="rectangle" d="m241.77 150.4h111.53v43.63h-111.53v-43.63z"
        transform="matrix(4.4831 0 0 -4.4831 -1083.9 869.85)" />
    <path id="Blackstone"
        d="m316.91 837.79c3.24 0 6.43 1.09 6.43 4.31 0 2.52-2.48 3.96-3.94 4.32 2.88 0.35 5.75 1.78 5.75 4.65 0 3.58-2.87 5.37-6.46 5.37h-9.31v-0.7h1.43c1.07-0.35 1.07-0.35 1.07-1.44v-3.58-7.18-3.58c0-1.08 0-1.08-1.07-1.08-1.43-0.35-1.43-0.35-1.43-0.35v-0.74h7.53zm-2.16 1.09v7.54h1.81c2.49 0 3.94-1.09 3.94-3.96 0-2.15-1.45-3.93-3.94-3.93-0.74 0-1.81 0.35-1.81 0.35zm0 8.24v6.48c0 1.79 1.07 2.14 3.23 2.14 2.88 0 4.3-1.79 4.3-4.67 0-2.87-2.88-3.95-5.72-3.95h-1.81zm16.12 3.6v3.58c0 1.09 0.36 1.09 1.1 1.44h1.07v0.7h-6.46v-0.7h0.71c1.09-0.35 1.09-0.35 1.09-1.44v-3.58-11.14c0-1.05-0.35-1.44-1.45-1.44h-1.07v-0.7c1.78 0 3.59-0.35 5.01-0.7v5.36 8.62zm10.05 4.28c-1.06 0.74-2.16 1.44-3.58 1.44-1.81 0-2.88-1.44-2.88-2.84 0-2.88 3.24-3.61 6.46-3.96v-3.22c0-1.09-0.7-1.8-1.8-1.8-1.07 0-1.42 0.36-1.78 1.06-0.36 1.09-0.71 1.44-1.43 1.44-0.73 0-1.09-0.35-1.09-0.7 0-1.44 2.88-2.53 4.65-2.53 2.88 0 3.94 0.73 3.94 2.88v6.83c0 0.7 0.39 1.05 1.1 1.05s1.07-0.35 1.42-0.35l0.36 0.35c-1.07 1.09-2.13 1.79-3.59 1.79-1.06 0-1.42-0.7-1.78-1.44zm0-4.66c-2.16 0-4.29 0.73-4.29 2.52 0 1.09 1.07 2.14 2.13 2.14 1.1 0 1.81-0.35 2.16-0.7v-3.96zm16.13-4.66c0 0.74-0.36 1.09-1.06 1.09-0.75 0-1.1-0.71-1.46-1.09-0.35-0.7-1.07-1.06-1.78-1.06-2.16 0-3.59 1.8-3.59 4.67 0 3.22 1.78 5.36 4.66 5.36 1.42 0 2.52-0.35 3.23-1.05l0.36 0.35c-1.42 1.79-3.23 2.49-5.01 2.49-3.24 0-5.4-2.84-5.4-6.1 0-3.57 2.16-6.45 6.11-6.45 2.13 0 3.94 0.73 3.94 1.79zm5.72 5.04v3.58c0 1.09 0.36 1.09 1.1 1.44h1.07v0.7h-6.82v-0.7h1.06c1.1-0.35 1.1-0.35 1.1-1.44v-3.58-11.14c0-1.05-0.35-1.44-1.45-1.44h-1.07v-0.7c1.81 0 3.59-0.35 5.01-0.7v5.36 7.89l4.69-4.31c0.35-0.35 0-0.7-0.39-1.06h-1.06v-0.73h5.39v0.73c-1.45 0-1.81 0.36-2.52 1.06l-3.94 3.61c5.01 5.36 5.01 5.36 5.01 5.36 0.71 0.74 1.07 1.09 2.16 1.09v0.7h-6.1v-0.7h1.06c0.39 0 0.39-0.35 0-0.74-1.78-2.14-1.78-2.14-1.78-2.14-1.42-1.43-2.16-2.52-2.52-2.52v0.38zm11.83 5.37s-0.36 0-0.71 0.35h-0.35v-4.28h0.35c0.71 2.49 1.81 3.58 3.59 3.58 1.8 0 2.52-0.74 2.52-1.79 0-1.09-0.36-1.79-2.88-2.52-1.78-0.71-3.23-1.79-3.23-3.93 0-2.52 2.17-3.61 4.3-3.61 1.45 0 2.16 0.35 2.52 0.35l0.71-0.35h0.35v3.96h-0.71c-0.35-2.17-1.06-3.23-2.87-3.23-1.43 0-2.49 0.71-2.49 1.8 0 1.43 0.71 1.78 2.84 2.49 2.17 1.08 3.59 1.81 3.59 3.6 0 2.88-2.13 3.93-4.65 3.93-1.42 0-2.14-0.35-2.88-0.35zm10.76-2.14v-8.62h-1.42v-0.35c1.42-1.09 2.49-2.14 3.58-3.96h0.36v3.22h3.95v1.09h-3.95v7.89c0 1.43 0.71 1.78 1.78 1.78 0.71 0 1.07 0 2.17-0.7v0.35c-1.1 1.44-2.17 1.79-3.59 1.79-1.81 0-2.88-1.05-2.88-2.49zm7.53-3.61c0-3.92 3.23-6.45 6.47-6.45 3.19 0 6.43 2.53 6.43 6.45 0 3.61-3.24 6.1-6.43 6.1-3.24 0-6.47-2.14-6.47-6.1zm10.05 0c0-3.22-1.45-5.72-3.94-5.72-2.17 0-3.23 2.5-3.23 5.37 0 3.23 1.06 5.75 3.59 5.75 2.49 0 3.58-2.52 3.58-5.4zm13.96-2.14c0-1.78-0.71-2.87-2.13-2.87-1.81 0-2.52 0.73-3.23 1.09v4.3 3.58c0 1.09 0.36 1.09 1.06 1.44h1.07v0.7h-6.79v-0.7h1.07c1.07-0.35 1.07-0.35 1.07-1.44v-3.58-3.22c0-1.44-0.36-2.17-1.43-2.17h-0.71v-0.71c1.78 0 3.2-0.38 4.66-1.08v2.14c1.42-1.06 2.84-1.79 4.65-1.79 2.13 0 3.59 1.44 3.59 3.61v3.22 3.58c0 1.09 0 1.09 1.06 1.44h0.72v0.7h-6.44v-0.7h0.72c1.06-0.35 1.06-0.35 1.06-1.44v-3.58-2.52zm5.72 2.14c0-3.22 2.17-6.45 5.75-6.45 2.88 0 4.66 2.17 5.01 5.02h-8.59c0 3.25 1.42 5.74 4.65 5.74 1.81 0 3.23-0.7 3.59-1.05l0.35 0.35c-1.42 1.44-3.23 2.49-5.36 2.49-3.23 0-5.4-2.84-5.4-6.1zm2.52-2.14h5.76c0-1.78-1.1-3.58-2.88-3.58-1.81 0-2.88 1.8-2.88 3.58z"
        transform="matrix(3.5864 0 0 3.5864 -1083.9 -2904.4)" fill="#fff" />
</svg>